<svg width="219" height="73" viewBox="0 0 219 73" xmlns="http://www.w3.org/2000/svg"><defs><radialGradient cx="50.09%" cy="49.923%" fx="50.09%" fy="49.923%" r="50.117%" id="a"><stop stop-color="#797979" offset="0%"/><stop stop-color="#4C4C4C" offset="100%"/></radialGradient></defs><g fill-rule="nonzero" fill="none"><path fill="#FFF" d="M.393.393H218.87v71.764H.392"/><circle fill="#F5BB60" cx="36.253" cy="36.253" r="20.111"/><circle fill="#E86F32" cx="34.246" cy="34.246" r="18.105"/><circle fill="#E53D42" cx="36.645" cy="31.847" r="15.705"/><circle fill="#BFD141" cx="37.911" cy="33.068" r="14.44"/><circle fill="#6DB64C" cx="36.864" cy="34.159" r="13.393"/><circle fill="#AFDBE7" cx="34.726" cy="32.021" r="11.255"/><circle fill="#57BADF" cx="36.558" cy="30.189" r="9.423"/><circle fill="#02B2D6" cx="37.736" cy="31.323" r="8.289"/><circle fill="url(#a)" cx="36.515" cy="32.545" r="7.067"/><circle fill="#231F20" cx="36.515" cy="32.545" r="7.067"/><ellipse fill="#FFF" transform="rotate(24.166 39.345 29.968)" cx="39.345" cy="29.968" rx="1.396" ry="2.181"/><path d="M62.864 28.575c0-.13.088-.218.262-.218h6.326c3.62 0 5.322 1.657 5.322 4.188 0 1.788-.916 2.792-1.963 3.315v.044c1.048.35 2.27 1.614 2.27 3.533 0 3.14-2.138 4.625-5.846 4.625h-6.108c-.13 0-.262-.087-.262-.218v-15.27zm6.5 6.325c1.484 0 2.444-.828 2.444-2.05 0-1.265-.917-2.094-2.443-2.094h-3.403c-.087 0-.13.044-.13.13v3.884c0 .087.043.13.13.13h3.403zm-3.402 6.762h3.577c1.657 0 2.573-.872 2.573-2.18 0-1.31-.916-2.182-2.574-2.182H65.96c-.087 0-.13.043-.13.13v4.1c0 .09.043.132.13.132zm11.168 2.443c-.13 0-.262-.087-.262-.218V33.155c0-.13.087-.218.262-.218h2.312c.13 0 .262.088.262.218v.96h.043c.568-.872 1.615-1.44 3.14-1.44.96 0 1.92.35 2.532.917.13.13.13.218.042.305l-1.308 1.57c-.088.13-.22.13-.35.044-.567-.304-1.134-.522-1.788-.522-1.57 0-2.27 1.047-2.27 2.835v6.064c0 .13-.086.218-.26.218H77.13zm8.77-2.835c-.263-.786-.394-1.527-.394-2.75 0-1.22.13-1.962.393-2.747.697-1.963 2.53-3.098 4.972-3.098 2.443 0 4.275 1.135 4.973 3.098.262.785.393 1.527.393 2.748 0 1.223-.13 1.964-.393 2.75-.698 1.963-2.53 3.097-4.973 3.097-2.443-.043-4.275-1.178-4.973-3.097zm7.24-.698c.22-.567.262-1.09.262-2.05 0-.96-.043-1.44-.262-2.05-.35-.917-1.134-1.44-2.268-1.44s-1.92.523-2.27 1.44c-.217.61-.26 1.09-.26 2.05 0 .96.043 1.483.26 2.05.35.916 1.136 1.44 2.27 1.44 1.134 0 1.92-.524 2.268-1.44zm15.27 3.533c-.132 0-.262-.087-.306-.218l-2.312-7.154h-.044l-2.356 7.154c-.043.13-.13.218-.305.218h-2.05c-.13 0-.262-.087-.306-.218l-3.838-10.732c-.043-.13.044-.218.175-.218h2.4c.174 0 .26.088.305.218l2.312 7.373h.043l2.312-7.373c.043-.13.174-.218.305-.218h1.788c.13 0 .262.088.306.218l2.442 7.373h.043l2.225-7.373c.044-.174.13-.218.306-.218h2.4c.13 0 .217.088.174.218l-3.796 10.69c-.043.13-.13.217-.305.217h-1.92v.043zm6.63-1.527c-.087-.087-.087-.218 0-.305l1.44-1.396c.087-.087.262-.087.35 0 .872.742 2.268 1.265 3.533 1.265 1.483 0 2.225-.567 2.225-1.31 0-.653-.437-1.09-2.007-1.22l-1.308-.13c-2.443-.22-3.708-1.397-3.708-3.273 0-2.138 1.658-3.535 4.668-3.535 1.876 0 3.446.568 4.537 1.353.13.087.13.218.043.305l-1.222 1.353c-.086.13-.217.13-.348.043-.742-.48-1.963-.917-3.14-.917-1.223 0-1.833.48-1.833 1.178 0 .655.435 1.048 1.962 1.18l1.31.13c2.53.218 3.75 1.44 3.75 3.272 0 2.225-1.745 3.795-5.06 3.795-2.487-.043-4.188-.916-5.192-1.79zm12.172-1.352c-.262-.698-.436-1.57-.436-2.748 0-1.178.13-2.05.392-2.75.698-1.962 2.53-3.096 4.93-3.096 2.487 0 4.275 1.178 4.973 3.097.263.785.394 1.57.394 3.358 0 .13-.087.22-.262.22h-7.46c-.087 0-.13.042-.13.13 0 .305.087.61.174.872.392 1.09 1.352 1.7 2.705 1.7s2.226-.48 2.836-1.046c.13-.13.262-.13.393-.043l1.482 1.222c.13.087.13.218.044.306-1.047 1.09-2.75 1.92-4.973 1.92-2.574-.044-4.363-1.18-5.06-3.142zm7.285-4.93c-.305-.916-1.22-1.44-2.355-1.44s-2.05.524-2.4 1.44c-.087.262-.13.568-.13.96 0 .087.043.13.13.13h4.755c.088 0 .13-.043.13-.13.045-.392 0-.698-.13-.96zm5.06 7.81c-.13 0-.26-.088-.26-.22v-10.73c0-.13.086-.22.26-.22h2.313c.13 0 .262.09.262.22v.96h.043c.568-.873 1.615-1.44 3.142-1.44.96 0 1.92.35 2.53.916.13.13.13.218.043.305l-1.308 1.57c-.088.13-.218.13-.35.044-.566-.304-1.134-.522-1.788-.522-1.57 0-2.27 1.047-2.27 2.835v6.064c0 .13-.086.218-.26.218h-2.356zm8.726-1.833c-.087-.087-.13-.218-.044-.35l1.57-1.657c.087-.13.262-.13.35-.043 1.09.83 2.747 1.657 4.623 1.657 2.05 0 3.23-.96 3.23-2.268 0-1.134-.743-1.876-3.1-2.18L154 37.3c-3.272-.436-5.148-1.876-5.148-4.494 0-2.835 2.27-4.755 5.76-4.755 2.136 0 4.143.612 5.496 1.572.13.087.13.174.043.305l-1.222 1.7c-.088.132-.218.132-.35.09-1.395-.83-2.66-1.223-4.1-1.223-1.745 0-2.66.873-2.66 2.094 0 1.09.828 1.833 3.14 2.138l.916.13c3.272.437 5.104 1.833 5.104 4.58 0 2.793-2.18 4.888-6.413 4.888-2.53 0-4.93-.917-6.282-2.05zm17.887 2.007c-2.444 0-3.36-1.09-3.36-3.272v-5.89c0-.087-.043-.13-.13-.13h-.83c-.13 0-.26-.088-.26-.218V33.2c0-.132.086-.22.26-.22h.786c.087 0 .13-.043.13-.13v-3.054c0-.13.088-.218.262-.218h2.313c.132 0 .262.087.262.218v3.054c0 .087.044.13.13.13h1.615c.13 0 .262.088.262.22v1.57c0 .13-.088.218-.263.218h-1.57c-.087 0-.13.043-.13.13v5.803c0 .786.348 1.048 1.133 1.048h.61c.132 0 .263.087.263.218v1.876c0 .13-.087.218-.262.218h-1.22zm10.6-.175c-.13 0-.26-.087-.26-.218v-.83h-.045c-.567.787-1.7 1.31-3.403 1.31-2.225 0-4.057-1.047-4.057-3.403 0-2.443 1.832-3.533 4.843-3.533h2.443c.088 0 .132-.043.132-.13v-.524c0-1.265-.655-1.832-2.662-1.832-1.352 0-2.18.35-2.748.785-.13.087-.262.087-.35-.044l-.915-1.527c-.087-.132-.044-.22.043-.307.96-.654 2.313-1.09 4.276-1.09 3.664 0 5.017 1.178 5.017 3.882v7.286c0 .132-.088.22-.262.22h-2.05v-.045zm-.26-3.75v-.874c0-.086-.045-.13-.132-.13h-2.007c-1.788 0-2.616.48-2.616 1.527 0 .916.74 1.396 2.094 1.396 1.7-.044 2.66-.654 2.66-1.92zm4.84.915c-.26-.698-.39-1.57-.39-2.75 0-1.177.13-2.05.39-2.747.7-2.007 2.575-3.098 4.975-3.098 1.788 0 3.228.655 4.188 1.746.087.088.087.22-.044.306l-1.572 1.265c-.13.088-.26.088-.35-.043-.61-.61-1.22-.96-2.223-.96-1.09 0-1.92.48-2.27 1.44-.217.567-.26 1.222-.26 2.05 0 .83.043 1.528.26 2.095.35.96 1.18 1.44 2.27 1.44 1.003 0 1.614-.35 2.224-.96.087-.13.218-.13.348-.044l1.57 1.265c.132.087.088.218.045.305-.96 1.047-2.4 1.702-4.188 1.702-2.444.044-4.276-1.047-4.974-3.01zm18.935 2.835c-.175 0-.306-.087-.393-.218l-3.054-4.668-1.614 1.744v2.923c0 .13-.087.218-.262.218h-2.312c-.13 0-.262-.087-.262-.218V28.575c0-.13.088-.218.262-.218h2.312c.13 0 .262.087.262.218v9.074l4.145-4.495c.13-.174.26-.218.478-.218h2.574c.13 0 .218.13.088.218l-3.84 4.058 4.407 6.63c.087.088.043.22-.13.22h-2.662v.042z" fill="#382F27"/></g></svg>
