<svg width="219" height="48" viewBox="0 0 219 48" xmlns="http://www.w3.org/2000/svg"><defs><radialGradient cx="50.09%" cy="49.923%" fx="50.09%" fy="49.923%" r="50.117%" id="a"><stop stop-color="#797979" offset="0%"/><stop stop-color="#4C4C4C" offset="100%"/></radialGradient></defs><g fill-rule="nonzero" fill="none"><circle fill="#F5BB60" cx="23.534" cy="23.534" r="23.534"/><circle fill="#E86F32" cx="21.185" cy="21.185" r="21.185"/><circle fill="#E53D42" cx="23.993" cy="18.378" r="18.378"/><circle fill="#BFD141" cx="25.473" cy="19.807" r="16.897"/><circle fill="#6DB64C" cx="24.248" cy="21.083" r="15.672"/><circle fill="#AFDBE7" cx="21.747" cy="18.582" r="13.171"/><circle fill="#57BADF" cx="23.891" cy="16.438" r="11.027"/><circle fill="#02B2D6" cx="25.269" cy="17.765" r="9.699"/><circle fill="url(#a)" cx="23.84" cy="19.194" r="8.27"/><circle fill="#231F20" cx="23.84" cy="19.194" r="8.27"/><ellipse fill="#FFF" transform="rotate(24.166 27.152 16.18)" cx="27.152" cy="16.18" rx="1.634" ry="2.552"/><path d="M54.673 14.55c0-.154.103-.256.307-.256h7.402c4.237 0 6.228 1.94 6.228 4.9 0 2.093-1.072 3.268-2.297 3.88v.05c1.225.41 2.654 1.89 2.654 4.136 0 3.676-2.5 5.41-6.84 5.41H54.98c-.153 0-.307-.1-.307-.254V14.55zm7.607 7.4c1.735 0 2.858-.97 2.858-2.398 0-1.48-1.072-2.45-2.858-2.45h-3.982c-.102 0-.153.05-.153.153v4.543c0 .102.05.153.153.153h3.982zm-3.982 7.914h4.186c1.94 0 3.012-1.02 3.012-2.553 0-1.53-1.072-2.55-3.012-2.55h-4.186c-.102 0-.153.05-.153.152v4.798c0 .103.05.154.153.154zm13.068 2.858c-.153 0-.306-.102-.306-.255V19.91c0-.154.102-.256.306-.256h2.706c.153 0 .306.102.306.255v1.122h.05c.665-1.02 1.89-1.684 3.677-1.684 1.123 0 2.246.408 2.96 1.072.154.153.154.255.052.357l-1.532 1.838c-.102.153-.255.153-.408.05-.664-.357-1.327-.612-2.093-.612-1.838 0-2.655 1.225-2.655 3.318v7.097c0 .153-.103.255-.307.255h-2.757zm10.26-3.318c-.305-.92-.458-1.787-.458-3.216 0-1.43.153-2.297.46-3.216.816-2.297 2.96-3.624 5.82-3.624 2.858 0 5.002 1.327 5.818 3.624.307.92.46 1.787.46 3.216 0 1.43-.153 2.297-.46 3.216-.816 2.297-2.96 3.625-5.82 3.625-2.858-.052-5.002-1.38-5.82-3.626zm8.475-.817c.257-.663.308-1.276.308-2.4 0-1.122-.05-1.684-.307-2.398-.407-1.073-1.326-1.686-2.653-1.686s-2.246.613-2.655 1.685c-.255.713-.306 1.275-.306 2.398 0 1.123.05 1.736.306 2.4.41 1.07 1.328 1.684 2.655 1.684 1.327 0 2.246-.613 2.654-1.685zm17.87 4.135c-.155 0-.308-.102-.36-.255l-2.704-8.372h-.05l-2.758 8.372c-.05.153-.153.255-.357.255h-2.4c-.152 0-.305-.102-.356-.255L94.492 19.91c-.05-.154.05-.256.204-.256h2.807c.205 0 .307.102.358.255l2.706 8.626h.05l2.707-8.627c.05-.154.204-.256.357-.256h2.093c.154 0 .307.102.358.255l2.86 8.626h.05l2.604-8.627c.05-.205.153-.256.357-.256h2.81c.152 0 .254.102.203.255l-4.44 12.506c-.052.153-.154.255-.358.255h-2.246v.052zm7.758-1.786c-.102-.102-.102-.256 0-.358l1.685-1.633c.102-.102.306-.102.408 0 1.022.868 2.656 1.48 4.136 1.48 1.736 0 2.603-.663 2.603-1.53 0-.767-.51-1.278-2.35-1.43l-1.53-.154c-2.86-.254-4.34-1.632-4.34-3.827 0-2.502 1.94-4.135 5.463-4.135 2.195 0 4.033.663 5.31 1.582.152.102.152.255.05.357l-1.43 1.583c-.102.153-.255.153-.408.05-.868-.56-2.297-1.07-3.675-1.07-1.43 0-2.144.56-2.144 1.377 0 .766.51 1.225 2.297 1.38l1.53.152c2.962.254 4.39 1.683 4.39 3.827 0 2.604-2.04 4.442-5.92 4.442-2.91-.052-4.9-1.073-6.075-2.094zm14.243-1.583c-.306-.817-.51-1.838-.51-3.216 0-1.378.153-2.4.46-3.216.816-2.296 2.96-3.623 5.768-3.623 2.91 0 5.003 1.378 5.82 3.624.306.92.46 1.84.46 3.932 0 .153-.103.255-.307.255h-8.73c-.1 0-.152.05-.152.153 0 .357.102.715.205 1.02.46 1.277 1.582 1.992 3.165 1.992 1.582 0 2.603-.562 3.318-1.225.153-.153.306-.153.46-.05l1.735 1.428c.154.102.154.255.052.358-1.225 1.276-3.216 2.246-5.82 2.246-3.012-.052-5.105-1.38-5.92-3.677zm8.526-5.768c-.358-1.072-1.43-1.685-2.757-1.685-1.328 0-2.4.613-2.81 1.685-.1.306-.152.663-.152 1.123 0 .102.05.153.153.153h5.566c.102 0 .153-.05.153-.152.05-.46 0-.817-.154-1.123zm5.92 9.137c-.152 0-.305-.102-.305-.255V19.91c0-.154.103-.256.307-.256h2.706c.153 0 .306.102.306.255v1.122h.05c.664-1.02 1.89-1.684 3.676-1.684 1.123 0 2.246.408 2.96 1.072.154.153.154.255.052.357l-1.532 1.838c-.102.153-.255.153-.408.05-.664-.357-1.327-.612-2.093-.612-1.838 0-2.655 1.225-2.655 3.318v7.097c0 .153-.102.255-.306.255h-2.757zm10.21-2.144c-.1-.102-.152-.255-.05-.408l1.838-1.94c.102-.153.306-.153.408-.05 1.277.97 3.216 1.94 5.412 1.94 2.4 0 3.777-1.124 3.777-2.656 0-1.327-.867-2.195-3.623-2.552l-1.072-.153c-3.83-.512-6.024-2.196-6.024-5.26 0-3.317 2.655-5.564 6.74-5.564 2.5 0 4.85.715 6.432 1.838.153.102.153.204.05.357l-1.43 1.992c-.1.154-.254.154-.407.102-1.634-.97-3.114-1.43-4.8-1.43-2.04 0-3.113 1.022-3.113 2.45 0 1.278.97 2.146 3.676 2.503l1.072.153c3.828.51 5.973 2.144 5.973 5.36 0 3.267-2.553 5.718-7.505 5.718-2.96 0-5.768-1.072-7.35-2.4zm20.93 2.35c-2.857 0-3.93-1.278-3.93-3.83v-6.892c0-.102-.05-.153-.153-.153h-.97c-.153 0-.306-.102-.306-.255V19.96c0-.153.102-.255.306-.255h.92c.1 0 .153-.05.153-.153v-3.574c0-.153.102-.255.306-.255h2.705c.154 0 .307.102.307.255v3.574c0 .102.05.153.153.153h1.89c.152 0 .305.102.305.255v1.838c0 .153-.102.255-.306.255h-1.838c-.102 0-.153.05-.153.153v6.79c0 .92.408 1.225 1.327 1.225h.715c.153 0 .306.103.306.256v2.195c0 .154-.102.257-.306.257h-1.43zm12.406-.206c-.153 0-.306-.102-.306-.255v-.97h-.05c-.665.92-1.992 1.532-3.983 1.532-2.603 0-4.747-1.227-4.747-3.983 0-2.86 2.144-4.135 5.666-4.135h2.86c.1 0 .152-.05.152-.153v-.614c0-1.48-.766-2.144-3.114-2.144-1.583 0-2.553.408-3.216.92-.153.1-.307.1-.41-.052l-1.07-1.787c-.103-.153-.052-.255.05-.357 1.123-.766 2.706-1.276 5.003-1.276 4.288 0 5.87 1.378 5.87 4.543v8.525c0 .153-.1.255-.305.255h-2.4v-.05zm-.306-4.39v-1.02c0-.103-.05-.154-.153-.154h-2.348c-2.093 0-3.063.562-3.063 1.787 0 1.072.867 1.633 2.45 1.633 1.99-.05 3.114-.765 3.114-2.246zm5.666 1.072c-.306-.817-.46-1.838-.46-3.216 0-1.378.154-2.4.46-3.216.817-2.348 3.012-3.624 5.82-3.624 2.093 0 3.778.765 4.9 2.042.103.102.103.255-.05.357l-1.838 1.48c-.153.102-.306.102-.41-.05-.713-.715-1.428-1.124-2.602-1.124-1.276 0-2.246.562-2.655 1.685-.255.663-.306 1.43-.306 2.4s.052 1.786.307 2.45c.41 1.122 1.38 1.684 2.655 1.684 1.174 0 1.89-.408 2.603-1.123.103-.154.256-.154.41-.052l1.837 1.48c.153.102.102.256.05.358-1.122 1.225-2.807 1.99-4.9 1.99-2.86.052-5.003-1.225-5.82-3.522zm22.156 3.318c-.205 0-.358-.102-.46-.255l-3.573-5.462-1.89 2.042v3.42c0 .153-.1.255-.305.255h-2.706c-.153 0-.306-.102-.306-.255V14.55c0-.154.102-.256.306-.256h2.706c.153 0 .306.102.306.255v10.617l4.85-5.258c.153-.205.306-.256.56-.256h3.013c.152 0 .254.153.1.255l-4.49 4.747 5.155 7.76c.102.1.05.254-.153.254h-3.114v.052z" fill="#382F27"/></g></svg>
