<svg width="219" height="48" viewBox="0 0 219 48" xmlns="http://www.w3.org/2000/svg"><defs><radialGradient cx="50.09%" cy="49.923%" fx="50.09%" fy="49.923%" r="50.117%" id="a"><stop stop-color="#797979" offset="0%"/><stop stop-color="#4C4C4C" offset="100%"/></radialGradient></defs><g fill="none"><circle fill="#F5BB60" cx="23.534" cy="23.534" r="23.534"/><circle fill="#E86F32" cx="21.185" cy="21.185" r="21.185"/><circle fill="#E53D42" cx="23.993" cy="18.378" r="18.378"/><circle fill="#BFD141" cx="25.473" cy="19.807" r="16.897"/><circle fill="#6DB64C" cx="24.248" cy="21.083" r="15.672"/><circle fill="#AFDBE7" cx="21.747" cy="18.582" r="13.171"/><circle fill="#57BADF" cx="23.891" cy="16.438" r="11.027"/><circle fill="#02B2D6" cx="25.269" cy="17.765" r="9.699"/><circle fill="url(#a)" cx="23.84" cy="19.194" r="8.27"/><circle fill="#231F20" cx="23.84" cy="19.194" r="8.27"/><ellipse fill="#FFF" transform="rotate(24.166 27.152 16.18)" cx="27.152" cy="16.18" rx="1.634" ry="2.552"/><path d="M54.673 14.55c0-.154.103-.256.307-.256h7.402c4.237 0 6.228 1.94 6.228 4.9 0 2.093-1.072 3.268-2.297 3.88v.05c1.225.41 2.654 1.89 2.654 4.136 0 3.676-2.5 5.41-6.84 5.41H54.98c-.153 0-.307-.1-.307-.254V14.55zm7.607 7.4c1.735 0 2.858-.97 2.858-2.398 0-1.48-1.072-2.45-2.858-2.45h-3.982c-.102 0-.153.05-.153.153v4.543c0 .102.05.153.153.153h3.982zm-3.982 7.914h4.186c1.94 0 3.012-1.02 3.012-2.553 0-1.53-1.072-2.55-3.012-2.55h-4.186c-.102 0-.153.05-.153.16v4.8c0 .11.05.16.153.16zm13.068 2.858c-.153 0-.306-.102-.306-.255V19.91c0-.154.102-.256.306-.256h2.706c.153 0 .306.102.306.255v1.12h.05c.665-1.02 1.89-1.69 3.677-1.69 1.123 0 2.246.41 2.96 1.07.154.15.154.25.052.35l-1.532 1.84c-.102.15-.255.15-.408.05-.664-.36-1.327-.61-2.093-.61-1.838 0-2.655 1.22-2.655 3.31v7.09c0 .15-.11.25-.31.25h-2.76zm10.26-3.318c-.305-.92-.458-1.787-.458-3.216 0-1.43.153-2.297.46-3.216.816-2.297 2.96-3.624 5.82-3.624 2.858 0 5.002 1.327 5.818 3.624.307.92.46 1.787.46 3.216 0 1.43-.153 2.297-.46 3.216-.816 2.297-2.96 3.625-5.82 3.625-2.858-.06-5.002-1.38-5.82-3.63zm8.475-.817c.26-.663.31-1.276.31-2.4 0-1.122-.05-1.684-.3-2.398-.4-1.08-1.32-1.69-2.65-1.69s-2.24.61-2.65 1.68c-.25.71-.3 1.27-.3 2.4 0 1.12.05 1.73.31 2.4.41 1.07 1.33 1.68 2.66 1.68s2.25-.62 2.66-1.69zm17.87 4.135c-.15 0-.3-.102-.36-.255l-2.7-8.372h-.05l-2.76 8.372c-.05.153-.15.255-.35.255h-2.4c-.15 0-.3-.102-.35-.255L94.5 19.91c-.05-.154.05-.256.204-.256h2.8c.207 0 .31.102.36.255l2.71 8.62h.05l2.708-8.63c.05-.16.205-.26.358-.26h2.094c.153 0 .306.1.357.25l2.86 8.63h.05l2.61-8.63c.05-.21.15-.26.35-.26h2.81c.16 0 .26.1.21.25l-4.44 12.51c-.05.15-.15.26-.36.26h-2.24v.05zm7.76-1.786c-.1-.102-.1-.256 0-.358l1.69-1.633c.1-.102.31-.102.41 0 1.02.868 2.66 1.48 4.14 1.48 1.74 0 2.61-.663 2.61-1.53 0-.767-.51-1.278-2.35-1.43l-1.53-.154c-2.86-.25-4.34-1.63-4.34-3.82 0-2.5 1.94-4.13 5.47-4.13 2.2 0 4.04.67 5.31 1.58.15.11.15.26.05.36l-1.43 1.58c-.1.16-.25.16-.41.05-.87-.56-2.29-1.07-3.67-1.07-1.43 0-2.14.56-2.14 1.38 0 .77.51 1.23 2.3 1.38l1.53.15c2.97.26 4.39 1.69 4.39 3.83 0 2.61-2.04 4.44-5.92 4.44-2.91-.05-4.9-1.07-6.07-2.09zm14.25-1.583c-.3-.817-.51-1.838-.51-3.216 0-1.378.16-2.4.46-3.216.82-2.29 2.96-3.62 5.77-3.62 2.91 0 5.01 1.38 5.82 3.63.31.92.46 1.84.46 3.93 0 .16-.1.26-.3.26h-8.73c-.1 0-.15.05-.15.16 0 .36.11.72.21 1.02.46 1.28 1.59 1.99 3.17 1.99s2.6-.56 3.32-1.22c.15-.15.31-.15.46-.05l1.73 1.43c.16.1.16.26.05.36-1.22 1.28-3.21 2.25-5.82 2.25-3.01-.05-5.1-1.38-5.92-3.67zm8.53-5.768c-.36-1.072-1.43-1.685-2.75-1.685s-2.4.613-2.81 1.685c-.1.306-.15.663-.15 1.123 0 .102.05.153.15.153h5.57c.11 0 .16-.05.16-.15.05-.46 0-.81-.15-1.12zm5.92 9.137c-.15 0-.3-.102-.3-.255V19.91c0-.154.11-.256.31-.256h2.71c.16 0 .31.102.31.255v1.12h.05c.67-1.02 1.89-1.69 3.68-1.69 1.12 0 2.25.41 2.96 1.07.15.15.15.25.05.35l-1.53 1.84c-.1.15-.26.15-.41.05-.66-.36-1.33-.61-2.09-.61-1.84 0-2.65 1.22-2.65 3.31v7.09c0 .15-.1.25-.3.25h-2.752zm10.21-2.144c-.1-.102-.15-.255-.05-.408l1.84-1.94c.11-.153.31-.153.41-.05 1.28.97 3.22 1.94 5.41 1.94 2.4 0 3.78-1.124 3.78-2.656 0-1.327-.86-2.195-3.62-2.552l-1.07-.153c-3.83-.52-6.02-2.2-6.02-5.26 0-3.32 2.66-5.57 6.74-5.57 2.5 0 4.85.71 6.44 1.84.15.1.15.2.05.35l-1.43 1.99c-.1.15-.25.15-.41.1-1.63-.97-3.11-1.43-4.8-1.43-2.04 0-3.11 1.02-3.11 2.45 0 1.28.97 2.14 3.68 2.5l1.07.15c3.83.51 5.98 2.14 5.98 5.36 0 3.26-2.55 5.71-7.5 5.71-2.96 0-5.77-1.07-7.35-2.4zm20.93 2.35c-2.85 0-3.93-1.278-3.93-3.83v-6.892c0-.102-.05-.153-.15-.153h-.97c-.15 0-.3-.102-.3-.255V19.96c0-.153.1-.255.31-.255h.92c.1 0 .15-.05.15-.153v-3.574c0-.153.1-.255.31-.255h2.71c.15 0 .31.102.31.255v3.574c0 .102.05.153.16.153h1.89c.15 0 .3.102.3.255v1.838c0 .153-.1.255-.3.255h-1.84c-.1 0-.15.05-.15.153v6.79c0 .92.41 1.225 1.33 1.225h.71c.15 0 .3.11.3.26v2.2c0 .16-.1.26-.303.26h-1.43zm12.41-.206c-.15 0-.3-.102-.3-.255v-.97h-.05c-.66.92-1.99 1.532-3.98 1.532-2.6 0-4.74-1.23-4.74-3.99 0-2.86 2.15-4.14 5.67-4.14h2.86c.1 0 .15-.05.15-.16v-.62c0-1.48-.76-2.15-3.11-2.15-1.58 0-2.55.4-3.21.92-.15.1-.31.1-.41-.06l-1.07-1.79c-.1-.15-.05-.26.05-.36 1.12-.77 2.71-1.28 5-1.28 4.29 0 5.87 1.37 5.87 4.54v8.53c0 .15-.1.25-.31.25H188v-.05zm-.3-4.39v-1.02c0-.103-.05-.154-.15-.154h-2.35c-2.09 0-3.06.562-3.06 1.787 0 1.072.87 1.633 2.45 1.633 1.99-.05 3.12-.765 3.12-2.246zm5.67 1.072c-.3-.817-.46-1.838-.46-3.216 0-1.378.16-2.4.46-3.216.82-2.348 3.02-3.624 5.82-3.624 2.1 0 3.78.765 4.9 2.042.11.102.11.255-.05.357l-1.83 1.48c-.15.102-.31.102-.41-.05-.71-.715-1.43-1.124-2.6-1.124-1.27 0-2.24.562-2.65 1.685-.253.663-.31 1.43-.31 2.4s.058 1.786.31 2.45c.41 1.122 1.38 1.684 2.657 1.684 1.17 0 1.89-.408 2.6-1.123.105-.16.258-.16.41-.06l1.83 1.48c.153.1.1.25.05.36-1.122 1.22-2.807 1.99-4.9 1.99-2.86.05-5.003-1.23-5.82-3.52zm22.16 3.318c-.2 0-.35-.102-.46-.255l-3.57-5.462-1.89 2.042v3.42c0 .153-.1.255-.3.255h-2.7c-.15 0-.3-.102-.3-.255V14.55c0-.154.107-.256.31-.256h2.707c.15 0 .303.102.303.255v10.61l4.85-5.26c.15-.21.303-.26.56-.26h3c.15 0 .253.15.1.25l-4.49 4.74 5.154 7.76c.1.1.05.25-.156.25h-3.12v.05z" fill="#382F27"/></g></svg>
