<svg version="1" xmlns="http://www.w3.org/2000/svg" viewBox="0 0 428.5 92.3"><path fill="#FFF" d="M-36.1-36.1h500.8v164.5H-36.1z"/><circle fill="#F5BB60" cx="46.1" cy="46.1" r="46.1"/><circle fill="#E86F32" cx="41.5" cy="41.5" r="41.5"/><circle fill="#E53D42" cx="47" cy="36" r="36"/><circle fill="#BFD141" cx="49.9" cy="38.8" r="33.1"/><circle fill="#6DB64C" cx="47.5" cy="41.3" r="30.7"/><circle fill="#AFDBE7" cx="42.6" cy="36.4" r="25.8"/><circle fill="#57BADF" cx="46.8" cy="32.2" r="21.6"/><circle fill="#02B2D6" cx="49.5" cy="34.8" r="19"/><radialGradient id="a" cx="46.729" cy="37.575" r="16.238" gradientUnits="userSpaceOnUse"><stop offset="0" stop-color="#797979"/><stop offset="1" stop-color="#4C4C4C"/></radialGradient><circle fill="url(#a)" cx="46.7" cy="37.6" r="16.2"/><circle fill="#231F20" cx="46.7" cy="37.6" r="16.2"/><ellipse transform="rotate(24.166 53.207 31.67)" fill="#FFF" cx="53.2" cy="31.7" rx="3.2" ry="5"/><path fill="#382F27" d="M107.1 28.5c0-.3.2-.5.6-.5h14.5c8.3 0 12.2 3.8 12.2 9.6 0 4.1-2.1 6.4-4.5 7.6v.1c2.4.8 5.2 3.7 5.2 8.1 0 7.2-4.9 10.6-13.4 10.6h-14c-.3 0-.6-.2-.6-.5v-35zM122 43c3.4 0 5.6-1.9 5.6-4.7 0-2.9-2.1-4.8-5.6-4.8h-7.8c-.2 0-.3.1-.3.3v8.9c0 .2.1.3.3.3h7.8zm-7.8 15.5h8.2c3.8 0 5.9-2 5.9-5s-2.1-5-5.9-5h-8.2c-.2 0-.3.1-.3.3v9.4c0 .2.1.3.3.3zM139.8 64.1c-.3 0-.6-.2-.6-.5V39c0-.3.2-.5.6-.5h5.3c.3 0 .6.2.6.5v2.2h.1c1.3-2 3.7-3.3 7.2-3.3 2.2 0 4.4.8 5.8 2.1.3.3.3.5.1.7l-3 3.6c-.2.3-.5.3-.8.1-1.3-.7-2.6-1.2-4.1-1.2-3.6 0-5.2 2.4-5.2 6.5v13.9c0 .3-.2.5-.6.5h-5.4zM159.9 57.6c-.6-1.8-.9-3.5-.9-6.3s.3-4.5.9-6.3c1.6-4.5 5.8-7.1 11.4-7.1 5.6 0 9.8 2.6 11.4 7.1.6 1.8.9 3.5.9 6.3s-.3 4.5-.9 6.3c-1.6 4.5-5.8 7.1-11.4 7.1-5.6-.1-9.8-2.7-11.4-7.1zm16.6-1.6c.5-1.3.6-2.5.6-4.7s-.1-3.3-.6-4.7c-.8-2.1-2.6-3.3-5.2-3.3s-4.4 1.2-5.2 3.3c-.5 1.4-.6 2.5-.6 4.7s.1 3.4.6 4.7c.8 2.1 2.6 3.3 5.2 3.3s4.4-1.2 5.2-3.3zM211.5 64.1c-.3 0-.6-.2-.7-.5l-5.3-16.4h-.1L200 63.6c-.1.3-.3.5-.7.5h-4.7c-.3 0-.6-.2-.7-.5L185.1 39c-.1-.3.1-.5.4-.5h5.5c.4 0 .6.2.7.5l5.3 16.9h.1l5.3-16.9c.1-.3.4-.5.7-.5h4.1c.3 0 .6.2.7.5l5.6 16.9h.1l5.1-16.9c.1-.4.3-.5.7-.5h5.5c.3 0 .5.2.4.5l-8.7 24.5c-.1.3-.3.5-.7.5h-4.4zM226.7 60.6c-.2-.2-.2-.5 0-.7l3.3-3.2c.2-.2.6-.2.8 0 2 1.7 5.2 2.9 8.1 2.9 3.4 0 5.1-1.3 5.1-3 0-1.5-1-2.5-4.6-2.8l-3-.3c-5.6-.5-8.5-3.2-8.5-7.5 0-4.9 3.8-8.1 10.7-8.1 4.3 0 7.9 1.3 10.4 3.1.3.2.3.5.1.7l-2.8 3.1c-.2.3-.5.3-.8.1-1.7-1.1-4.5-2.1-7.2-2.1-2.8 0-4.2 1.1-4.2 2.7 0 1.5 1 2.4 4.5 2.7l3 .3c5.8.5 8.6 3.3 8.6 7.5 0 5.1-4 8.7-11.6 8.7-5.7-.1-9.6-2.1-11.9-4.1zM254.6 57.5c-.6-1.6-1-3.6-1-6.3s.3-4.7.9-6.3c1.6-4.5 5.8-7.1 11.3-7.1 5.7 0 9.8 2.7 11.4 7.1.6 1.8.9 3.6.9 7.7 0 .3-.2.5-.6.5h-17.1c-.2 0-.3.1-.3.3 0 .7.2 1.4.4 2 .9 2.5 3.1 3.9 6.2 3.9s5.1-1.1 6.5-2.4c.3-.3.6-.3.9-.1l3.4 2.8c.3.2.3.5.1.7-2.4 2.5-6.3 4.4-11.4 4.4-5.9-.1-10-2.7-11.6-7.2zm16.7-11.3c-.7-2.1-2.8-3.3-5.4-3.3-2.6 0-4.7 1.2-5.5 3.3-.2.6-.3 1.3-.3 2.2 0 .2.1.3.3.3h10.9c.2 0 .3-.1.3-.3.1-.9 0-1.6-.3-2.2zM282.9 64.1c-.3 0-.6-.2-.6-.5V39c0-.3.2-.5.6-.5h5.3c.3 0 .6.2.6.5v2.2h.1c1.3-2 3.7-3.3 7.2-3.3 2.2 0 4.4.8 5.8 2.1.3.3.3.5.1.7l-3 3.6c-.2.3-.5.3-.8.1-1.3-.7-2.6-1.2-4.1-1.2-3.6 0-5.2 2.4-5.2 6.5v13.9c0 .3-.2.5-.6.5h-5.4zM302.9 59.9c-.2-.2-.3-.5-.1-.8l3.6-3.8c.2-.3.6-.3.8-.1 2.5 1.9 6.3 3.8 10.6 3.8 4.7 0 7.4-2.2 7.4-5.2 0-2.6-1.7-4.3-7.1-5l-2.1-.3c-7.5-1-11.8-4.3-11.8-10.3 0-6.5 5.2-10.9 13.2-10.9 4.9 0 9.5 1.4 12.6 3.6.3.2.3.4.1.7l-2.8 3.9c-.2.3-.5.3-.8.2-3.2-1.9-6.1-2.8-9.4-2.8-4 0-6.1 2-6.1 4.8 0 2.5 1.9 4.2 7.2 4.9l2.1.3c7.5 1 11.7 4.2 11.7 10.5 0 6.4-5 11.2-14.7 11.2-5.8 0-11.3-2.1-14.4-4.7zM343.9 64.5c-5.6 0-7.7-2.5-7.7-7.5V43.5c0-.2-.1-.3-.3-.3H334c-.3 0-.6-.2-.6-.5v-3.6c0-.3.2-.5.6-.5h1.8c.2 0 .3-.1.3-.3v-7c0-.3.2-.5.6-.5h5.3c.3 0 .6.2.6.5v7c0 .2.1.3.3.3h3.7c.3 0 .6.2.6.5v3.6c0 .3-.2.5-.6.5H343c-.2 0-.3.1-.3.3v13.3c0 1.8.8 2.4 2.6 2.4h1.4c.3 0 .6.2.6.5V64c0 .3-.2.5-.6.5h-2.8zM368.2 64.1c-.3 0-.6-.2-.6-.5v-1.9h-.1c-1.3 1.8-3.9 3-7.8 3-5.1 0-9.3-2.4-9.3-7.8 0-5.6 4.2-8.1 11.1-8.1h5.6c.2 0 .3-.1.3-.3v-1.2c0-2.9-1.5-4.2-6.1-4.2-3.1 0-5 .8-6.3 1.8-.3.2-.6.2-.8-.1l-2.1-3.5c-.2-.3-.1-.5.1-.7 2.2-1.5 5.3-2.5 9.8-2.5 8.4 0 11.5 2.7 11.5 8.9v16.7c0 .3-.2.5-.6.5h-4.7zm-.6-8.6v-2c0-.2-.1-.3-.3-.3h-4.6c-4.1 0-6 1.1-6 3.5 0 2.1 1.7 3.2 4.8 3.2 3.9-.1 6.1-1.5 6.1-4.4zM378.7 57.6c-.6-1.6-.9-3.6-.9-6.3s.3-4.7.9-6.3c1.6-4.6 5.9-7.1 11.4-7.1 4.1 0 7.4 1.5 9.6 4 .2.2.2.5-.1.7l-3.6 2.9c-.3.2-.6.2-.8-.1-1.4-1.4-2.8-2.2-5.1-2.2-2.5 0-4.4 1.1-5.2 3.3-.5 1.3-.6 2.8-.6 4.7s.1 3.5.6 4.8c.8 2.2 2.7 3.3 5.2 3.3 2.3 0 3.7-.8 5.1-2.2.2-.3.5-.3.8-.1l3.6 2.9c.3.2.2.5.1.7-2.2 2.4-5.5 3.9-9.6 3.9-5.6.1-9.8-2.4-11.4-6.9zM422.1 64.1c-.4 0-.7-.2-.9-.5l-7-10.7-3.7 4v6.7c0 .3-.2.5-.6.5h-5.3c-.3 0-.6-.2-.6-.5V28.5c0-.3.2-.5.6-.5h5.3c.3 0 .6.2.6.5v20.8L420 39c.3-.4.6-.5 1.1-.5h5.9c.3 0 .5.3.2.5l-8.8 9.3 10.1 15.2c.2.2.1.5-.3.5h-6.1z"/></svg>
