<svg width="56" height="56" id="Layer_1" xmlns="http://www.w3.org/2000/svg" viewBox="0 0 88 88"><style>.st0{fill:#c6032b}.st1{fill:#fff}</style><circle class="st0" cx="44.4" cy="45.2" r="36.2"/><path class="st1" d="M67.7 52.6c0 2.6-1.1 4.9-3.2 6.8-2.2 1.9-5.1 3.3-8.7 4.3-3.7 1-7.7 1.5-12.1 1.5-5.2 0-9.7-.4-13.5-1.2-3.8-.8-7.2-2.1-10.2-4.1l9.8-6.3c1.5 1 3.6 1.7 6.1 2.2 2.5.4 5.1.7 7.8.7 6 0 8.9-1.2 8.9-3.6 0-1-.4-1.8-1.2-2.4-.8-.5-2.2-.9-4.1-1.1l-7.5-.7c-5.5-.5-9.7-1.7-12.5-3.5-2.9-1.9-4.3-4.6-4.3-8 0-2.4.9-4.6 2.8-6.5 1.8-1.9 4.5-3.4 7.9-4.5 3.4-1.1 7.5-1.6 12.1-1.6s8.6.4 12 1.1c3.4.8 6.4 2 9 3.6l-9.6 6.2c-1.6-1-3.3-1.7-5.2-1.9-1.9-.3-4.1-.4-6.7-.4-2.5 0-4.3.4-5.6 1.1-1.3.8-1.9 1.6-1.9 2.6 0 .7.4 1.3 1.2 1.9 1 .6 2.4 1 4.3 1.2l7.5.7c5.5.5 9.6 1.6 12.3 3.3 1.6 1 2.8 2.2 3.5 3.7.7 1.2 1.1 2.9 1.1 4.9z"/></svg>