<?xml version="1.0" encoding="UTF-8"?>
<svg width="435" height="165" aria-label="Wagtail" data-wagtail="" version="1.1" viewBox="0 0 435 165" xmlns="http://www.w3.org/2000/svg">
 <circle cx="94.455" cy="41.735" r="60" fill="#fff" opacity=".1"/>
 <path d="m116.66 50.424c-4.833-7.31-13.017-12.154-22.33-12.154a26.65 26.65 0 0 0-8.822 1.497 17.468 17.468 0 0 1-2.326-8.742c0-9.76 7.674-17.597 17.23-17.597 2.461 0 4.633 0.444 6.66 1.331 1.005-1.466 2.01-3.223 3.015-5.415 4.094 2.34 11.395 8.565 12.244 19.084l-8.076 11.932z" fill="#fff"/>
 <path d="m32.802 111.53 5.021 10.519-1.004-17.531z"/>
 <path d="m17.017 115.6 53.466-94.037c4.271-9.796 13.89-16.568 25.01-16.568 5.357 0 10.424 1.479 14.623 4.288-1.013 2.218-2.027 3.993-3.04 5.471-2.027-0.887-4.199-1.33-6.66-1.33-9.556 0-17.23 7.836-17.23 17.596 0 3.226 0.861 6.188 2.326 8.742a26.65 26.65 0 0 1 8.823-1.497c14.913 0 26.93 12.421 26.93 27.503 0 0.632-0.105 1.263-0.226 1.987l-0.063 0.38h0.144c-0.072 0.517-0.181 1.034-0.289 1.552a23.508 23.508 0 0 0-0.29 1.553v0.147c-10.07 52.452-73.03 51.327-82.782 50.875l0.064-0.22-1.004-17.531-3.957 6.97z"/>
 <path d="m61.612 102.44-1.158 0.887s38.514-6.358 44.595-38.741l-6.081 2.07s-1.593 25.137-37.356 35.784z" fill="#fff"/>
 <path d="m111.28 29.398c1.919 0 3.475-1.589 3.475-3.549s-1.556-3.549-3.475-3.549-3.475 1.59-3.475 3.55 1.556 3.548 3.475 3.548zm11.004-0.887-6.805 10.35h18.388zm-85.46 76.005-32.132 56.599 24.099-8.014 9.037-31.054z"/>
 <path class="icon-wagtail__wordmark" d="m166.24 106.02h-10.791l-15.451-44.571h9.688l11.036 33.673 11.037-33.673h9.687l11.037 33.673 11.036-33.673h9.688l-15.083 44.571h-10.792l-10.546-30.49zm89.642 0h-8.584v-6c-3.679 4.408-8.584 6.612-14.838 6.612-4.66 0-8.462-1.347-11.527-3.918-3.066-2.572-4.538-6.123-4.538-10.531s1.595-7.714 4.906-9.796c3.188-2.204 7.602-3.306 13.121-3.306h12.14v-1.713c0-5.877-3.311-8.939-9.933-8.939-4.169 0-8.461 1.47-12.876 4.53l-4.169-5.877c5.395-4.285 11.527-6.49 18.517-6.49 5.273 0 9.565 1.348 12.875 3.92 3.311 2.693 5.028 6.856 5.028 12.489v29.02h-0.122zm-9.443-16.653v-3.796h-10.546c-6.744 0-10.178 2.082-10.178 6.367 0 2.204 0.859 3.796 2.575 5.021 1.717 1.102 4.047 1.714 6.99 1.714s5.641-0.857 7.848-2.572c2.208-1.591 3.311-3.795 3.311-6.734zm60.455-27.918v38.816c0 7.836-2.084 13.836-6.376 17.755-4.292 3.918-9.811 5.877-16.432 5.877-6.745 0-12.754-2.082-18.149-6.245l4.414-7.102c4.415 3.306 8.707 4.898 13.244 4.898 4.415 0 7.971-1.102 10.546-3.428 2.575-2.327 3.924-6 3.924-11.021v-5.755a15.492 15.492 0 0 1-6.009 6.245c-2.575 1.592-5.518 2.327-8.706 2.327-5.886 0-10.791-2.082-14.593-6.245-3.801-4.163-5.763-9.306-5.763-15.428 0-6.123 1.962-11.266 5.763-15.429 3.802-4.163 8.707-6.245 14.593-6.245s10.668 2.45 14.347 7.347v-6.612h9.197zm-34.826 20.571c0 3.674 1.104 6.857 3.434 9.429 2.207 2.693 5.273 3.918 9.197 3.918 3.801 0 6.99-1.225 9.319-3.796 2.33-2.571 3.557-5.755 3.557-9.551s-1.227-7.102-3.557-9.673c-2.452-2.694-5.518-3.919-9.319-3.919-3.802 0-6.867 1.347-9.075 4.164-2.452 2.571-3.556 5.755-3.556 9.428zm58.371-13.102v22.653c0 2.082 0.613 3.796 1.717 5.02 1.103 1.225 2.698 1.837 4.66 1.837s3.924-0.98 5.763-2.939l3.802 6.612c-3.311 2.939-6.99 4.408-10.914 4.408-4.047 0-7.358-1.346-10.178-4.163-2.821-2.816-4.292-6.489-4.292-11.142v-22.286h-5.641v-7.59h5.641v-13.838h9.442v13.958h11.772v7.592h-11.772v-0.123zm59.597 37.102h-8.584v-6c-3.679 4.408-8.584 6.612-14.838 6.612-4.66 0-8.461-1.347-11.527-3.918-3.066-2.572-4.537-6.123-4.537-10.531s1.594-7.714 4.905-9.796c3.188-2.204 7.603-3.306 13.121-3.306h12.14v-1.713c0-5.877-3.311-8.939-9.933-8.939-4.169 0-8.461 1.47-12.876 4.53l-4.169-5.877c5.396-4.285 11.527-6.49 18.517-6.49 5.273 0 9.565 1.348 12.876 3.92 3.311 2.693 5.028 6.856 5.028 12.489v29.02h-0.123zm-9.442-16.653v-3.796h-10.546c-6.745 0-10.179 2.082-10.179 6.367 0 2.204 0.859 3.796 2.576 5.021 1.716 1.102 4.046 1.714 6.989 1.714 2.944 0 5.641-0.857 7.849-2.572 2.207-1.591 3.311-3.795 3.311-6.734zm21.46-36.857c-1.227-1.224-1.717-2.571-1.717-4.163s0.613-3.061 1.717-4.163c1.226-1.225 2.575-1.714 4.169-1.714s3.066 0.612 4.169 1.714c1.227 1.224 1.717 2.571 1.717 4.163a5.825 5.825 0 0 1-1.717 4.163 5.842 5.842 0 0 1-4.169 1.715c-1.594 0.122-2.943-0.49-4.169-1.715zm8.829 53.51h-9.442v-44.571h9.442zm19.62 0h-9.442v-62.203h9.442z"/>
</svg>
