<svg id="icon-home" xmlns="http://www.w3.org/2000/svg" viewBox="0 0 16 16"><!--! house (solid): Font Awesome Pro 6.4.0 --><path d="M15.848 7.75c0 .492-.41.875-.875.875h-.875L14.125 13v.656a1.08 1.08 0 0 1-1.094 1.094h-2.187a1.063 1.063 0 0 1-1.094-1.094V11.25a.9.9 0 0 0-.875-.875h-1.75a.881.881 0 0 0-.875.875v2.406a1.08 1.08 0 0 1-1.094 1.094H2.97a1.063 1.063 0 0 1-1.094-1.094V8.625H1a.864.864 0 0 1-.875-.875c0-.246.082-.465.273-.656l7-6.098A.823.823 0 0 1 8 .75a.94.94 0 0 1 .574.219l6.973 6.125c.219.191.328.41.3.656Z"/></svg>
