<?xml version="1.0" encoding="utf-8"?>
<!-- Generator: Adobe Illustrator 16.0.0, SVG Export Plug-In . SVG Version: 6.00 Build 0)  -->
<!DOCTYPE svg PUBLIC "-//W3C//DTD SVG 1.1//EN" "http://www.w3.org/Graphics/SVG/1.1/DTD/svg11.dtd">
<svg version="1.1" id="Layer_1" xmlns="http://www.w3.org/2000/svg" xmlns:xlink="http://www.w3.org/1999/xlink" x="0px" y="0px"
	 width="512px" height="512px" viewBox="0 0 512 512" enable-background="new 0 0 512 512" xml:space="preserve">
<g>
	<path d="M466,512H46c-25.375,0-46-20.625-46-46l1.563-66.875c38.313-80.688,97.688-97.844,100.188-98.563L106,300h30
		c23.625,0,43-18.75,43.969-42.141C153.313,223.969,135,174.766,135,136C135,45.75,175.688,0,256,0c80.281,0,121,45.75,121,136
		c0,38.797-18.281,88-44.969,121.875C333.031,281.25,352.375,300,376,300l34.25,0.563c2.5,0.719,61.875,17.875,100.188,98.563
		L512,406v60C512,491.375,491.375,512,466,512z M32,409.656V466c0,7.719,6.281,14,14,14h420c7.719,0,14-6.281,14-14v-56.344
		C451.469,352,412.156,335.125,403.469,332H376c-41.906,0-76-34.094-76-76v-9.656l3.781-4.469C327.656,213.703,345,169.172,345,136
		c0-72.891-26.625-104-89-104s-89,31.109-89,104c0,33.156,17.313,77.672,41.188,105.859l3.813,4.484V256c0,41.906-34.094,76-76,76
		h-27.469C99.75,335.156,60.5,352,32,409.656z"/>
</g>
</svg>
