<svg xmlns="http://www.w3.org/2000/svg" width="430" height="537" viewBox="0 0 430 537"><path clip-path="url(#SVGID_2_)" fill="#FFF" d="M353 12.8v24s-42.6-16-70 13c-20 21-21.6 44.3-12.5 75.5C361 125.3 375 176 375 176l-9.4-58.3L394 83c0-41-34-68-41-70.2"/><path clip-path="url(#SVGID_2_)" d="M374 176s-14-69.4-104.4-50.7C260.6 94 262 71 282 49.8c27.5-29 70-13 70-13v-24C337 6.2 322.8 5 307 5c-58 0-90.3 43.3-104 72.8L39.4 378l46.2-8.6 19.3 24.2c127.6 0 291.7-46 269-217.7"/><path clip-path="url(#SVGID_2_)" fill="#231F20" d="M430 117.7L394 83l-28.4 34.7"/><path clip-path="url(#SVGID_2_)" fill="#FFF" d="M127.2 356.7s4.2-1 11.7-2.5c7.3-1.7 18-4 30.4-7.5 6.3-1.7 13-3.7 20-6 7.2-2.4 14.6-5.2 22-8.3 7.6-3 15-6.8 22.5-11 7.4-4 14.6-8.7 21.4-14 1.7-1.3 3.5-2.5 5-4l5-4c3-3 6.2-6 9-9 3-3.2 5.4-6.5 8-9.7 1.3-1.6 2.4-3.3 3.6-5l1.8-2.4 1.6-2.6 3-5c1-1.8 2-3.5 2.8-5.2.5-1 1-1.7 1.3-2.6l1.2-2.7 2.3-5 3.7-10 2.8-9.7 2-9 1.4-8c.4-2.7.6-5 .8-7.3l.7-6.2.6-11.6 6.7.2-1 12c0 2-.4 4-.7 6.4-.3 2.3-.5 4.8-1 7.5-.6 2.6-1.2 5.4-1.7 8.4l-2.4 9c-1 3.3-2 6.6-3.2 10l-4 10.2c-1 1.8-1.8 3.5-2.6 5.3L301 260l-1.5 2.7-3 5.3-3.3 5.2-1.7 2.6-2 2.5c-1 1.7-2.4 3.4-3.7 5-2.8 3.3-5.5 6.6-8.6 9.7-3 3.2-6.2 6-9.5 9l-5 4.2-5.3 4c-7 5-14.5 9.8-22.2 13.7-7.6 4-15.3 7.4-23 10.4-7.6 3-15 5.6-22.2 7.7-7 2.3-14 4-20.3 5.7-12.7 3-23.3 5.3-30.8 6.7l-11.8 2.3"/></svg>
