<?xml version="1.0" encoding="utf-8"?>
<svg version="1.1" id="Layer_1" xmlns="http://www.w3.org/2000/svg" x="0px" y="0px"
	 width="430px" height="537px" viewBox="0 0 430 537" enable-background="new 0 0 430 537" xml:space="preserve">
<g>
    <path transform="rotate(-16.1646, 356.5, 69.915)" d="m339.5,72.829407c0.194275,0 0.38858,0 0.582855,-0.170578c0.194305,-0.170578 0.582855,-0.341171 0.77713,-0.511749c0.194305,-0.170593 0.38858,-0.341171 0.582886,-0.511765c0.194275,-0.170578 0.38855,-0.511749 0.582825,-0.682343c0.194305,-0.170578 0.38858,-0.170578 0.582886,-0.341171c0.194275,-0.170578 0.582855,-0.341171 0.77713,-0.511749c0.194305,-0.170593 0.548615,-0.424118 0.971436,-0.511765c0.189087,-0.039185 0.38858,-0.170578 0.77713,-0.170578c0.38858,0 0.548615,-0.25354 0.971436,-0.341171c0.189087,-0.0392 0.418152,-0.040024 0.777161,-0.170593c0.253845,-0.092316 0.403351,-0.105301 0.582825,-0.170578c0.253845,-0.092316 0.418152,-0.040024 0.777161,-0.170578c0.253845,-0.092331 0.403351,-0.105316 0.582855,-0.170593c0.253845,-0.092316 0.398956,-0.092194 0.77713,-0.170578c0.422821,-0.087646 0.523315,-0.248856 0.777161,-0.341171c0.179504,-0.065292 0.354309,-0.082947 0.77713,-0.170593c0.189087,-0.039185 0.32901,-0.078262 0.582855,-0.170578c0.359009,-0.130569 0.548615,-0.082947 0.971436,-0.170593c0.189087,-0.039185 0.582855,-0.170578 0.777161,-0.170578c0.194275,0 0.354309,-0.082947 0.77713,-0.170593c0.189087,-0.039185 0.398956,0.078384 0.77713,0c0.422821,-0.087631 0.582886,-0.170578 0.777161,-0.170578c0.38855,0 0.77713,0 1.16571,0c0.194275,0 0.38855,0 0.582855,0c0.194275,0 0.38858,0 0.582855,0c0.194275,0 0.38858,0 0.582855,0c0.194305,0 0.582855,0 0.77713,0c0.194305,0 0.38858,0 0.582886,0c0.194275,0 0.403351,-0.065292 0.582825,0c0.253876,0.092316 0.38858,0.170578 0.582886,0.170578c0.194275,0 0.588043,0.131393 0.77713,0.170593c0.422821,0.087631 0.742889,0.253525 1.16571,0.341171c0.189087,0.039185 0.448822,0.057571 0.971436,0.341171c0.233734,0.126831 0.424713,0.118134 0.77713,0.341171c0.2229,0.141052 0.523315,0.24884 0.777161,0.341171c0.179504,0.065277 0.597656,0.105301 0.77713,0.170578c0.253845,0.092316 0.32901,0.248856 0.582855,0.341171c0.179504,0.065277 0.424713,0.118134 0.777161,0.341171c0.2229,0.141052 0.32901,0.248856 0.582855,0.341171c0.179474,0.065277 0.403351,0.105301 0.582855,0.170578c0.253845,0.092331 0.32901,0.419434 0.582855,0.511765c0.179504,0.065277 0.38858,0.170578 0.582855,0.341171c0.194275,0.170578 0.448792,0.228149 0.971436,0.511749c0.233704,0.126831 0.38855,0.341171 0.582855,0.511765c0.194275,0.170578 0.424713,0.118134 0.77713,0.341171c0.2229,0.141052 0.38858,0.341171 0.582855,0.511749l0.194305,0.170578l0.194275,0.170593" id="svg_25" fill-opacity="null" stroke-opacity="null" stroke-width="12" stroke="#231F20" fill="none"/>
</g>
</svg>
