<svg xmlns="http://www.w3.org/2000/svg" width="430" height="537" viewBox="0 0 430 537"><path d="M341 77.4c.2 0 .4 0 .5-.3l.6-.6.5-.6.4-1s.2 0 .4-.3c0-.3.4-.5.6-.8 0-.2.4-.5.7-.7l.7-.4c.4 0 .5-.4 1-.6l.6-.4c.2 0 .3-.2.5-.3l.7-.4.5-.4.7-.4.7-.5.8-.4.5-.3c.3-.3.5-.3 1-.5l.6-.4.6-.2s.4 0 .7-.3l.7-.3c.4 0 .7-.2 1-.4h.7l.5-.3h.6l.7-.4h.6l.7-.2h4.5c.4.2.7.2 1 .2h.8c.3 0 .4 0 .6.2h1l.5.2h.5c.3 0 .5.4.7.4h.7c0 .2.4.2 1 .4l.7.3h.8l.7.4h.5" stroke-opacity="null" stroke-width="12" stroke="#231F20" fill="none"/></svg>
