<svg id="icon-calendar-check" xmlns="http://www.w3.org/2000/svg" viewBox="0 0 16 16"><!--! calendar-check (solid): Font Awesome Pro 6.4.0 --><path d="M6 1v1h4V1c0-.531.438-1 1-1 .531 0 1 .469 1 1v1h1.5c.813 0 1.5.688 1.5 1.5V5H1V3.5A1.5 1.5 0 0 1 2.5 2H4V1c0-.531.438-1 1-1 .531 0 1 .469 1 1ZM1 6h14v8.5a1.5 1.5 0 0 1-1.5 1.5h-11A1.48 1.48 0 0 1 1 14.5V6Zm10.25 3.531c.313-.281.313-.75 0-1.062a.736.736 0 0 0-1.031 0l-2.969 3-1.5-1.5a.736.736 0 0 0-1.031 0c-.313.312-.313.781 0 1.062l2 2a.684.684 0 0 0 1.031 0l3.5-3.5Z"/></svg>
