<svg id="icon-calendar-alt" xmlns="http://www.w3.org/2000/svg" viewBox="0 0 16 16"><!--! calendar-days (solid): Font Awesome Pro 6.4.0 --><path d="M6 1v1h4V1c0-.531.438-1 1-1 .531 0 1 .469 1 1v1h1.5c.813 0 1.5.688 1.5 1.5V5H1V3.5A1.5 1.5 0 0 1 2.5 2H4V1c0-.531.438-1 1-1 .531 0 1 .469 1 1ZM1 6h14v8.5a1.5 1.5 0 0 1-1.5 1.5h-11A1.48 1.48 0 0 1 1 14.5V6Zm2 3.5c0 .281.219.5.5.5h1c.25 0 .5-.219.5-.5v-1c0-.25-.25-.5-.5-.5h-1c-.281 0-.5.25-.5.5v1Zm4 0c0 .281.219.5.5.5h1c.25 0 .5-.219.5-.5v-1c0-.25-.25-.5-.5-.5h-1c-.281 0-.5.25-.5.5v1ZM11.5 8c-.281 0-.5.25-.5.5v1c0 .281.219.5.5.5h1c.25 0 .5-.219.5-.5v-1c0-.25-.25-.5-.5-.5h-1ZM3 13.5c0 .281.219.5.5.5h1c.25 0 .5-.219.5-.5v-1c0-.25-.25-.5-.5-.5h-1c-.281 0-.5.25-.5.5v1ZM7.5 12c-.281 0-.5.25-.5.5v1c0 .281.219.5.5.5h1c.25 0 .5-.219.5-.5v-1c0-.25-.25-.5-.5-.5h-1Zm3.5 1.5c0 .281.219.5.5.5h1c.25 0 .5-.219.5-.5v-1c0-.25-.25-.5-.5-.5h-1c-.281 0-.5.25-.5.5v1Z"/></svg>
