<svg id="icon-comment-add" class="icon--directional" xmlns="http://www.w3.org/2000/svg" viewBox="0 0 16 16"><!--! Custom icon --><path d="M8 1.813C3.84 1.813.5 4.566.5 7.905c0 1.465.615 2.784 1.64 3.838C1.79 13.238.56 14.527.56 14.557c-.088.058-.088.175-.059.263.03.088.117.117.234.117 1.934 0 3.37-.908 4.102-1.494A9.199 9.199 0 0 0 8 14c4.131 0 7.47-2.725 7.47-6.094 0-3.34-3.339-6.093-7.47-6.093Z"/><path fill="#fff" d="M10.571 7.357H8.643V5.43A.44.44 0 0 0 8.214 5h-.428c-.241 0-.429.2-.429.429v1.928H5.43c-.242 0-.429.201-.429.429v.428c0 .241.188.429.429.429h1.928v1.928c0 .242.188.429.429.429h.428a.432.432 0 0 0 .429-.429V8.643h1.928A.432.432 0 0 0 11 8.214v-.428a.44.44 0 0 0-.429-.429Z"/></svg>
