<svg id="icon-comment-add-reversed" class="icon--directional" xmlns="http://www.w3.org/2000/svg" viewBox="0 0 16 16"><!--! Custom icon --><path d="M8 1.813C3.84 1.813.5 4.566.5 7.905c0 1.407.557 2.696 1.524 3.721-.41 1.143-1.319 2.139-1.348 2.139-.205.205-.234.498-.147.761.118.264.381.41.674.41 1.787 0 3.194-.732 4.073-1.347.82.264 1.757.41 2.724.41 4.131 0 7.47-2.725 7.47-6.094 0-3.34-3.339-6.093-7.47-6.093Zm0 10.78a7.64 7.64 0 0 1-2.314-.35l-.674-.206-.557.41a6.54 6.54 0 0 1-1.699.85c.234-.352.44-.762.586-1.172l.322-.82-.615-.645c-.527-.556-1.143-1.494-1.143-2.754C1.906 5.328 4.631 3.22 8 3.22c3.34 0 6.094 2.11 6.094 4.687 0 2.608-2.754 4.688-6.094 4.688Z"/><path d="M10.571 7.357H8.643V5.43A.44.44 0 0 0 8.214 5h-.428c-.241 0-.429.2-.429.429v1.928H5.43c-.242 0-.429.201-.429.429v.428c0 .241.188.429.429.429h1.928v1.928c0 .242.188.429.429.429h.428a.432.432 0 0 0 .429-.429V8.643h1.928A.432.432 0 0 0 11 8.214v-.428a.44.44 0 0 0-.429-.429Z"/></svg>
