<svg id="icon-crosshairs" xmlns="http://www.w3.org/2000/svg" viewBox="0 0 16 16"><!--! crosshairs (solid): Font Awesome Pro 6.4.0 --><path d="M7 8c0-.531.438-1 1-1 .531 0 1 .469 1 1 0 .563-.469 1-1 1-.563 0-1-.438-1-1Zm1-8c.531 0 1 .469 1 1v.344A6.764 6.764 0 0 1 14.656 7H15c.531 0 1 .469 1 1 0 .563-.469 1-1 1h-.344c-.437 2.938-2.75 5.25-5.656 5.688V15c0 .563-.469 1-1 1-.563 0-1-.438-1-1v-.313A6.762 6.762 0 0 1 1.312 9H1c-.563 0-1-.438-1-1 0-.531.438-1 1-1h.313C1.75 4.094 4.063 1.781 7 1.344V1c0-.531.438-1 1-1ZM7 12.656V12c0-.531.438-1 1-1 .531 0 1 .469 1 1v.656A4.685 4.685 0 0 0 12.625 9H12c-.563 0-1-.438-1-1 0-.531.438-1 1-1h.625A4.69 4.69 0 0 0 9 3.375V4c0 .563-.469 1-1 1-.563 0-1-.438-1-1v-.625A4.685 4.685 0 0 0 3.344 7H4c.531 0 1 .469 1 1 0 .563-.469 1-1 1h-.656A4.68 4.68 0 0 0 7 12.656Z"/></svg>
