<svg id="icon-grid" xmlns="http://www.w3.org/2000/svg" viewBox="0 0 16 16"><!--! Custom icon --><path d="M5 3.75C5 4.469 4.437 5 3.75 5h-1.5C1.531 5 1 4.469 1 3.75v-1.5C1 1.562 1.531 1 2.25 1h1.5C4.438 1 5 1.563 5 2.25v1.5Zm0 5C5 9.469 4.437 10 3.75 10h-1.5C1.531 10 1 9.469 1 8.75v-1.5C1 6.562 1.531 6 2.25 6h1.5C4.438 6 5 6.563 5 7.25v1.5Zm1-6.5C6 1.562 6.531 1 7.25 1h1.5C9.438 1 10 1.563 10 2.25v1.5C10 4.469 9.437 5 8.75 5h-1.5C6.531 5 6 4.469 6 3.75v-1.5Zm4 6.5C10 9.469 9.437 10 8.75 10h-1.5C6.531 10 6 9.469 6 8.75v-1.5C6 6.562 6.531 6 7.25 6h1.5C9.438 6 10 6.563 10 7.25v1.5Zm1-6.5c0-.688.531-1.25 1.25-1.25h1.5c.688 0 1.25.563 1.25 1.25v1.5C15 4.469 14.437 5 13.75 5h-1.5C11.531 5 11 4.469 11 3.75v-1.5Zm4 6.5c0 .719-.563 1.25-1.25 1.25h-1.5C11.531 10 11 9.469 11 8.75v-1.5c0-.688.531-1.25 1.25-1.25h1.5c.688 0 1.25.563 1.25 1.25v1.5ZM3.75 15C4.438 15 5 14.469 5 13.75v-1.5C5 11.562 4.437 11 3.75 11h-1.5C1.531 11 1 11.563 1 12.25v1.5c0 .719.531 1.25 1.25 1.25h1.5ZM8.75 15c.688 0 1.25-.531 1.25-1.25v-1.5c0-.688-.563-1.25-1.25-1.25h-1.5C6.531 11 6 11.563 6 12.25v1.5c0 .719.531 1.25 1.25 1.25h1.5ZM13.75 15c.688 0 1.25-.531 1.25-1.25v-1.5c0-.688-.563-1.25-1.25-1.25h-1.5c-.719 0-1.25.563-1.25 1.25v1.5c0 .719.531 1.25 1.25 1.25h1.5Z"/></svg>