<svg id="icon-redirect" class="icon--directional" xmlns="http://www.w3.org/2000/svg" viewBox="0 0 16 16"><!--! diamond-turn-right (solid): Font Awesome Pro 6.4.0 --><path d="M15.531 6.969 9.031.437C8.72.157 8.344 0 7.97 0c-.375.031-.75.156-1.032.469l-6.5 6.5C.126 7.25 0 7.625 0 8c0 .375.125.75.438 1.031l6.5 6.531c.28.313.656.438 1.062.438.375 0 .75-.156 1.031-.438l6.5-6.53C15.844 8.75 16 8.374 16 8c-.031-.375-.156-.75-.469-1.031Zm-2.719.906-3 2.625c-.343.313-.843.031-.843-.375V8.5h-2V10c0 .563-.438 1-1 1-.594 0-1-.438-1-1V7.5c0-.531.437-1 1-1h2.968V4.875c0-.406.5-.625.813-.375l3 2.625c.188.094.219.25.219.375 0 .156-.031.281-.156.375Z"/></svg>
