<svg id="icon-snippet" class="icon--directional" xmlns="http://www.w3.org/2000/svg" viewBox="0 0 17 16"><!--! leaf (solid): Font Awesome Pro 6.4.0 --><path d="M17 5.188c0 4-2.219 7.343-5.5 8.437a5.414 5.414 0 0 1-2 .375c-2.031 0-3.938-1.125-4.875-2.938-1.688 1.563-2.156 3.344-2.156 3.376A.76.76 0 0 1 1.75 15h-.188A.754.754 0 0 1 1 14.094C1.313 12.844 3.844 7 11.469 7c.281 0 .531-.219.531-.5 0-.25-.25-.5-.5-.5C8.125 6 5.719 7.094 4 8.375c0-.344.031-.688.094-1.031a5.487 5.487 0 0 1 4.125-4.188c.875-.219 1.719-.187 2.531 0 1.75.406 3.688-.25 4.656-1.906.188-.313.625-.313.781 0 .5 1.156.813 2.563.813 3.938Z"/></svg>
