<svg xmlns="http://www.w3.org/2000/svg" id="icon-arrow-down" viewBox="0 0 16 16">
    <path d="M12.469 6.563c0 0.094-0.031 0.156-0.094 0.219l-4.156 4.156c-0.063 0.063-0.156 0.094-0.219 0.094s-0.156-0.031-0.219-0.094l-4.156-4.156c-0.063-0.063-0.094-0.125-0.094-0.219 0-0.063 0.031-0.125 0.094-0.188l0.469-0.469c0.031-0.031 0.125-0.063 0.188-0.063 0.094 0 0.156 0.031 0.219 0.063l3.5 3.531 3.5-3.531c0.063-0.031 0.125-0.063 0.219-0.063 0.063 0 0.156 0.031 0.188 0.063l0.469 0.469c0.063 0.063 0.094 0.125 0.094 0.188z"></path>
</svg>
