<svg xmlns="http://www.w3.org/2000/svg" id="icon-arrow-up-big" viewBox="0 0 16 16">
    <path d="M14.969 10.844c0 0.344-0.125 0.594-0.344 0.813l-0.656 0.688c-0.25 0.219-0.5 0.313-0.813 0.313-0.344 0-0.594-0.094-0.813-0.313l-4.344-4.344-4.344 4.344c-0.219 0.219-0.469 0.313-0.813 0.313-0.313 0-0.563-0.094-0.781-0.313l-0.688-0.688c-0.219-0.219-0.344-0.469-0.344-0.813 0-0.313 0.125-0.563 0.344-0.813l5.813-5.813c0.219-0.219 0.5-0.313 0.813-0.313s0.594 0.094 0.813 0.313l5.813 5.813c0.219 0.25 0.344 0.5 0.344 0.813z"></path>
</svg>
