<svg id="icon-arrows-up-down" viewBox="0 0 16 16">
    <path d="M10.499 3.468c0 0.137-0.027 0.275-0.137 0.357-0.11 0.11-0.22 0.165-0.357 0.165h-0.989v8.020h0.989c0.137 0 0.247 0.055 0.357 0.165 0.11 0.082 0.137 0.22 0.137 0.357s-0.027 0.247-0.137 0.33l-2.005 2.032c-0.11 0.082-0.22 0.137-0.357 0.137s-0.247-0.055-0.357-0.137l-2.005-2.032c-0.11-0.082-0.137-0.192-0.137-0.33s0.027-0.275 0.137-0.357c0.11-0.11 0.22-0.165 0.357-0.165h0.989v-8.020h-0.989c-0.137 0-0.247-0.055-0.357-0.165-0.11-0.082-0.137-0.22-0.137-0.357s0.027-0.247 0.137-0.33l2.005-2.032c0.11-0.082 0.22-0.137 0.357-0.137s0.247 0.055 0.357 0.137l2.005 2.032c0.11 0.082 0.137 0.192 0.137 0.33z"></path>
</svg>
