<svg id="icon-bin" xmlns="http://www.w3.org/2000/svg" viewBox="0 0 16 16"><!--! trash-can (regular): Font Awesome Pro 6.4.0 --><path d="M6 12.5c0 .281-.25.5-.5.5a.494.494 0 0 1-.5-.5V6c0-.25.219-.5.5-.5.25 0 .5.25.5.5v6.5Zm2.5 0c0 .281-.25.5-.5.5a.494.494 0 0 1-.5-.5V6c0-.25.219-.5.5-.5.25 0 .5.25.5.5v6.5Zm2.5 0c0 .281-.25.5-.5.5a.494.494 0 0 1-.5-.5V6c0-.25.219-.5.5-.5.25 0 .5.25.5.5v6.5ZM10.906.781 12.062 2.5h2.188a.76.76 0 0 1 .75.75.74.74 0 0 1-.75.75H14v9.5c0 1.406-1.125 2.5-2.5 2.5h-7A2.468 2.468 0 0 1 2 13.5V4h-.25A.722.722 0 0 1 1 3.25a.74.74 0 0 1 .75-.75h2.156L5.062.781A1.792 1.792 0 0 1 6.532 0h2.905c.594 0 1.157.313 1.47.781ZM5.72 2.5h4.531l-.594-.875a.263.263 0 0 0-.219-.125H6.531a.263.263 0 0 0-.218.125l-.594.875ZM3.5 13.5c0 .563.438 1 1 1h7c.531 0 1-.438 1-1V4h-9v9.5Z"/></svg>
