<svg id="icon-bold" viewBox="0 0 16 16">
    <path d="M6.74 13.244c0.439 0.176 0.82 0.264 1.172 0.264 0.732 0 1.348-0.117 1.816-0.352s0.82-0.557 1.025-0.938c0.205-0.41 0.322-0.908 0.322-1.523 0-0.645-0.117-1.143-0.352-1.494-0.322-0.527-0.703-0.879-1.172-1.055-0.439-0.205-1.143-0.293-2.080-0.293-0.41 0-0.674 0.029-0.85 0.088v2.666l0.029 2.256c0 0.088 0.029 0.205 0.088 0.381zM6.623 6.975c0.264 0.059 0.557 0.059 0.938 0.059 0.967 0 1.699-0.176 2.197-0.527 0.498-0.381 0.732-0.996 0.732-1.875 0-0.615-0.234-1.143-0.703-1.582-0.469-0.41-1.172-0.615-2.139-0.615-0.293 0-0.645 0.029-1.084 0.117 0 0.234 0 0.439 0.029 0.645 0.029 0.674 0.059 1.465 0.029 2.314v0.82c0 0.264 0 0.469 0 0.645zM2.111 14.416v-0.762c0.264-0.059 0.439-0.088 0.586-0.117 0.439-0.059 0.762-0.146 1.025-0.264 0.088-0.146 0.146-0.293 0.176-0.41 0.059-0.381 0.088-0.908 0.088-1.641l-0.029-4.16c-0.029-1.406-0.059-2.549-0.088-3.369 0-0.498-0.029-0.791-0.088-0.908 0-0.029-0.029-0.059-0.088-0.117-0.117-0.059-0.293-0.088-0.586-0.117-0.176 0-0.469-0.059-0.938-0.117l-0.059-0.674 2.197-0.059 3.164-0.117h0.381c0.029 0 0.059 0 0.117 0s0.088 0 0.117 0c0 0 0.059 0 0.176 0s0.234 0 0.352 0h0.615c0.498 0 1.025 0.059 1.611 0.234 0.234 0.059 0.498 0.176 0.791 0.322 0.322 0.146 0.615 0.352 0.85 0.615 0.264 0.264 0.439 0.557 0.557 0.879s0.176 0.674 0.176 1.025c0 0.381-0.088 0.762-0.264 1.084-0.205 0.322-0.469 0.615-0.82 0.879-0.146 0.088-0.557 0.322-1.23 0.645 0.967 0.205 1.729 0.615 2.227 1.201s0.762 1.26 0.762 1.992c0 0.41-0.088 0.879-0.234 1.348-0.117 0.352-0.322 0.674-0.586 0.967-0.381 0.41-0.762 0.703-1.172 0.908s-0.996 0.381-1.699 0.498c-0.469 0.088-1.025 0.117-1.67 0.088l-1.641-0.029c-0.469 0-1.318 0.029-2.49 0.088-0.205 0.029-0.967 0.059-2.285 0.088z"></path>
</svg>
