<svg id="icon-breadcrumb-expand" viewBox="0 0 20 9">
    <path d="M18.9541 4.83301c.2461-.2461.2461-.65625 0-.92969L15.2354.18457c-.2735-.2460934-.6836-.2460934-.9297 0l-.6289.628907c-.2461.273433-.2461.683593 0 .929683l2.6523 2.65235-2.6523 2.625c-.2461.24609-.2461.65625 0 .92969l.6289.60156c.2461.27344.6562.27344.9297 0l3.7187-3.71875ZM6.875 4.49219c0-.83789-.70898-1.54688-1.54688-1.54688-.85937 0-1.54687.70899-1.54687 1.54688 0 .85937.6875 1.54687 1.54687 1.54687.8379 0 1.54688-.6875 1.54688-1.54687Zm2.23438-1.54688c-.85938 0-1.54688.70899-1.54688 1.54688 0 .85937.6875 1.54687 1.54688 1.54687.83789 0 1.54682-.6875 1.54682-1.54687 0-.83789-.70893-1.54688-1.54682-1.54688Zm-7.5625 0C.6875 2.94531 0 3.6543 0 4.49219c0 .85937.6875 1.54687 1.54688 1.54687.83789 0 1.54687-.6875 1.54687-1.54687 0-.83789-.70898-1.54688-1.54687-1.54688Z" fill="currentColor"/>
</svg>
