<svg id="icon-code" xmlns="http://www.w3.org/2000/svg" viewBox="0 0 16 16"><!--! code (solid): Font Awesome Pro 6.4.0 --><path d="m10.203 3.46-3 10.5a.735.735 0 0 1-.914.517.735.735 0 0 1-.516-.915l3-10.5a.735.735 0 0 1 .915-.515.735.735 0 0 1 .515.914Zm2.438 1.9 2.625 2.624a.723.723 0 0 1 0 1.055l-2.625 2.625a.723.723 0 0 1-1.055 0 .723.723 0 0 1 0-1.055L13.672 8.5l-2.086-2.086a.723.723 0 0 1 0-1.055.723.723 0 0 1 1.055 0ZM4.39 6.413 2.305 8.5l2.086 2.11a.723.723 0 0 1 0 1.054.723.723 0 0 1-1.055 0L.71 9.04a.723.723 0 0 1 0-1.055L3.336 5.36a.723.723 0 0 1 1.055 0 .723.723 0 0 1 0 1.055Z"/></svg>
