<svg id="icon-cog" xmlns="http://www.w3.org/2000/svg" viewBox="0 0 16 16"><!--! gear (solid): Font Awesome Pro 6.4.0 --><path d="M15.469 5.219c.125.281.031.562-.188.781l-1.344 1.219c.032.25.063.531.063.781 0 .281-.031.563-.063.813l1.344 1.218c.219.219.313.5.188.781A6.456 6.456 0 0 1 15 11.876l-.156.25c-.219.344-.438.688-.688 1-.187.219-.5.281-.781.188l-1.719-.532a8.599 8.599 0 0 1-1.375.781l-.406 1.782a.74.74 0 0 1-.563.562 9.37 9.37 0 0 1-2.656 0 .74.74 0 0 1-.562-.562l-.407-1.781a8.605 8.605 0 0 1-1.375-.782l-1.718.531c-.281.094-.594.032-.781-.187-.25-.313-.47-.656-.688-1l-.156-.25A6.456 6.456 0 0 1 .5 10.812c-.125-.28-.031-.562.188-.78l1.343-1.22C2 8.563 2 8.283 2 8c0-.25 0-.531.031-.781L.687 6C.47 5.781.376 5.5.5 5.219c.125-.375.281-.719.469-1.063l.156-.25c.219-.344.438-.687.688-1 .187-.219.5-.281.78-.187l1.72.531c.437-.313.906-.594 1.375-.781L6.093.688a.74.74 0 0 1 .562-.563C7.094.062 7.531 0 8 0c.438 0 .875.063 1.313.125a.74.74 0 0 1 .562.563l.406 1.78c.469.188.938.47 1.375.782l1.719-.531c.281-.094.594-.031.781.187.25.313.469.656.688 1l.156.25c.188.344.344.688.469 1.063ZM8 10.5c1.375 0 2.5-1.094 2.5-2.5 0-1.375-1.125-2.5-2.5-2.5A2.487 2.487 0 0 0 5.5 8c0 1.406 1.094 2.5 2.5 2.5Z"/></svg>
