<svg xmlns="http://www.w3.org/2000/svg" id="icon-cog" viewBox="0 0 16 16">
    <path d="M10.281 8c0-0.625-0.219-1.156-0.656-1.625-0.469-0.438-1-0.656-1.625-0.656s-1.156 0.219-1.625 0.656c-0.438 0.469-0.656 1-0.656 1.625s0.219 1.156 0.656 1.625c0.469 0.438 1 0.656 1.625 0.656s1.156-0.219 1.625-0.656c0.438-0.469 0.656-1 0.656-1.625zM14.844 7.031v1.969c0 0.094 0 0.156-0.063 0.219-0.031 0.063-0.094 0.094-0.188 0.125l-1.625 0.25c-0.125 0.313-0.25 0.594-0.375 0.813 0.219 0.281 0.531 0.688 0.969 1.219 0.063 0.063 0.094 0.156 0.094 0.219 0 0.094-0.031 0.156-0.094 0.219-0.156 0.219-0.438 0.531-0.875 0.969-0.438 0.406-0.719 0.625-0.844 0.625-0.063 0-0.156-0.031-0.219-0.094l-1.25-0.969c-0.25 0.156-0.531 0.25-0.813 0.344-0.094 0.813-0.188 1.375-0.25 1.656-0.031 0.188-0.156 0.25-0.313 0.25h-2c-0.063 0-0.156 0-0.219-0.063s-0.094-0.125-0.094-0.188l-0.25-1.656c-0.281-0.094-0.563-0.188-0.813-0.313l-1.25 0.938c-0.063 0.063-0.125 0.094-0.219 0.094s-0.156-0.031-0.219-0.094c-0.75-0.688-1.25-1.188-1.469-1.5-0.063-0.063-0.063-0.125-0.063-0.219 0-0.063 0-0.125 0.063-0.188 0.094-0.125 0.25-0.344 0.438-0.594 0.219-0.281 0.375-0.5 0.5-0.656-0.156-0.281-0.281-0.594-0.375-0.875l-1.625-0.25c-0.094 0-0.156-0.031-0.188-0.094-0.063-0.063-0.063-0.125-0.063-0.219v-1.969c0-0.094 0-0.156 0.063-0.219 0.031-0.063 0.094-0.094 0.156-0.125l1.656-0.25c0.094-0.25 0.219-0.531 0.375-0.813-0.25-0.344-0.563-0.75-0.969-1.219-0.063-0.094-0.094-0.156-0.094-0.219s0.031-0.125 0.094-0.219c0.156-0.219 0.438-0.531 0.875-0.938 0.438-0.438 0.719-0.656 0.844-0.656 0.063 0 0.156 0.031 0.219 0.094l1.25 0.969c0.25-0.156 0.531-0.25 0.813-0.344 0.094-0.813 0.188-1.375 0.25-1.656 0.031-0.188 0.156-0.25 0.313-0.25h2c0.063 0 0.156 0 0.219 0.063s0.094 0.125 0.094 0.188l0.25 1.656c0.281 0.094 0.563 0.188 0.813 0.313l1.25-0.938c0.063-0.063 0.125-0.094 0.219-0.094s0.156 0.031 0.219 0.094c0.781 0.719 1.281 1.219 1.469 1.531 0.063 0.031 0.063 0.094 0.063 0.188 0 0.063 0 0.125-0.063 0.188-0.094 0.125-0.25 0.344-0.438 0.594-0.219 0.281-0.375 0.5-0.5 0.656 0.156 0.281 0.281 0.563 0.375 0.875l1.625 0.25c0.094 0 0.156 0.031 0.188 0.094 0.063 0.063 0.063 0.125 0.063 0.219z"></path>
</svg>
