<svg xmlns="http://www.w3.org/2000/svg" id="icon-cogs" viewBox="0 0 16 16">
    <path d="M7.469 8c0-0.594-0.219-1.094-0.625-1.5-0.406-0.438-0.906-0.625-1.5-0.625s-1.094 0.188-1.531 0.625c-0.406 0.406-0.625 0.906-0.625 1.5s0.219 1.094 0.625 1.5c0.438 0.438 0.938 0.625 1.531 0.625s1.094-0.188 1.5-0.625c0.406-0.406 0.625-0.906 0.625-1.5zM13.875 12.281c0-0.313-0.125-0.563-0.313-0.75-0.219-0.219-0.469-0.344-0.75-0.344-0.313 0-0.563 0.125-0.75 0.344-0.219 0.188-0.344 0.438-0.344 0.75 0 0.281 0.125 0.531 0.313 0.75 0.219 0.188 0.469 0.313 0.781 0.313 0.281 0 0.531-0.125 0.75-0.313 0.188-0.219 0.313-0.469 0.313-0.75zM13.875 3.719c0-0.281-0.125-0.531-0.313-0.75-0.219-0.188-0.469-0.313-0.75-0.313-0.313 0-0.563 0.125-0.75 0.313-0.219 0.219-0.344 0.469-0.344 0.75 0 0.313 0.125 0.563 0.313 0.781 0.219 0.188 0.469 0.313 0.781 0.313 0.281 0 0.531-0.125 0.75-0.313 0.188-0.219 0.313-0.469 0.313-0.781zM10.656 7.25v1.531c0 0.063 0 0.125-0.063 0.156-0.031 0.063-0.063 0.094-0.125 0.094l-1.281 0.188c-0.063 0.219-0.156 0.406-0.281 0.656 0.188 0.25 0.438 0.563 0.75 0.938 0.063 0.063 0.063 0.125 0.063 0.188s0 0.125-0.063 0.156c-0.125 0.156-0.344 0.406-0.688 0.75-0.313 0.313-0.531 0.5-0.656 0.5-0.063 0-0.094-0.031-0.156-0.063l-0.969-0.75c-0.188 0.094-0.406 0.188-0.625 0.25-0.063 0.594-0.125 1.031-0.219 1.281-0.031 0.156-0.094 0.219-0.25 0.219h-1.531c-0.063 0-0.125-0.031-0.156-0.063-0.063-0.063-0.094-0.094-0.094-0.156l-0.188-1.281c-0.188-0.063-0.406-0.125-0.625-0.25l-1 0.75c-0.031 0.031-0.094 0.063-0.156 0.063s-0.125-0.031-0.188-0.094c-0.781-0.719-1.188-1.156-1.188-1.313 0-0.063 0.031-0.125 0.063-0.156 0.063-0.094 0.156-0.25 0.344-0.438 0.156-0.219 0.281-0.406 0.375-0.531-0.125-0.25-0.219-0.469-0.281-0.688l-1.281-0.188c-0.031 0-0.094-0.031-0.125-0.094-0.031-0.031-0.063-0.094-0.063-0.156v-1.531c0-0.063 0.031-0.125 0.063-0.156 0.031-0.063 0.094-0.094 0.125-0.094l1.281-0.188c0.063-0.219 0.156-0.406 0.281-0.656-0.188-0.25-0.438-0.563-0.75-0.938-0.031-0.063-0.063-0.125-0.063-0.188s0.031-0.125 0.063-0.156c0.125-0.156 0.344-0.406 0.688-0.75 0.344-0.313 0.563-0.5 0.656-0.5 0.063 0 0.125 0.031 0.188 0.063l0.938 0.75c0.188-0.094 0.406-0.188 0.656-0.25 0.063-0.594 0.125-1.031 0.188-1.281 0.031-0.156 0.125-0.219 0.25-0.219h1.531c0.063 0 0.125 0.031 0.188 0.063 0.031 0.063 0.063 0.094 0.063 0.156l0.219 1.281c0.188 0.063 0.375 0.125 0.625 0.25l0.969-0.75c0.031-0.031 0.094-0.063 0.156-0.063s0.125 0.031 0.188 0.094c0.813 0.719 1.188 1.156 1.188 1.313 0 0.063 0 0.125-0.031 0.156-0.094 0.094-0.188 0.25-0.375 0.469-0.156 0.188-0.281 0.375-0.375 0.5 0.125 0.25 0.219 0.5 0.281 0.688l1.281 0.188c0.063 0 0.094 0.031 0.125 0.094 0.063 0.031 0.063 0.094 0.063 0.156zM16 11.688v1.156c0 0.094-0.406 0.188-1.25 0.25-0.063 0.156-0.156 0.313-0.25 0.438 0.281 0.625 0.438 1.031 0.438 1.156 0 0.031 0 0.031-0.031 0.063-0.688 0.406-1.031 0.594-1.031 0.594-0.063 0-0.188-0.125-0.406-0.406-0.188-0.25-0.344-0.438-0.406-0.563-0.125 0.031-0.219 0.031-0.25 0.031-0.063 0-0.156 0-0.25-0.031-0.094 0.125-0.25 0.313-0.438 0.563-0.219 0.281-0.344 0.406-0.406 0.406 0 0-0.344-0.188-1.031-0.594 0-0.031-0.031-0.031-0.031-0.063 0-0.125 0.156-0.531 0.438-1.156-0.094-0.125-0.188-0.281-0.25-0.438-0.844-0.063-1.25-0.156-1.25-0.25v-1.156c0-0.094 0.406-0.188 1.25-0.25 0.063-0.188 0.156-0.313 0.25-0.438-0.281-0.625-0.438-1.031-0.438-1.156 0-0.031 0.031-0.031 0.031-0.063 0.031 0 0.125-0.063 0.313-0.156 0.156-0.094 0.313-0.188 0.469-0.281s0.25-0.156 0.25-0.156c0.063 0 0.188 0.156 0.406 0.406 0.188 0.25 0.344 0.438 0.438 0.563 0.094-0.031 0.188-0.031 0.25-0.031 0.031 0 0.125 0 0.25 0.031 0.281-0.406 0.531-0.719 0.75-0.938l0.063-0.031c0 0 0.344 0.219 1.031 0.594 0.031 0.031 0.031 0.031 0.031 0.063 0 0.125-0.156 0.531-0.438 1.156 0.094 0.125 0.188 0.25 0.25 0.438 0.844 0.063 1.25 0.156 1.25 0.25zM16 3.156v1.156c0 0.094-0.406 0.188-1.25 0.25-0.063 0.156-0.156 0.313-0.25 0.438 0.281 0.625 0.438 1.031 0.438 1.156 0 0.031 0 0.031-0.031 0.063-0.688 0.406-1.031 0.594-1.031 0.594-0.063 0-0.188-0.125-0.406-0.406-0.188-0.25-0.344-0.438-0.406-0.563-0.125 0.031-0.219 0.031-0.25 0.031-0.063 0-0.156 0-0.25-0.031-0.094 0.125-0.25 0.313-0.438 0.563-0.219 0.281-0.344 0.406-0.406 0.406 0 0-0.344-0.188-1.031-0.594 0-0.031-0.031-0.031-0.031-0.063 0-0.125 0.156-0.531 0.438-1.156-0.094-0.125-0.188-0.281-0.25-0.438-0.844-0.063-1.25-0.156-1.25-0.25v-1.156c0-0.094 0.406-0.188 1.25-0.25 0.063-0.188 0.156-0.313 0.25-0.438-0.281-0.625-0.438-1.031-0.438-1.156 0-0.031 0.031-0.031 0.031-0.063 0.031 0 0.125-0.063 0.313-0.156 0.156-0.125 0.313-0.219 0.469-0.281 0.156-0.094 0.25-0.156 0.25-0.156 0.063 0 0.188 0.125 0.406 0.406 0.188 0.25 0.344 0.438 0.438 0.563 0.094-0.031 0.188-0.031 0.25-0.031 0.031 0 0.125 0 0.25 0.031 0.281-0.406 0.531-0.719 0.75-0.938l0.063-0.031c0 0 0.344 0.219 1.031 0.594 0.031 0.031 0.031 0.031 0.031 0.063 0 0.125-0.156 0.531-0.438 1.156 0.094 0.125 0.188 0.25 0.25 0.438 0.844 0.063 1.25 0.156 1.25 0.25z"></path>
</svg>
