<svg id="icon-cogs" xmlns="http://www.w3.org/2000/svg" viewBox="0 0 16 16"><!--! gears (solid): Font Awesome Pro 6.4.0 --><path d="M7.17 5.371c.024.147.049.317.049.488 0 .196-.025.367-.05.513l.538.488c.17.147.244.391.147.61-.05.123-.123.27-.171.391l-.074.122c-.097.122-.17.245-.244.367a.573.573 0 0 1-.61.17l-.684-.244c-.268.22-.561.391-.879.513l-.17.708a.494.494 0 0 1-.44.44c-.17.024-.342.024-.488.024-.171 0-.342 0-.513-.024a.494.494 0 0 1-.44-.44l-.17-.708a3.188 3.188 0 0 1-.88-.513l-.683.245a.573.573 0 0 1-.61-.171c-.073-.122-.171-.245-.244-.367L.48 7.861c-.048-.122-.122-.268-.17-.39a.524.524 0 0 1 .146-.61l.537-.489a3.047 3.047 0 0 1-.049-.513c0-.17.025-.341.05-.488l-.538-.488c-.17-.171-.244-.415-.146-.61.048-.147.122-.27.17-.391l.074-.122c.073-.122.17-.244.244-.366a.573.573 0 0 1 .61-.171l.684.244c.268-.22.561-.39.879-.513l.17-.708a.494.494 0 0 1 .44-.44c.17-.024.342-.048.513-.048.146 0 .317.024.488.049.22.024.415.195.44.44l.17.707c.318.122.61.293.88.513l.683-.244c.22-.074.464 0 .61.17.073.123.147.245.244.367l.074.122c.048.122.122.244.17.39.098.196.025.44-.146.61l-.537.49Zm-3.076-.684c-.66 0-1.172.538-1.172 1.172 0 .66.513 1.172 1.172 1.172.635 0 1.172-.512 1.172-1.172 0-.634-.537-1.171-1.172-1.171Zm7.91 8.57c-.147.024-.317.024-.488.024-.196 0-.367 0-.513-.024l-.488.537c-.171.17-.391.244-.61.146-.123-.048-.27-.122-.391-.17l-.122-.098-.367-.22a.573.573 0 0 1-.17-.61l.244-.684a2.993 2.993 0 0 1-.513-.903l-.708-.147c-.244-.048-.415-.22-.44-.44-.024-.17-.024-.34-.024-.512 0-.146 0-.317.024-.488a.543.543 0 0 1 .44-.464l.708-.146c.122-.318.293-.61.513-.88l-.245-.683a.573.573 0 0 1 .171-.61c.122-.073.245-.171.367-.244l.122-.074c.122-.048.244-.122.39-.17.22-.098.44-.025.61.146l.489.537c.146-.024.317-.049.513-.049.17 0 .341.025.488.05l.488-.538c.171-.17.39-.244.61-.147.147.05.27.123.391.171l.122.074c.122.073.244.17.366.244.171.146.245.39.171.61l-.244.684c.22.268.39.561.513.879l.708.146a.543.543 0 0 1 .44.464c.024.17.048.342.048.488 0 .171-.024.342-.049.513-.024.22-.195.39-.44.44l-.707.146a2.994 2.994 0 0 1-.513.903l.244.684c.074.22 0 .464-.17.61l-.367.22-.122.098c-.122.048-.268.122-.39.17-.22.098-.44.025-.61-.146l-.49-.537Zm.684-3.1c0-.636-.538-1.173-1.172-1.173-.66 0-1.172.537-1.172 1.172 0 .66.512 1.172 1.172 1.172.634 0 1.171-.513 1.171-1.172Z"/></svg>
