<svg id="icon-comment" xmlns="http://www.w3.org/2000/svg" viewBox="0 0 16 16"><!--! comment-dots (solid): Font Awesome Pro 6.4.0 --><path d="M8 1.313C3.84 1.313.5 4.037.5 7.405c0 1.436.645 2.784 1.67 3.809-.352 1.494-1.582 2.812-1.582 2.812-.088.059-.088.176-.059.264a.22.22 0 0 0 .205.146c1.963 0 3.37-.937 4.131-1.523.967.352 2.022.586 3.135.586 4.16 0 7.47-2.754 7.47-6.094 0-3.34-3.34-6.093-7.47-6.093Zm-3.78 7.03a.944.944 0 0 1-.937-.937c0-.468.41-.937.938-.937.498 0 .937.44.937.937 0 .528-.41.938-.937.938Zm3.78 0a.944.944 0 0 1-.938-.937c0-.468.44-.937.938-.937.469 0 .908.44.908.937A.92.92 0 0 1 8 8.344Zm3.72 0a.944.944 0 0 1-.937-.937c0-.468.41-.937.938-.937.498 0 .937.44.937.937 0 .528-.41.938-.937.938Z"/></svg>
