<svg xmlns="http://www.w3.org/2000/svg" id="icon-comment-add-reversed" viewBox="0 0 512 512">
    <path d="M256.2 30.4C114.4 30.4.6 123.9.6 237.4c0 47.8 19 91.5 51.9 126.4-14 38.8-44.9 72.6-45.9 72.6-7 7-8 16.9-5 25.9 4 9 13 13.9 23 13.9 60.9 0 109.8-24.9 138.8-45.8 28.9 9 59.9 13.9 92.8 13.9 140.8 0 255.6-92.5 255.6-207-.1-113.4-114.9-206.9-255.6-206.9zM354 240.3c0 7.8-6.6 13.9-14 13.9h-62.9v62.7c0 7.8-6.5 13.9-14 13.9h-14c-7.9 0-14-6.1-14-13.9v-62.7h-62.9c-7.9 0-14-6.1-14-13.9v-13.9c0-7.4 6.1-13.9 14-13.9h62.9v-62.7c0-7.4 6.1-13.9 14-13.9h14c7.4 0 14 6.5 14 13.9v62.7H340c7.4 0 14 6.5 14 13.9v13.9z" fill="currentColor"/>
</svg>
