<svg id="icon-comment-add-reversed" viewBox="0 0 30 30">
    <!-- Font Awesome Free 5.15.3 by @fontawesome - https://fontawesome.com License - https://fontawesome.com/license/free (Icons: CC BY 4.0, Fonts: SIL OFL 1.1, Code: MIT License) -->
    <path d="M15 8c-4.438 0-8 2.938-8 6.5 0 1.563.656 2.969 1.781 4.094-.406 1.593-1.719 2.968-1.719 3a.3.3 0 00-.062.281c.063.094.125.125.25.125 2.063 0 3.625-.969 4.375-1.594A9.81 9.81 0 0015 21c4.406 0 8-2.906 8-6.5 0-3.563-3.594-6.5-8-6.5z" fill="currentColor"/><path d="M17.625 13.719h-1.969V11.75a.45.45 0 00-.437-.438h-.438a.44.44 0 00-.437.438v1.969h-1.969a.44.44 0 00-.438.437v.438c0 .246.192.437.438.437h1.969V17c0 .246.191.438.437.438h.438a.44.44 0 00.437-.438v-1.969h1.969a.44.44 0 00.438-.437v-.438a.45.45 0 00-.438-.437z" fill="#fff"></path>
</svg>
