
<svg id="icon-comment-large-reversed" viewBox="0 0 17 17">
    <!-- Font Awesome Free 5.15.3 by @fontawesome - https://fontawesome.com License - https://fontawesome.com/license/free (Icons: CC BY 4.0, Fonts: SIL OFL 1.1, Code: MIT License) -->
    <path fill-rule="evenodd" clip-rule="evenodd" d="M1 6.5C1 2.937 4.563 0 9 0c4.406 0 8 2.938 8 6.5 0 3.594-3.594 6.5-8 6.5a9.81 9.81 0 01-3.375-.594C4.875 13.031 3.313 14 1.25 14c-.125 0-.187-.031-.25-.125a.3.3 0 01.063-.281.83.83 0 01.074-.094c.284-.337 1.296-1.541 1.644-2.906C1.656 9.469 1 8.063 1 6.5zm8.656-.781h1.969a.45.45 0 01.438.437v.438a.44.44 0 01-.438.437H9.656V9a.44.44 0 01-.437.438H8.78A.432.432 0 018.344 9V7.031H6.375a.432.432 0 01-.438-.437v-.438a.44.44 0 01.438-.437h1.969V3.75a.44.44 0 01.437-.438h.438a.45.45 0 01.437.438v1.969z" fill="#007D7E"></path>
</svg>
