<svg xmlns="http://www.w3.org/2000/svg" id="icon-comment-add" viewBox="0 0 512 512">
    <path d="M256.2 29.5C114.3 29.5.4 123.4.4 237.3c0 47.9 19 91.9 51.9 126.9-14 39-44.9 72.9-45.9 72.9-7 7-8 17-5 26 4 9 13 14 23 14 60.9 0 109.9-25 138.8-45.9 29 9 59.9 14 92.9 14 140.8 0 255.7-92.9 255.7-207.8.1-114-114.8-207.9-255.6-207.9zm0 367.6c-27 0-53.9-4-78.9-12l-23-7-19 14c-14 10-34 21-57.9 29 8-12 15-26 20-40l11-28-21-22c-18-19-39-50.9-39-93.9 0-87.9 92.9-159.8 207.8-159.8 113.9 0 207.8 71.9 207.8 159.8-.1 89-94 159.9-207.8 159.9z" fill="currentColor"/><path d="M340.1 212.3h-62.9v-62.9c0-7.4-6.6-14-14-14h-14c-7.9 0-14 6.6-14 14v62.9h-62.9c-7.9 0-14 6.6-14 14v14c0 7.9 6.1 14 14 14h62.9v62.9c0 7.9 6.1 14 14 14h14c7.4 0 14-6.1 14-14v-62.9h62.9c7.4 0 14-6.1 14-14v-14c-.1-7.4-6.6-14-14-14z" fill="currentColor"/>
</svg>
