<svg xmlns="http://www.w3.org/2000/svg" id="icon-cross" viewBox="0 0 16 16">
    <path d="M13.313 11.313c0 0.219-0.094 0.438-0.25 0.594l-1.219 1.219c-0.156 0.156-0.375 0.25-0.625 0.25-0.219 0-0.438-0.094-0.594-0.25l-2.625-2.625-2.625 2.625c-0.156 0.156-0.375 0.25-0.594 0.25-0.25 0-0.469-0.094-0.625-0.25l-1.219-1.219c-0.156-0.156-0.25-0.375-0.25-0.594 0-0.25 0.094-0.438 0.25-0.625l2.625-2.625-2.625-2.625c-0.156-0.156-0.25-0.375-0.25-0.594 0-0.25 0.094-0.438 0.25-0.625l1.219-1.188c0.156-0.188 0.375-0.25 0.625-0.25 0.219 0 0.438 0.063 0.594 0.25l2.625 2.625 2.625-2.625c0.156-0.188 0.375-0.25 0.594-0.25 0.25 0 0.469 0.063 0.625 0.25l1.219 1.188c0.156 0.188 0.25 0.375 0.25 0.625 0 0.219-0.094 0.438-0.25 0.594l-2.625 2.625 2.625 2.625c0.156 0.188 0.25 0.375 0.25 0.625z"></path>
</svg>
