<svg id="icon-cut" xmlns="http://www.w3.org/2000/svg" viewBox="0 0 16 16"><!--! scissors (solid): Font Awesome Pro 6.4.0 --><path d="M12.375 1.625a2.245 2.245 0 0 1 3.219 0 .547.547 0 0 1 0 .781L6.75 11.25c.156.406.25.813.25 1.25C7 14.438 5.406 16 3.5 16A3.494 3.494 0 0 1 0 12.5C0 10.594 1.563 9 3.5 9c.438 0 .844.094 1.25.25L5.969 8 4.75 6.781A3.4 3.4 0 0 1 3.5 7 3.494 3.494 0 0 1 0 3.5C0 1.594 1.563 0 3.5 0 5.406 0 7 1.594 7 3.5c0 .469-.094.875-.25 1.281L7.969 6l4.406-4.375ZM5 3.5C5 2.687 4.312 2 3.5 2A1.5 1.5 0 0 0 2 3.5C2 4.344 2.656 5 3.5 5A1.5 1.5 0 0 0 5 3.5ZM3.5 14A1.5 1.5 0 0 0 5 12.5c0-.813-.688-1.5-1.5-1.5A1.5 1.5 0 0 0 2 12.5c0 .844.656 1.5 1.5 1.5Zm5.188-3.281 2-2 4.906 4.906a.547.547 0 0 1 0 .781 2.245 2.245 0 0 1-3.219 0L8.687 10.72Z"/></svg>
