<svg id="icon-date" viewBox="0 0 16 16">
    <path d="M12.12 14.592h-8.24c-1.365 0-2.472-1.107-2.472-2.472v-8.24c0-1.081 0.695-1.983 1.648-2.317v1.081c0 0.695 0.566 1.236 1.236 1.236s1.236-0.541 1.236-1.236v-1.236h4.944v1.236c0 0.695 0.566 1.236 1.236 1.236s1.236-0.541 1.236-1.236v-1.081c0.953 0.335 1.648 1.236 1.648 2.317v8.24c0 1.365-1.107 2.472-2.472 2.472zM12.944 5.528h-9.888v6.592c0 0.463 0.36 0.824 0.824 0.824h8.24c0.463 0 0.824-0.36 0.824-0.824zM9.648 9.648h1.648v1.648h-1.648zM9.648 7.176h1.648v1.648h-1.648zM7.176 9.648h1.648v1.648h-1.648zM7.176 7.176h1.648v1.648h-1.648zM4.704 9.648h1.648v1.648h-1.648zM4.704 7.176h1.648v1.648h-1.648zM11.708 3.056c-0.232 0-0.412-0.18-0.412-0.412v-1.236h0.824v1.236c0 0.232-0.18 0.412-0.412 0.412zM4.292 3.056c-0.232 0-0.412-0.18-0.412-0.412v-1.236h0.824v1.236c0 0.232-0.18 0.412-0.412 0.412z"></path>
</svg>
