<svg id="icon-decimal" xmlns="http://www.w3.org/2000/svg" viewBox="0 0 16 16"><!--! Custom icon --><path d="M3.5 2.5C1.553 2.5 0 4.088 0 6.08v2.84c0 1.97 1.553 3.58 3.5 3.58 1.925 0 3.5-1.61 3.5-3.58V6.058C7 4.088 5.425 2.5 3.5 2.5Zm2.1 6.42c0 1.186-.962 2.148-2.1 2.148-1.16 0-2.1-.962-2.1-2.147V6.057c0-1.163.94-2.148 2.1-2.148 1.138 0 2.1.985 2.1 2.148v2.864ZM12.5 2.5C10.553 2.5 9 4.088 9 6.08v2.84c0 1.97 1.553 3.58 3.5 3.58 1.925 0 3.5-1.61 3.5-3.58V6.058C16 4.088 14.425 2.5 12.5 2.5Zm2.1 6.42c0 1.186-.963 2.148-2.1 2.148-1.16 0-2.1-.962-2.1-2.147V6.057c0-1.163.94-2.148 2.1-2.148 1.137 0 2.1.985 2.1 2.148v2.864Z"/><circle cx="8" cy="12.5" r="1"/></svg>
