<svg id="icon-doc-full" xmlns="http://www.w3.org/2000/svg" viewBox="0 0 16 16"><!--! file-lines (regular): Font Awesome Pro 6.4.0 --><path d="M13.406 2.938 11.062.594A1.988 1.988 0 0 0 9.656 0H4C2.875 0 2 .906 2 2v12c0 1.125.875 2 2 2h8c1.094 0 2-.875 2-2V4.344c0-.532-.219-1.032-.594-1.407ZM12.5 14c0 .281-.25.5-.5.5H4a.494.494 0 0 1-.5-.5V2.031c0-.281.219-.5.5-.5h5V4c0 .563.438 1 1 1h2.469v9h.031ZM5 8.75c0 .438.313.75.75.75h4.5a.74.74 0 0 0 .75-.75.76.76 0 0 0-.75-.75h-4.5a.74.74 0 0 0-.75.75ZM10.25 11h-4.5a.74.74 0 0 0-.75.75c0 .438.313.75.75.75h4.5a.74.74 0 0 0 .75-.75.76.76 0 0 0-.75-.75Z"/></svg>
