<svg id="icon-doc-full-inverse" xmlns="http://www.w3.org/2000/svg" viewBox="0 0 16 16"><!--! file-lines (solid): Font Awesome Pro 6.4.0 --><path d="M10 0v4h4l-4-4ZM9 4V0H3.5A1.5 1.5 0 0 0 2 1.5v13c0 .844.656 1.5 1.5 1.5h9a1.5 1.5 0 0 0 1.5-1.5V5h-4c-.563 0-1-.438-1-1Zm1.5 9h-5a.494.494 0 0 1-.5-.5c0-.25.219-.5.5-.5h5c.25 0 .5.25.5.5 0 .281-.25.5-.5.5Zm0-2h-5a.494.494 0 0 1-.5-.5c0-.25.219-.5.5-.5h5c.25 0 .5.25.5.5 0 .281-.25.5-.5.5Zm.5-2.5c0 .281-.25.5-.5.5h-5a.494.494 0 0 1-.5-.5c0-.25.219-.5.5-.5h5c.25 0 .5.25.5.5Z"/></svg>
