<svg xmlns="http://www.w3.org/2000/svg" id="icon-doc-empty-inverse" viewBox="0 0 16 16">
    <path d="M14.1 6.767v7.633c0 0.267-0.1 0.467-0.267 0.633-0.167 0.2-0.4 0.267-0.667 0.267h-10.333c-0.267 0-0.5-0.067-0.667-0.267-0.167-0.167-0.267-0.367-0.267-0.633v-12.8c0-0.267 0.1-0.467 0.267-0.633 0.167-0.2 0.4-0.267 0.667-0.267h5.167v5.167c0 0.267 0.1 0.467 0.267 0.633 0.167 0.2 0.4 0.267 0.633 0.267zM14.067 5.567h-4.833v-4.867c0.5 0.1 0.933 0.3 1.233 0.633l2.967 2.967c0.333 0.333 0.533 0.733 0.633 1.267z"></path>
</svg>
