<svg xmlns="http://www.w3.org/2000/svg" id="icon-doc-full" viewBox="0 0 16 16">
    <path d="M11.438 10.563v0.594c0 0.063-0.031 0.125-0.094 0.188s-0.125 0.094-0.188 0.094h-6.313c-0.063 0-0.125-0.031-0.188-0.094s-0.094-0.125-0.094-0.188v-0.594c0-0.063 0.031-0.156 0.094-0.188 0.063-0.063 0.125-0.094 0.188-0.094h6.313c0.063 0 0.125 0.031 0.188 0.094 0.063 0.031 0.094 0.125 0.094 0.188zM11.438 8.281v0.563c0 0.094-0.031 0.156-0.094 0.219s-0.125 0.094-0.188 0.094h-6.313c-0.063 0-0.125-0.031-0.188-0.094s-0.094-0.125-0.094-0.219v-0.563c0-0.094 0.031-0.156 0.094-0.188 0.063-0.063 0.125-0.094 0.188-0.094h6.313c0.063 0 0.125 0.031 0.188 0.094 0.063 0.031 0.094 0.094 0.094 0.188zM3.438 13.719h9.125v-6.875h-3.719c-0.219 0-0.438-0.063-0.594-0.25-0.156-0.156-0.25-0.344-0.25-0.594v-3.719h-4.563zM9.156 5.719h3.344c-0.063-0.188-0.125-0.313-0.188-0.375l-2.813-2.781c-0.063-0.094-0.188-0.156-0.344-0.219zM13.719 6v8c0 0.25-0.094 0.438-0.25 0.594-0.156 0.188-0.375 0.25-0.625 0.25h-9.688c-0.25 0-0.469-0.063-0.625-0.25-0.156-0.156-0.25-0.344-0.25-0.594v-12c0-0.25 0.094-0.438 0.25-0.594 0.156-0.188 0.375-0.25 0.625-0.25h5.688c0.25 0 0.5 0.031 0.813 0.156 0.281 0.125 0.5 0.281 0.656 0.438l2.781 2.781c0.188 0.156 0.313 0.406 0.438 0.688s0.188 0.531 0.188 0.781z"></path>
</svg>
