<svg id="icon-dots-horizontal" viewBox="0 0 10 4">
    <path fill="currentColor" d="M6.40625 2.25C6.40625 1.48828 5.76172.84375 5 .84375c-.78125 0-1.40625.64453-1.40625 1.40625 0 .78125.625 1.40625 1.40625 1.40625.76172 0 1.40625-.625 1.40625-1.40625ZM8.4375.84375c-.78125 0-1.40625.64453-1.40625 1.40625 0 .78125.625 1.40625 1.40625 1.40625.76172 0 1.40625-.625 1.40625-1.40625 0-.76172-.64453-1.40625-1.40625-1.40625Zm-6.875 0C.78125.84375.15625 1.48828.15625 2.25c0 .78125.625 1.40625 1.40625 1.40625.76172 0 1.40625-.625 1.40625-1.40625 0-.76172-.64453-1.40625-1.40625-1.40625Z" />
</svg>
