<svg id="icon-download" xmlns="http://www.w3.org/2000/svg" viewBox="0 0 16 16"><!--! download (solid): Font Awesome Pro 6.4.0 --><path d="M15 11h-4.188l-1.406 1.438A1.959 1.959 0 0 1 8 13c-.563 0-1.063-.188-1.438-.563L5.157 11H1c-.563 0-1 .469-1 1v3c0 .563.438 1 1 1h14c.531 0 1-.438 1-1v-3c0-.531-.469-1-1-1Zm-1.5 3.25a.722.722 0 0 1-.75-.75.74.74 0 0 1 .75-.75.76.76 0 0 1 .75.75.74.74 0 0 1-.75.75Zm-6.219-2.531A.99.99 0 0 0 8 12c.25 0 .5-.094.688-.281l4-4a.964.964 0 0 0 0-1.407.964.964 0 0 0-1.407 0L9 8.595V1c0-.531-.469-1-1-1-.563 0-1 .469-1 1v7.594L4.687 6.313a.964.964 0 0 0-1.406 0 .964.964 0 0 0 0 1.406l4 4Z"/></svg>
