<svg id="icon-draft" xmlns="http://www.w3.org/2000/svg" viewBox="0 0 16 16"><!--! Custom icon --><path d="M2 2c0-1.094.875-2 2-2h5.156c.532 0 1.032.219 1.407.594l2.843 2.844c.375.374.594.874.594 1.406V14c0 1.125-.906 2-2 2H4c-1.125 0-2-.875-2-2V2Zm10.5 12V5H10c-.562 0-1-.438-1-1V1.5H4c-.281 0-.5.25-.5.5v12c0 .281.219.5.5.5h8c.25 0 .5-.219.5-.5Z"/><rect width="5.458" height="1" x="3.846" y="5.689" rx=".5" transform="rotate(-45 3.846 5.69)"/><rect width="6.828" height="1" x="3.846" y="9.689" rx=".5" transform="rotate(-45 3.846 9.69)"/><rect width="10.982" height="1" x="3.83" y="13.705" rx=".5" transform="rotate(-45 3.83 13.705)"/><rect width="5.192" height="1" x="7.908" y="13.627" rx=".5" transform="rotate(-45 7.908 13.627)"/></svg>
