<svg id="icon-duplicate" viewBox="0 0 16 16">
    <!-- Font Awesome Free 5.15.3 by @fontawesome - https://fontawesome.com License - https://fontawesome.com/license/free (Icons: CC BY 4.0, Fonts: SIL OFL 1.1, Code: MIT License) -->
    <path d="M 5.10985,1 C 4.89773,1 4.71212,1.053 4.57955,1.21212 4.44697,1.3447 4.36742,1.50379 4.36742,1.71591 V 3.38636 H 2.67045 c -0.21211,0 -0.39772,0.053 -0.5303,0.21213 C 2.00758,3.73106 1.92803,3.89015 1.92803,4.10227 v 10.18182 c 0,0.21212 0.0795,0.37121 0.21212,0.50379 C 2.27273,14.94697 2.45834,15 2.67045,15 h 8.2197 c 0.21212,0 0.39773,-0.053 0.5303,-0.21212 0.13258,-0.13258 0.21213,-0.29167 0.21213,-0.50379 v -1.67045 h 1.69697 c 0.21211,0 0.39772,-0.053 0.5303,-0.21213 0.13257,-0.13257 0.21212,-0.29166 0.21212,-0.50378 V 5.10985 c 0,-0.21212 -0.053,-0.42425 -0.15909,-0.66288 C 13.80682,4.20834 13.70076,3.99621 13.54166,3.86364 L 11.18182,1.50379 C 11.04924,1.37121 10.86364,1.23864 10.625,1.13258 10.35985,1.02651 10.14773,1 9.9356,1 Z M 5.34849,1.95455 H 9.2197 v 3.1553 c 0,0.21212 0.0795,0.37121 0.21211,0.50379 C 9.5644,5.77273 9.75,5.82576 9.9356,5.82576 h 3.15531 v 5.83333 H 5.34849 Z m 4.85227,0.053 c 0.13258,0.053 0.23863,0.10606 0.29166,0.18561 l 2.38637,2.35985 c 0.053,0.053 0.10606,0.15908 0.15909,0.31817 H 10.20076 Z M 2.90909,4.34088 h 1.45833 v 7.55682 c 0,0.21212 0.0795,0.37121 0.21213,0.50378 0.13257,0.1591 0.31818,0.21213 0.5303,0.21213 h 5.54166 v 1.43182 H 2.90909 Z" />
</svg>
