<svg xmlns="http://www.w3.org/2000/svg" id="icon-expand-right" viewBox="0 0 15 13">
    <path d="M8.26953 2.81445c-.21484.21485-.19336.53711 0 .75196l2.59957 2.44921H4.70312c-.30078 0-.51562.23633-.51562.51563v.6875c0 .30078.21484.51563.51562.51563h6.16598L8.26953 10.2051c-.19336.2148-.19336.5371 0 .7519l.47266.4727c.21484.1933.53711.1933.73047 0l4.18944-4.18947c.1934-.19335.1934-.51562 0-.73046L9.47266 2.3418c-.19336-.19336-.51563-.19336-.73047 0l-.47266.47265Z"/>
    <rect y="1" width="2" height="12" rx="1"/>
</svg>
