<svg xmlns="http://www.w3.org/2000/svg" id="icon-folder-open-inverse" viewBox="0 0 16 16">
    <path d="M14.729 8.912c0 0.137-0.082 0.302-0.22 0.494l-2.472 2.884c-0.192 0.247-0.494 0.467-0.879 0.632-0.385 0.192-0.714 0.275-1.044 0.275h-7.965c-0.165 0-0.33-0.027-0.439-0.11-0.137-0.055-0.22-0.165-0.22-0.302 0-0.165 0.082-0.33 0.247-0.494l2.444-2.884c0.22-0.275 0.522-0.467 0.879-0.659 0.385-0.165 0.742-0.247 1.071-0.247h7.965c0.165 0 0.302 0.027 0.439 0.082 0.137 0.082 0.192 0.192 0.192 0.33zM12.23 6.385v1.181h-6.097c-0.467 0-0.934 0.11-1.456 0.357-0.494 0.22-0.906 0.522-1.208 0.851l-2.444 2.911-0.055 0.055c0-0.027 0-0.055 0-0.11 0-0.027 0-0.055 0-0.082v-7.031c0-0.439 0.165-0.824 0.494-1.154 0.302-0.33 0.687-0.494 1.154-0.494h2.335c0.439 0 0.824 0.165 1.154 0.494s0.494 0.714 0.494 1.154v0.22h3.983c0.439 0 0.824 0.165 1.154 0.494s0.494 0.714 0.494 1.154z"></path>
</svg>
