<svg xmlns="http://www.w3.org/2000/svg" id="icon-folder-open-1" viewBox="0 0 16 16">
    <path d="M14.015 8.747c0-0.165-0.137-0.247-0.385-0.247h-7.965c-0.192 0-0.412 0.055-0.632 0.165s-0.412 0.22-0.522 0.385l-2.17 2.664c-0.082 0.11-0.11 0.192-0.11 0.275 0 0.165 0.11 0.275 0.385 0.275h7.965c0.192 0 0.412-0.055 0.632-0.165s0.385-0.247 0.522-0.385l2.142-2.664c0.082-0.11 0.137-0.22 0.137-0.302zM5.665 7.566h5.603v-1.181c0-0.192-0.055-0.357-0.192-0.494s-0.302-0.192-0.494-0.192h-4.23c-0.192 0-0.357-0.082-0.494-0.22s-0.192-0.302-0.192-0.494v-0.467c0-0.192-0.082-0.357-0.22-0.494s-0.302-0.22-0.494-0.22h-2.335c-0.192 0-0.357 0.082-0.494 0.22s-0.22 0.302-0.22 0.494v6.235l1.868-2.307c0.22-0.247 0.522-0.467 0.851-0.632 0.357-0.165 0.714-0.247 1.044-0.247zM14.949 8.747c0 0.302-0.11 0.604-0.33 0.879l-2.17 2.664c-0.22 0.275-0.494 0.467-0.851 0.632-0.357 0.192-0.687 0.275-1.016 0.275h-7.965c-0.467 0-0.851-0.165-1.154-0.494-0.33-0.33-0.494-0.714-0.494-1.154v-7.031c0-0.439 0.165-0.824 0.494-1.154 0.302-0.33 0.687-0.494 1.154-0.494h2.335c0.439 0 0.824 0.165 1.154 0.494s0.494 0.714 0.494 1.154v0.22h3.983c0.439 0 0.824 0.165 1.154 0.494s0.494 0.714 0.494 1.154v1.181h1.401c0.247 0 0.494 0.055 0.714 0.165 0.22 0.137 0.385 0.302 0.494 0.522 0.082 0.165 0.11 0.33 0.11 0.494z"></path>
</svg>
