<svg id="icon-form" xmlns="http://www.w3.org/2000/svg" viewBox="0 0 16 16"><!--! rectangle-list (solid): Font Awesome Pro 6.4.0 --><path d="M.125 3.375c0-.957.766-1.75 1.75-1.75h12.25c.957 0 1.75.793 1.75 1.75v8.75c0 .984-.793 1.75-1.75 1.75H1.875c-.984 0-1.75-.766-1.75-1.75v-8.75ZM4.5 7.75a.9.9 0 0 0-.875-.875.881.881 0 0 0-.875.875c0 .492.383.875.875.875A.881.881 0 0 0 4.5 7.75Zm0-2.625a.9.9 0 0 0-.875-.875.881.881 0 0 0-.875.875c0 .492.383.875.875.875a.881.881 0 0 0 .875-.875Zm0 5.25a.9.9 0 0 0-.875-.875.881.881 0 0 0-.875.875c0 .492.383.875.875.875a.881.881 0 0 0 .875-.875Zm1.75-5.906c-.383 0-.656.3-.656.656 0 .383.273.656.656.656h6.125a.648.648 0 0 0 .656-.656c0-.355-.3-.656-.656-.656H6.25Zm0 2.625c-.383 0-.656.3-.656.656 0 .383.273.656.656.656h6.125a.648.648 0 0 0 .656-.656c0-.355-.3-.656-.656-.656H6.25Zm0 2.625c-.383 0-.656.3-.656.656 0 .383.273.656.656.656h6.125a.648.648 0 0 0 .656-.656c0-.355-.3-.656-.656-.656H6.25Z"/></svg>
