<svg id="icon-globe" xmlns="http://www.w3.org/2000/svg" viewBox="0 0 16 16"><!--! globe (solid): Font Awesome Pro 6.4.0 --><path d="M11 8c0 .719-.063 1.375-.125 2H5.094a19.61 19.61 0 0 1-.125-2c0-.688.062-1.344.125-2h5.781c.063.656.125 1.313.125 2Zm4.719-2c.187.656.281 1.313.281 2 0 .719-.094 1.375-.281 2h-3.844c.063-.625.125-1.313.125-2 0-.688-.063-1.344-.125-2h3.844Zm-.313-1H11.75c-.313-1.969-.938-3.656-1.719-4.719C12.47.937 14.47 2.687 15.406 5ZM10.75 5H5.219c.187-1.125.5-2.125.843-2.938.344-.75.688-1.28 1.063-1.624C7.469.124 7.75 0 8 0c.219 0 .5.125.844.438.375.343.719.875 1.062 1.625.344.812.656 1.812.844 2.937ZM.562 5C1.5 2.687 3.5.937 5.938.281 5.157 1.344 4.532 3.031 4.22 5H.562Zm3.532 1c-.063.656-.125 1.313-.125 2 0 .688.062 1.375.125 2H.25C.062 9.375 0 8.719 0 8c0-.688.063-1.344.25-2h3.844Zm1.968 7.969A12.984 12.984 0 0 1 5.22 11h5.531a12.984 12.984 0 0 1-.844 2.969c-.344.75-.687 1.281-1.062 1.625-.344.312-.625.406-.875.406-.219 0-.5-.094-.844-.406-.375-.344-.719-.875-1.063-1.625Zm-.125 1.781A8.02 8.02 0 0 1 .563 11H4.22c.312 2 .937 3.688 1.718 4.75Zm4.094 0c.781-1.063 1.406-2.75 1.719-4.75h3.656a8.02 8.02 0 0 1-5.375 4.75Z"/></svg>
