<svg id="icon-grid" width="16" height="16" viewBox="0 0 16 16" fill="none" xmlns="http://www.w3.org/2000/svg">
<path d="M5 3.75C5 4.46875 4.4375 5 3.75 5H2.25C1.53125 5 1 4.46875 1 3.75V2.25C1 1.5625 1.53125 1 2.25 1H3.75C4.4375 1 5 1.5625 5 2.25V3.75ZM5 8.75C5 9.46875 4.4375 10 3.75 10H2.25C1.53125 10 1 9.46875 1 8.75V7.25C1 6.5625 1.53125 6 2.25 6H3.75C4.4375 6 5 6.5625 5 7.25V8.75ZM6 2.25C6 1.5625 6.53125 1 7.25 1H8.75C9.4375 1 10 1.5625 10 2.25V3.75C10 4.46875 9.4375 5 8.75 5H7.25C6.53125 5 6 4.46875 6 3.75V2.25ZM10 8.75C10 9.46875 9.4375 10 8.75 10H7.25C6.53125 10 6 9.46875 6 8.75V7.25C6 6.5625 6.53125 6 7.25 6H8.75C9.4375 6 10 6.5625 10 7.25V8.75ZM11 2.25C11 1.5625 11.5312 1 12.25 1H13.75C14.4375 1 15 1.5625 15 2.25V3.75C15 4.46875 14.4375 5 13.75 5H12.25C11.5312 5 11 4.46875 11 3.75V2.25ZM15 8.75C15 9.46875 14.4375 10 13.75 10H12.25C11.5312 10 11 9.46875 11 8.75V7.25C11 6.5625 11.5312 6 12.25 6H13.75C14.4375 6 15 6.5625 15 7.25V8.75Z" fill="#2E1F5E"/>
<path d="M3.75 15C4.4375 15 5 14.4688 5 13.75V12.25C5 11.5625 4.4375 11 3.75 11H2.25C1.53125 11 1 11.5625 1 12.25V13.75C1 14.4688 1.53125 15 2.25 15H3.75Z" fill="#2E1F5E"/>
<path d="M8.75 15C9.4375 15 10 14.4688 10 13.75V12.25C10 11.5625 9.4375 11 8.75 11H7.25C6.53125 11 6 11.5625 6 12.25V13.75C6 14.4688 6.53125 15 7.25 15H8.75Z" fill="#2E1F5E"/>
<path d="M13.75 15C14.4375 15 15 14.4688 15 13.75V12.25C15 11.5625 14.4375 11 13.75 11H12.25C11.5312 11 11 11.5625 11 12.25V13.75C11 14.4688 11.5312 15 12.25 15H13.75Z" fill="#2E1F5E"/>
</svg>
