<svg id="icon-grip" xmlns="http://www.w3.org/2000/svg" viewBox="0 0 16 16"><!--! Custom icon --><path d="M5.346 4.52a1.435 1.435 0 1 0 0-2.872 1.435 1.435 0 0 0 0 2.871ZM5.346 9.433a1.435 1.435 0 1 0 0-2.87 1.435 1.435 0 0 0 0 2.87ZM5.346 14.351a1.435 1.435 0 1 0 0-2.87 1.435 1.435 0 0 0 0 2.87ZM10.654 4.52a1.435 1.435 0 1 0 0-2.872 1.435 1.435 0 0 0 0 2.871ZM10.654 9.433a1.435 1.435 0 1 0 0-2.87 1.435 1.435 0 0 0 0 2.87ZM10.654 14.351a1.435 1.435 0 1 0 0-2.87 1.435 1.435 0 0 0 0 2.87Z"/></svg>
