<svg id="icon-group" xmlns="http://www.w3.org/2000/svg" viewBox="0 0 16 16"><!--! user-group (solid): Font Awesome Pro 6.4.0 --><path d="M5.656 7.813a3.131 3.131 0 0 0 3.125-3.125c0-1.71-1.416-3.125-3.125-3.125a3.131 3.131 0 0 0-3.125 3.125 3.115 3.115 0 0 0 3.125 3.125Zm1.221 1.171H4.41c-2.344 0-4.223 1.905-4.223 4.248 0 .464.366.83.83.83h9.252c.464 0 .855-.366.855-.83a4.251 4.251 0 0 0-4.248-4.248Zm5.005.391h-1.807a5 5 0 0 1 1.831 3.857c0 .318-.097.586-.244.83h3.37a.787.787 0 0 0 .78-.78c0-2.15-1.757-3.907-3.93-3.907Zm-1.148-1.563c1.49 0 2.735-1.22 2.735-2.734 0-1.49-1.245-2.734-2.735-2.734-.634 0-1.196.22-1.635.561.268.537.463 1.148.463 1.783 0 .878-.292 1.684-.78 2.319.488.513 1.171.806 1.952.806Z"/></svg>
