<svg id="icon-group" viewBox="0 0 16 16">
    <path d="M5.477 8c-0.747 0.026-1.339 0.309-1.828 0.875h-0.901c-0.386 0-0.695-0.077-0.953-0.283-0.257-0.18-0.386-0.438-0.386-0.798 0-1.622 0.283-2.42 0.85-2.42 0.026 0 0.129 0.026 0.309 0.129 0.155 0.103 0.386 0.206 0.669 0.309 0.257 0.077 0.541 0.129 0.798 0.129 0.309 0 0.618-0.051 0.927-0.154-0.026 0.18-0.026 0.335-0.026 0.463 0 0.618 0.18 1.21 0.541 1.751zM12.841 12.377c0 0.541-0.18 0.978-0.515 1.287-0.335 0.335-0.772 0.489-1.313 0.489h-6.025c-0.541 0-0.978-0.155-1.313-0.489-0.335-0.309-0.515-0.747-0.515-1.287 0-0.257 0.026-0.489 0.026-0.721 0.026-0.232 0.051-0.463 0.103-0.747 0.051-0.257 0.103-0.515 0.18-0.747s0.18-0.438 0.283-0.669c0.129-0.206 0.283-0.386 0.438-0.541s0.36-0.283 0.592-0.386c0.232-0.077 0.489-0.129 0.772-0.129 0.026 0 0.129 0.052 0.283 0.155s0.309 0.206 0.489 0.335c0.206 0.103 0.438 0.232 0.747 0.309 0.309 0.103 0.618 0.155 0.927 0.155s0.618-0.052 0.927-0.155c0.309-0.077 0.541-0.206 0.747-0.309 0.18-0.129 0.335-0.232 0.489-0.335s0.257-0.155 0.283-0.155c0.283 0 0.541 0.052 0.772 0.129 0.232 0.103 0.438 0.232 0.592 0.386s0.309 0.335 0.438 0.541c0.103 0.232 0.206 0.438 0.283 0.669s0.129 0.489 0.18 0.747c0.052 0.283 0.077 0.515 0.103 0.747 0 0.232 0.026 0.463 0.026 0.721zM5.811 3.597c0 0.489-0.18 0.901-0.515 1.262-0.36 0.335-0.772 0.515-1.262 0.515-0.463 0-0.901-0.18-1.236-0.515-0.335-0.36-0.515-0.772-0.515-1.262s0.18-0.901 0.515-1.236c0.335-0.335 0.772-0.515 1.236-0.515 0.489 0 0.901 0.18 1.262 0.515 0.335 0.335 0.515 0.747 0.515 1.236zM10.626 6.249c0 0.721-0.257 1.339-0.772 1.854s-1.133 0.772-1.854 0.772c-0.721 0-1.339-0.257-1.854-0.772s-0.772-1.133-0.772-1.854c0-0.747 0.257-1.365 0.772-1.88s1.133-0.772 1.854-0.772c0.721 0 1.339 0.257 1.854 0.772s0.772 1.133 0.772 1.88zM14.592 7.794c0 0.36-0.129 0.618-0.386 0.798-0.257 0.206-0.566 0.283-0.953 0.283h-0.901c-0.489-0.566-1.081-0.85-1.828-0.875 0.36-0.541 0.541-1.133 0.541-1.751 0-0.129 0-0.283-0.026-0.463 0.309 0.103 0.618 0.154 0.927 0.154 0.257 0 0.541-0.051 0.798-0.129 0.283-0.103 0.515-0.206 0.669-0.309 0.18-0.103 0.283-0.129 0.309-0.129 0.566 0 0.85 0.798 0.85 2.42zM13.716 3.597c0 0.489-0.18 0.901-0.515 1.262-0.335 0.335-0.772 0.515-1.236 0.515-0.489 0-0.901-0.18-1.262-0.515-0.335-0.36-0.515-0.772-0.515-1.262s0.18-0.901 0.515-1.236c0.36-0.335 0.772-0.515 1.262-0.515 0.463 0 0.901 0.18 1.236 0.515s0.515 0.747 0.515 1.236z"></path>
</svg>
