<svg id="icon-h1" viewBox="0 0 768 512"><path d="M448.143 107.429h29.714c7.429 0 14.857-6.5 14.857-14.858V62.857c0-7.428-7.428-14.857-14.857-14.857H329.286c-8.357 0-14.857 7.429-14.857 14.857v29.714c0 8.358 6.5 14.858 14.857 14.858H359v118.857H180.714V107.429h29.715c7.428 0 14.857-6.5 14.857-14.858V62.857c0-7.428-7.429-14.857-14.857-14.857H61.857C53.5 48 47 55.429 47 62.857v29.714c0 8.358 6.5 14.858 14.857 14.858h29.714v297.142H61.857C53.5 404.571 47 412 47 419.429v29.714C47 457.5 53.5 464 61.857 464H210.43c7.428 0 14.857-6.5 14.857-14.857v-29.714c0-7.429-7.429-14.858-14.857-14.858h-29.715V285.714H359v118.857h-29.714c-8.357 0-14.857 7.429-14.857 14.858v29.714c0 8.357 6.5 14.857 14.857 14.857h148.571c7.429 0 14.857-6.5 14.857-14.857v-29.714c0-7.429-7.428-14.858-14.857-14.858h-29.714V107.429ZM675.411 434.286V117.411h-74.982c-24.84 15.553-51.304 32.5-75.679 49.678v67.554c22.75-15.786 50.607-33.661 71.5-47.357h3.25v247h75.911Z"/></svg>
