<svg id="icon-h2" viewBox="0 0 768 512"><path d="M429.143 107.429h29.714c7.429 0 14.857-6.5 14.857-14.858V62.857c0-7.428-7.428-14.857-14.857-14.857H310.286c-8.357 0-14.857 7.429-14.857 14.857v29.714c0 8.358 6.5 14.858 14.857 14.858H340v118.857H161.714V107.429h29.715c7.428 0 14.857-6.5 14.857-14.858V62.857c0-7.428-7.429-14.857-14.857-14.857H42.857C34.5 48 28 55.429 28 62.857v29.714c0 8.358 6.5 14.858 14.857 14.858h29.714v297.142H42.857C34.5 404.571 28 412 28 419.429v29.714C28 457.5 34.5 464 42.857 464H191.43c7.428 0 14.857-6.5 14.857-14.857v-29.714c0-7.429-7.429-14.858-14.857-14.858h-29.715V285.714H340v118.857h-29.714c-8.357 0-14.857 7.429-14.857 14.858v29.714c0 8.357 6.5 14.857 14.857 14.857h148.571c7.429 0 14.857-6.5 14.857-14.857v-29.714c0-7.429-7.428-14.858-14.857-14.858h-29.714V107.429ZM579.107 216.536v-4.875c0-22.054 16.482-40.161 40.857-40.161 23.215 0 39.929 15.089 39.929 37.839 0 20.661-12.304 37.607-34.589 60.357L512.482 386.929v47.357h228.429v-60.822H615.786v-2.553l62.91-67.786c39.697-41.089 56.643-65.464 56.643-101.446 0-52.929-44.571-89.84-111.66-89.84-69.411 0-116.304 44.107-116.304 100.286v4.411h71.732Z"/></svg>
