<svg id="icon-h3" xmlns="http://www.w3.org/2000/svg" viewBox="0 0 16 16"><!--! Custom icon --><path d="M8.91 11.5a.63.63 0 0 1-.624.625H6.41a.617.617 0 0 1-.625-.625.63.63 0 0 1 .625-.625h.312V8.062H2.348v2.813h.313c.332 0 .625.293.625.625a.63.63 0 0 1-.625.625H.786A.617.617 0 0 1 .16 11.5a.63.63 0 0 1 .625-.625h.312v-6.25H.786A.617.617 0 0 1 .16 4a.63.63 0 0 1 .625-.625H2.66c.332 0 .625.293.625.625a.63.63 0 0 1-.625.625h-.313v2.188h4.375V4.624h-.312A.617.617 0 0 1 5.786 4a.63.63 0 0 1 .625-.625h1.875c.332 0 .625.293.625.625a.63.63 0 0 1-.625.625h-.313v6.25h.313c.332 0 .625.293.625.625Zm2.423-3.41h.886c.94 0 1.493.418 1.488 1.17 0 .656-.559 1.107-1.37 1.107-.854 0-1.412-.43-1.466-1.064H9.324c.07 1.424 1.262 2.369 3.013 2.369 1.8 0 3.019-.935 3.019-2.342 0-1.063-.752-1.746-1.901-1.853v-.032c.913-.188 1.616-.827 1.616-1.816 0-1.24-1.106-2.051-2.744-2.051-1.622 0-2.75.907-2.83 2.325h1.487c.048-.671.58-1.08 1.343-1.08.773 0 1.208.404 1.208 1.037 0 .634-.526 1.075-1.337 1.075h-.865v1.154Z"/></svg>
