<svg xmlns="http://www.w3.org/2000/svg" id="icon-h3" viewBox="0 0 768 512"><path d="M424.143 107.429h29.714c7.429 0 14.857-6.5 14.857-14.858V62.857c0-7.428-7.428-14.857-14.857-14.857H305.286c-8.357 0-14.857 7.429-14.857 14.857v29.714c0 8.358 6.5 14.858 14.857 14.858H335v118.857H156.714V107.429h29.715c7.428 0 14.857-6.5 14.857-14.858V62.857c0-7.428-7.429-14.857-14.857-14.857H37.857C29.5 48 23 55.429 23 62.857v29.714c0 8.358 6.5 14.858 14.857 14.858h29.714v297.142H37.857C29.5 404.571 23 412 23 419.429v29.714C23 457.5 29.5 464 37.857 464H186.43c7.428 0 14.857-6.5 14.857-14.857v-29.714c0-7.429-7.429-14.858-14.857-14.858h-29.715V285.714H335v118.857h-29.714c-8.357 0-14.857 7.429-14.857 14.858v29.714c0 8.357 6.5 14.857 14.857 14.857h148.571c7.429 0 14.857-6.5 14.857-14.857v-29.714c0-7.429-7.428-14.858-14.857-14.858h-29.714V107.429ZM583.161 299.643h35.053c32.5 0 50.143 18.107 50.143 40.625.232 23.678-18.571 41.553-49.214 41.553-29.714 0-49.911-16.714-51.536-39.464H497.5c.696 51.768 38.536 97.732 119.786 97.732 68.018 0 127.91-35.982 127.446-94.946C744.268 295 708.75 271.089 678.107 269v-3.25c23.911-3.25 57.572-25.768 57.107-70.804-.464-49.214-49.678-83.107-114.91-83.107-74.054 0-116.304 39.929-118.393 96.34h71.268c.696-19.036 16.017-39.233 44.107-39.233 25.535 0 43.178 15.554 43.41 35.983 0 22.053-17.41 38.071-44.107 38.071h-33.428v56.643Z"/></svg>
