<svg xmlns="http://www.w3.org/2000/svg" id="icon-h4" viewBox="0 0 768 512"><path d="M417.143 107.429h29.714c7.429 0 14.857-6.5 14.857-14.858V62.857c0-7.428-7.428-14.857-14.857-14.857H298.286c-8.357 0-14.857 7.429-14.857 14.857v29.714c0 8.358 6.5 14.858 14.857 14.858H328v118.857H149.714V107.429h29.715c7.428 0 14.857-6.5 14.857-14.858V62.857c0-7.428-7.429-14.857-14.857-14.857H30.857C22.5 48 16 55.429 16 62.857v29.714c0 8.358 6.5 14.858 14.857 14.858h29.714v297.142H30.857C22.5 404.571 16 412 16 419.429v29.714C16 457.5 22.5 464 30.857 464H179.43c7.428 0 14.857-6.5 14.857-14.857v-29.714c0-7.429-7.429-14.858-14.857-14.858h-29.715V285.714H328v118.857h-29.714c-8.357 0-14.857 7.429-14.857 14.858v29.714c0 8.357 6.5 14.857 14.857 14.857h148.571c7.429 0 14.857-6.5 14.857-14.857v-29.714c0-7.429-7.428-14.858-14.857-14.858h-29.714V107.429ZM605.411 117.411c-39.929 65.928-80.322 133.714-115.607 201.964v60.821h152.75v54.09h71.5v-54.09h37.142v-60.125h-37.142v-202.66H605.411Zm-48.75 202.66v-.928c25.303-50.839 53.857-99.822 82.875-146.714h3.018v147.642h-85.893Z"/></svg>
