<svg id="icon-h5" xmlns="http://www.w3.org/2000/svg" viewBox="0 0 16 16"><!--! Custom icon --><path d="M8.938 11.5a.63.63 0 0 1-.626.625H6.438a.617.617 0 0 1-.625-.625.63.63 0 0 1 .625-.625h.312V8.062H2.375v2.813h.313c.332 0 .624.293.624.625a.63.63 0 0 1-.624.625H.812a.617.617 0 0 1-.625-.625.63.63 0 0 1 .625-.625h.313v-6.25H.812A.617.617 0 0 1 .188 4a.63.63 0 0 1 .625-.625h1.875c.333 0 .626.293.626.625a.63.63 0 0 1-.626.625h-.312v2.188H6.75V4.624h-.313A.617.617 0 0 1 5.813 4a.63.63 0 0 1 .625-.625h1.875c.333 0 .626.293.626.625a.63.63 0 0 1-.626.625H8v6.25h.313c.332 0 .624.293.624.625Zm3.523.172c1.778 0 2.997-1.112 2.997-2.75 0-1.477-1.058-2.54-2.535-2.54-.784 0-1.424.316-1.746.837h-.032l.188-2.18h3.658v-1.29h-4.947L9.689 8.3h1.413c.263-.467.747-.757 1.37-.757.848 0 1.44.585 1.44 1.417 0 .844-.592 1.43-1.446 1.43-.746 0-1.321-.441-1.412-1.113H9.555c.043 1.408 1.246 2.396 2.906 2.396Z"/></svg>
