<svg xmlns="http://www.w3.org/2000/svg" id="icon-h5" viewBox="0 0 768 512"><path d="M420.143 107.429h29.714c7.429 0 14.857-6.5 14.857-14.858V62.857c0-7.428-7.428-14.857-14.857-14.857H301.286c-8.357 0-14.857 7.429-14.857 14.857v29.714c0 8.358 6.5 14.858 14.857 14.858H331v118.857H152.714V107.429h29.715c7.428 0 14.857-6.5 14.857-14.858V62.857c0-7.428-7.429-14.857-14.857-14.857H33.857C25.5 48 19 55.429 19 62.857v29.714c0 8.358 6.5 14.858 14.857 14.858h29.714v297.142H33.857C25.5 404.571 19 412 19 419.429v29.714C19 457.5 25.5 464 33.857 464H182.43c7.428 0 14.857-6.5 14.857-14.857v-29.714c0-7.429-7.429-14.858-14.857-14.858h-29.715V285.714H331v118.857h-29.714c-8.357 0-14.857 7.429-14.857 14.858v29.714c0 8.357 6.5 14.857 14.857 14.857h148.571c7.429 0 14.857-6.5 14.857-14.857v-29.714c0-7.429-7.428-14.858-14.857-14.858h-29.714V107.429ZM502.321 345.607c1.161 51.768 43.411 94.482 119.554 94.482 74.054 0 126.982-43.643 126.982-114.91 0-65.465-49.446-104.233-104.232-104.233-38.768 0-60.821 16.947-67.786 27.161h-3.018l6.5-70.803h145.786v-60.125H519.964L506.5 304.982h68.018c5.803-12.303 21.589-28.089 48.518-28.089 29.714 0 51.535 21.125 51.535 52 0 32.268-24.607 52.232-51.535 52.232-27.857 0-47.822-14.393-51.072-35.518h-69.643Z"/></svg>
