<svg id="icon-h6" viewBox="0 0 768 512"><path d="M424.143 107.429h29.714c7.429 0 14.857-6.5 14.857-14.858V62.857c0-7.428-7.428-14.857-14.857-14.857H305.286c-8.357 0-14.857 7.429-14.857 14.857v29.714c0 8.358 6.5 14.858 14.857 14.858H335v118.857H156.714V107.429h29.715c7.428 0 14.857-6.5 14.857-14.858V62.857c0-7.428-7.429-14.857-14.857-14.857H37.857C29.5 48 23 55.429 23 62.857v29.714c0 8.358 6.5 14.858 14.857 14.858h29.714v297.142H37.857C29.5 404.571 23 412 23 419.429v29.714C23 457.5 29.5 464 37.857 464H186.43c7.428 0 14.857-6.5 14.857-14.857v-29.714c0-7.429-7.429-14.858-14.857-14.858h-29.715V285.714H335v118.857h-29.714c-8.357 0-14.857 7.429-14.857 14.858v29.714c0 8.357 6.5 14.857 14.857 14.857h148.571c7.429 0 14.857-6.5 14.857-14.857v-29.714c0-7.429-7.428-14.858-14.857-14.858h-29.714V107.429ZM738.464 199.357c-1.857-39.464-37.839-87.286-109.339-87.286-80.321 0-129.304 60.822-129.304 168.072 0 51.071 12.072 91 33.893 118.161 21.822 27.392 53.857 41.785 93.322 41.785 65.696 0 118.625-40.16 118.625-111.893 0-66.392-47.125-102.839-98.893-102.839-42.947 0-63.839 25.536-71.964 45.036h-3.483c-1.625-53.161 15.786-100.054 56.179-100.054 22.75 0 38.304 13.929 40.625 29.018h70.339ZM579.679 330.982c0-30.411 19.964-50.607 47.125-50.607 25.767 0 46.428 19.036 46.428 50.607 0 31.804-20.428 50.375-46.428 50.375-26.465 0-47.125-19.268-47.125-50.375Z"/></svg>
