<svg id="icon-h6" xmlns="http://www.w3.org/2000/svg" viewBox="0 0 16 16"><!--! Custom icon --><path d="M8.835 11.5a.63.63 0 0 1-.625.625H6.335a.617.617 0 0 1-.625-.625.63.63 0 0 1 .625-.625h.313V8.062H2.273v2.813h.312c.332 0 .625.293.625.625a.63.63 0 0 1-.625.625H.71a.617.617 0 0 1-.625-.625.63.63 0 0 1 .625-.625h.313v-6.25H.71A.617.617 0 0 1 .085 4a.63.63 0 0 1 .625-.625h1.875c.332 0 .625.293.625.625a.63.63 0 0 1-.625.625h-.312v2.188h4.375V4.624h-.313A.617.617 0 0 1 5.71 4a.63.63 0 0 1 .625-.625H8.21c.332 0 .625.293.625.625a.63.63 0 0 1-.625.625h-.312v6.25h.312c.332 0 .625.293.625.625Zm3.674.172c1.73 0 2.987-1.144 2.987-2.75 0-1.456-1.026-2.525-2.525-2.525-1.047 0-1.81.527-2.11 1.247h-.033c-.005-1.698.553-2.788 1.681-2.788.64 0 1.101.322 1.284.875h1.6c-.214-1.278-1.374-2.159-2.878-2.159-2.014 0-3.24 1.547-3.24 4.115 0 2.674 1.381 3.985 3.234 3.985Zm-.021-1.29A1.404 1.404 0 0 1 11.07 8.96c0-.79.612-1.364 1.434-1.364.81 0 1.412.58 1.412 1.397-.005.779-.633 1.39-1.428 1.39Z"/></svg>
