<svg id="icon-help" xmlns="http://www.w3.org/2000/svg" viewBox="0 0 16 16"><!--! circle-question (solid): Font Awesome Pro 6.4.0 --><path d="M8 0C3.562 0 0 3.594 0 8c0 4.438 3.563 8 8 8 4.406 0 8-3.563 8-8 0-4.406-3.594-8-8-8Zm0 12.5c-.563 0-1-.438-1-1 0-.563.406-1 1-1 .531 0 1 .438 1 1 0 .563-.469 1-1 1Zm2.156-4.438-1.406.876V9a.76.76 0 0 1-.75.75.76.76 0 0 1-.75-.75v-.5c0-.25.125-.5.375-.656L9.406 6.78a.67.67 0 0 0 .344-.593c0-.375-.344-.688-.719-.688H7.437a.674.674 0 0 0-.687.688.76.76 0 0 1-.75.75.76.76 0 0 1-.75-.75C5.25 4.968 6.219 4 7.406 4H9c1.281 0 2.25.969 2.25 2.188a2.19 2.19 0 0 1-1.094 1.875Z"/></svg>
