<svg id="icon-help" viewBox="0 0 16 16">
    <path d="M7.912 1.086c1.904 0 3.516 0.645 4.893 1.963 1.348 1.318 2.051 2.93 2.109 4.834 0 1.904-0.645 3.545-1.992 4.893-1.318 1.377-2.93 2.080-4.834 2.139-1.904 0-3.545-0.645-4.893-1.992-1.377-1.318-2.080-2.93-2.109-4.834s0.615-3.545 1.963-4.893c1.348-1.377 2.959-2.080 4.863-2.109zM7.883 12.189c0.293 0 0.557-0.088 0.732-0.264 0.176-0.205 0.293-0.439 0.293-0.703 0-0.322-0.059-0.557-0.264-0.762-0.176-0.176-0.439-0.264-0.732-0.264 0 0-0.029 0-0.029 0-0.293 0-0.527 0.088-0.703 0.264-0.205 0.176-0.293 0.41-0.322 0.703 0 0.293 0.088 0.527 0.293 0.732 0.176 0.176 0.41 0.293 0.703 0.293 0 0 0.029 0 0.029 0zM10.373 7.268c0.264-0.322 0.381-0.703 0.381-1.172 0-0.762-0.264-1.348-0.791-1.729s-1.201-0.557-2.021-0.557c-0.645 0-1.172 0.117-1.553 0.381-0.703 0.41-1.055 1.143-1.084 2.197 0 0 0 0.059 0 0.059s1.641 0 1.641 0c0 0 0-0.059 0-0.059 0-0.264 0.088-0.527 0.234-0.82 0.176-0.234 0.439-0.352 0.82-0.352 0.41 0 0.674 0.088 0.791 0.293 0.146 0.205 0.234 0.41 0.234 0.674 0 0.176-0.088 0.381-0.234 0.586-0.088 0.117-0.205 0.234-0.322 0.293 0 0-0.088 0.059-0.088 0.059-0.059 0.059-0.117 0.117-0.234 0.176-0.088 0.059-0.205 0.146-0.293 0.234-0.117 0.059-0.205 0.146-0.322 0.234s-0.205 0.176-0.264 0.264c-0.117 0.205-0.205 0.586-0.264 1.172 0 0 0 0.117 0 0.117s1.641 0 1.641 0c0 0 0-0.059 0-0.059 0-0.117 0-0.264 0.059-0.41 0.059-0.205 0.176-0.381 0.41-0.557 0 0 0.41-0.264 0.41-0.264 0.469-0.352 0.732-0.586 0.85-0.762z"></path>
</svg>
