<svg id="icon-history" xmlns="http://www.w3.org/2000/svg" viewBox="0 0 16 16"><!--! clock-rotate-left (solid): Font Awesome Pro 6.4.0 --><path d="M8 0c4.406 0 8 3.594 8 8 0 4.438-3.594 8-8 8a8.227 8.227 0 0 1-4.594-1.406c-.437-.344-.562-.969-.25-1.406.313-.47.938-.563 1.406-.25C5.532 13.624 6.72 14 8 14c3.313 0 6-2.688 6-6 0-3.313-2.688-6-6-6-1.688 0-3.156.688-4.25 1.781l.969.938c.468.5.125 1.281-.532 1.281H.75A.722.722 0 0 1 0 5.25V1.812c0-.656.781-1 1.25-.53l1.063 1.062C3.78.906 5.78 0 7.968 0H8Zm0 4a.76.76 0 0 1 .75.75v2.969l2 2c.313.312.313.781 0 1.062a.684.684 0 0 1-1.031 0l-2.25-2.25C7.312 8.406 7.25 8.22 7.25 8V4.75A.74.74 0 0 1 8 4Z"/></svg>
