<svg xmlns="http://www.w3.org/2000/svg" id="icon-image" viewBox="0 0 16 16">
    <path d="M5.665 5.665c0 0.385-0.137 0.714-0.412 0.989s-0.604 0.412-1.016 0.412c-0.385 0-0.714-0.137-0.989-0.412s-0.412-0.604-0.412-0.989c0-0.412 0.137-0.742 0.412-1.016s0.604-0.412 0.989-0.412c0.412 0 0.742 0.137 1.016 0.412s0.412 0.604 0.412 1.016zM13.164 8.467v3.296h-10.327v-1.428l2.362-2.335 1.154 1.181 3.763-3.763zM13.85 3.303h-11.7c-0.082 0-0.137 0.027-0.165 0.082-0.055 0.055-0.082 0.11-0.082 0.165v8.899c0 0.055 0.027 0.11 0.082 0.165 0.027 0.055 0.082 0.082 0.165 0.082h11.7c0.082 0 0.137-0.027 0.165-0.082 0.055-0.055 0.082-0.11 0.082-0.165v-8.899c0-0.055-0.027-0.11-0.082-0.165-0.027-0.055-0.082-0.082-0.165-0.082zM15.031 3.551v8.899c0 0.33-0.11 0.604-0.357 0.824-0.22 0.247-0.494 0.357-0.824 0.357h-11.7c-0.33 0-0.604-0.11-0.824-0.357-0.247-0.22-0.357-0.494-0.357-0.824v-8.899c0-0.33 0.11-0.604 0.357-0.824 0.22-0.247 0.494-0.357 0.824-0.357h11.7c0.33 0 0.604 0.11 0.824 0.357 0.247 0.22 0.357 0.494 0.357 0.824z"></path>
</svg>
