<svg id="icon-image" xmlns="http://www.w3.org/2000/svg" viewBox="0 0 17 16"><!--! image (solid): Font Awesome Pro 6.4.0 --><path d="M14.969 1h-12c-1.094 0-2 .906-2 2v10c0 1.125.906 2 2 2h12c1.094 0 2-.875 2-2V3c0-1.094-.875-2-2-2Zm-10.5 2c.812 0 1.5.688 1.5 1.5 0 .844-.657 1.5-1.5 1.5-.875 0-1.5-.656-1.5-1.5 0-.813.687-1.5 1.5-1.5Zm10.468 9.75a.539.539 0 0 1-.437.25H3.562a.514.514 0 0 1-.468-.25c-.063-.188-.063-.375.062-.531l2.188-3A.488.488 0 0 1 5.75 9c.156 0 .281.094.375.219l1.031 1.406 2.907-4.375A.499.499 0 0 1 10.5 6c.156 0 .313.094.406.25l4 6c.094.125.094.344.031.5Z"/></svg>
