<svg id="icon-link" viewBox="0 0 16 16">
    <path d="M12.889 10.999c0-0.192-0.055-0.385-0.22-0.522l-1.62-1.62c-0.137-0.165-0.33-0.22-0.549-0.22s-0.385 0.082-0.549 0.247c0 0 0.055 0.055 0.137 0.137s0.137 0.137 0.165 0.165c0.027 0.027 0.082 0.082 0.137 0.165 0.055 0.055 0.082 0.11 0.082 0.192 0.027 0.055 0.027 0.137 0.027 0.22 0 0.192-0.055 0.385-0.22 0.522-0.137 0.137-0.302 0.22-0.522 0.22-0.082 0-0.137 0-0.22-0.027-0.055-0.027-0.137-0.055-0.192-0.11-0.082-0.027-0.11-0.082-0.165-0.11-0.027-0.027-0.082-0.082-0.165-0.165s-0.11-0.137-0.137-0.137c-0.165 0.137-0.247 0.33-0.247 0.549s0.055 0.412 0.22 0.549l1.593 1.62c0.165 0.137 0.33 0.22 0.549 0.22 0.192 0 0.385-0.082 0.522-0.22l1.154-1.126c0.165-0.165 0.22-0.33 0.22-0.549zM7.368 5.479c0-0.22-0.055-0.385-0.22-0.522l-1.593-1.648c-0.165-0.137-0.33-0.22-0.549-0.22-0.192 0-0.385 0.082-0.522 0.22l-1.154 1.154c-0.165 0.137-0.22 0.33-0.22 0.522 0 0.22 0.055 0.385 0.22 0.522l1.62 1.648c0.137 0.137 0.33 0.22 0.549 0.22s0.385-0.082 0.549-0.247c0-0.027-0.055-0.082-0.137-0.165s-0.137-0.137-0.165-0.165c-0.027-0.027-0.082-0.082-0.137-0.137-0.055-0.082-0.082-0.137-0.082-0.192-0.027-0.082-0.027-0.137-0.027-0.22 0-0.22 0.055-0.385 0.22-0.549 0.137-0.137 0.302-0.22 0.522-0.22 0.082 0 0.137 0.027 0.22 0.027 0.055 0.027 0.137 0.055 0.192 0.11 0.082 0.055 0.11 0.082 0.165 0.11 0.027 0.027 0.082 0.082 0.165 0.165s0.11 0.137 0.137 0.165c0.165-0.165 0.247-0.357 0.247-0.577zM14.4 10.999c0 0.632-0.22 1.181-0.659 1.593l-1.154 1.154c-0.439 0.439-0.961 0.659-1.593 0.659s-1.181-0.22-1.593-0.659l-1.62-1.648c-0.439-0.412-0.659-0.961-0.659-1.593s0.22-1.181 0.687-1.62l-0.687-0.687c-0.439 0.439-0.989 0.687-1.62 0.687s-1.181-0.22-1.62-0.659l-1.62-1.648c-0.439-0.439-0.659-0.961-0.659-1.593s0.22-1.154 0.659-1.593l1.154-1.154c0.439-0.439 0.961-0.632 1.593-0.632s1.181 0.22 1.593 0.659l1.62 1.62c0.439 0.439 0.659 0.961 0.659 1.593s-0.22 1.181-0.687 1.648l0.687 0.687c0.439-0.467 0.989-0.687 1.62-0.687s1.181 0.22 1.62 0.659l1.62 1.62c0.439 0.439 0.659 0.989 0.659 1.593z"></path>
</svg>
