<svg id="icon-link" xmlns="http://www.w3.org/2000/svg" viewBox="0 0 16 16"><!--! link (solid): Font Awesome Pro 6.4.0 --><path d="M4.387 4.785a3.537 3.537 0 0 1 4.98 0 3.556 3.556 0 0 1 .39 4.566l-.024.024c-.244.366-.732.44-1.098.195-.342-.268-.44-.757-.171-1.098l.024-.025a1.965 1.965 0 0 0-.22-2.539c-.756-.781-2.001-.781-2.783 0L2.751 8.643c-.781.756-.781 2.002 0 2.783a1.998 1.998 0 0 0 2.539.22l.024-.05c.367-.244.855-.17 1.1.196.243.342.17.83-.172 1.099l-.049.024a3.523 3.523 0 0 1-4.54-.39 3.493 3.493 0 0 1 0-4.981l2.734-2.759Zm7.202 6.055a3.493 3.493 0 0 1-4.98 0 3.523 3.523 0 0 1-.391-4.541l.024-.025c.244-.366.733-.439 1.099-.195a.78.78 0 0 1 .17 1.099l-.024.024a1.968 1.968 0 0 0 .22 2.54c.757.78 2.002.78 2.783 0l2.735-2.735c.78-.781.78-2.027 0-2.783a1.968 1.968 0 0 0-2.54-.22l-.024.024a.779.779 0 0 1-1.098-.17.809.809 0 0 1 .17-1.1l.05-.024a3.523 3.523 0 0 1 4.54.391 3.493 3.493 0 0 1 0 4.98L11.59 10.84Z"/></svg>
