<svg id="icon-link-external" xmlns="http://www.w3.org/2000/svg" viewBox="0 0 16 16"><!--! up-right-from-square (solid): Font Awesome Pro 6.4.0 --><path d="M12 10c-.563 0-1 .469-1 1v3H2V5h3c.531 0 1-.438 1-1 0-.531-.469-1-1-1H2C.875 3 0 3.906 0 5v9c0 1.125.875 2 2 2h9c1.094 0 2-.875 2-2v-3c0-.531-.469-1-1-1Zm3.25-10H11c-.406 0-.781.25-.938.625a1.01 1.01 0 0 0 .22 1.094L11.561 3l-6.28 6.313a.964.964 0 0 0 0 1.406A.99.99 0 0 0 6 11c.25 0 .5-.094.688-.281L13 4.438l1.281 1.28a1.01 1.01 0 0 0 1.094.22C15.75 5.78 16 5.405 16 5V.75a.76.76 0 0 0-.75-.75Z"/></svg>
