<svg id="icon-list-ul" viewBox="0 0 16 16">
    <path d="M4.241 11.759c0 0.412-0.154 0.721-0.412 1.004-0.283 0.283-0.618 0.412-1.004 0.412s-0.721-0.129-1.004-0.412c-0.283-0.283-0.412-0.592-0.412-1.004 0-0.386 0.129-0.721 0.412-1.004 0.283-0.257 0.618-0.412 1.004-0.412s0.721 0.155 1.004 0.412c0.257 0.283 0.412 0.618 0.412 1.004zM4.241 8c0 0.386-0.154 0.721-0.412 1.004-0.283 0.283-0.618 0.412-1.004 0.412s-0.721-0.129-1.004-0.412c-0.283-0.283-0.412-0.618-0.412-1.004s0.129-0.721 0.412-1.004c0.283-0.283 0.618-0.412 1.004-0.412s0.721 0.129 1.004 0.412c0.257 0.283 0.412 0.618 0.412 1.004zM14.592 11.064v1.416c0 0.052-0.026 0.103-0.077 0.155s-0.103 0.077-0.155 0.077h-8.961c-0.051 0-0.103-0.026-0.154-0.077s-0.077-0.103-0.077-0.155v-1.416c0-0.077 0.026-0.129 0.077-0.18 0.051-0.026 0.103-0.052 0.154-0.052h8.961c0.052 0 0.103 0.026 0.155 0.052 0.052 0.052 0.077 0.103 0.077 0.18zM4.241 4.241c0 0.386-0.154 0.721-0.412 1.004-0.283 0.257-0.618 0.412-1.004 0.412s-0.721-0.154-1.004-0.412c-0.283-0.283-0.412-0.618-0.412-1.004 0-0.412 0.129-0.721 0.412-1.004s0.618-0.412 1.004-0.412c0.386 0 0.721 0.129 1.004 0.412 0.257 0.283 0.412 0.592 0.412 1.004zM14.592 7.305v1.39c0 0.077-0.026 0.129-0.077 0.18s-0.103 0.077-0.155 0.077h-8.961c-0.051 0-0.103-0.026-0.154-0.077s-0.077-0.103-0.077-0.18v-1.39c0-0.077 0.026-0.129 0.077-0.18s0.103-0.077 0.154-0.077h8.961c0.052 0 0.103 0.026 0.155 0.077s0.077 0.103 0.077 0.18zM14.592 3.52v1.416c0 0.077-0.026 0.129-0.077 0.18-0.052 0.026-0.103 0.051-0.155 0.051h-8.961c-0.051 0-0.103-0.026-0.154-0.051-0.051-0.051-0.077-0.103-0.077-0.18v-1.416c0-0.051 0.026-0.103 0.077-0.155s0.103-0.077 0.154-0.077h8.961c0.052 0 0.103 0.026 0.155 0.077s0.077 0.103 0.077 0.155z"></path>
</svg>
