<svg id="icon-list-ol" xmlns="http://www.w3.org/2000/svg" viewBox="0 0 16 16"><!--! list-ol (solid): Font Awesome Pro 6.4.0 --><path d="M1.629 2.309c0-.383.3-.657.656-.657h.875c.383 0 .656.274.656.657v3.253h.438c.383 0 .656.301.656.657a.632.632 0 0 1-.656.656H2.066a.648.648 0 0 1-.656-.656c0-.356.3-.657.656-.657h.438V2.966h-.219a.665.665 0 0 1-.656-.656Zm1.723 7.793c-.164-.22-.493-.192-.657.027l-.3.41c-.22.3-.63.383-.903.164-.3-.219-.383-.629-.164-.902l.3-.438c.657-.902 1.97-.984 2.708-.136.601.656.574 1.668-.027 2.324l-.957 1.011h.93c.355 0 .655.301.655.657 0 .383-.3.656-.656.656H1.875c-.273 0-.52-.137-.602-.383-.109-.246-.082-.52.11-.71l1.969-2.134a.416.416 0 0 0 0-.546ZM14.125 2.5a.9.9 0 0 1 .875.875c0 .492-.41.875-.875.875h-7a.864.864 0 0 1-.875-.875c0-.465.383-.875.875-.875h7Zm0 4.375A.9.9 0 0 1 15 7.75c0 .492-.41.875-.875.875h-7a.864.864 0 0 1-.875-.875c0-.465.383-.875.875-.875h7Zm0 4.375a.9.9 0 0 1 .875.875c0 .492-.41.875-.875.875h-7a.864.864 0 0 1-.875-.875c0-.465.383-.875.875-.875h7Z"/></svg>
