<svg id="icon-list-ul" xmlns="http://www.w3.org/2000/svg" viewBox="0 0 16 16"><!--! list-ul (solid): Font Awesome Pro 6.4.0 --><path d="M.969 3.188c0-.762.615-1.407 1.406-1.407.762 0 1.406.645 1.406 1.407 0 .79-.644 1.406-1.406 1.406A1.388 1.388 0 0 1 .969 3.187Zm13.594-.938c.497 0 .937.44.937.938 0 .527-.44.937-.938.937H6.126a.926.926 0 0 1-.938-.938c0-.498.41-.937.938-.937h8.438Zm0 4.688c.497 0 .937.439.937.937 0 .527-.44.938-.938.938H6.126a.926.926 0 0 1-.938-.938c0-.498.41-.938.938-.938h8.438Zm0 4.687c.497 0 .937.44.937.938 0 .527-.44.937-.938.937H6.126a.926.926 0 0 1-.938-.938c0-.497.41-.937.938-.937h8.438Zm-13.594.938c0-.762.615-1.407 1.406-1.407.762 0 1.406.645 1.406 1.406 0 .792-.644 1.407-1.406 1.407a1.388 1.388 0 0 1-1.406-1.406ZM3.78 7.875c0 .791-.644 1.406-1.406 1.406A1.388 1.388 0 0 1 .969 7.875c0-.762.615-1.406 1.406-1.406.762 0 1.406.644 1.406 1.406Z"/></svg>
