<svg xmlns="http://www.w3.org/2000/svg" id="icon-lock-open" viewBox="0 0 16 16">
    <path d="M12.593 8.548c-0.159-0.061-0.558-0.2-0.564-0.205-0.467-0.117-1.4-0.377-1.4-0.377-0.851-0.183-1.725-0.276-2.596-0.276-0.846 0-1.694 0.088-2.524 0.261l-1.297-1.297c-1.012-1.012-1.012-2.659 0-3.672s2.659-1.012 3.672-0l1.349 1.349c0.455-0.11 0.963-0.334 1.286-0.694-0.026 0.003-0.061-0.005-0.075-0.019l-1.598-1.598c-1.543-1.543-4.053-1.543-5.596 0s-1.543 4.053 0 5.596l0.746 0.746c-0.203 0.068-0.37 0.127-0.523 0.187-0.19 0.073-0.333 0.283-0.333 0.489v5.192c0 0.204 0.142 0.415 0.331 0.489 1.458 0.578 2.993 0.871 4.562 0.871s3.104-0.293 4.562-0.871c0.188-0.075 0.331-0.285 0.331-0.489v-5.192c0-0.206-0.143-0.416-0.333-0.489zM8.571 11.531v1.782c0 0.298-0.241 0.539-0.539 0.539s-0.539-0.241-0.539-0.539v-1.782c-0.316-0.187-0.539-0.518-0.539-0.912 0-0.596 0.483-1.078 1.078-1.078s1.078 0.482 1.078 1.078c0 0.395-0.223 0.725-0.539 0.912z"></path>
</svg>
