<svg id="icon-login" xmlns="http://www.w3.org/2000/svg" viewBox="0 0 16 16"><!--! right-to-bracket (solid): Font Awesome Pro 6.4.0 --><path d="m10.75 7.469-4.5-4.25c-.219-.219-.531-.25-.813-.156A.75.75 0 0 0 5 3.75V6H1c-.563 0-1 .469-1 1v2c0 .563.438 1 1 1h4v2.25c0 .313.156.594.438.719.28.094.593.062.812-.156l4.5-4.25a.755.755 0 0 0 0-1.094ZM13 1h-2c-.563 0-1 .469-1 1 0 .563.438 1 1 1h2c.531 0 1 .469 1 1v8c0 .563-.469 1-1 1h-2c-.563 0-1 .469-1 1 0 .563.438 1 1 1h2c1.656 0 3-1.313 3-3V4a3 3 0 0 0-3-3Z"/></svg>
