<svg id="icon-no-view" xmlns="http://www.w3.org/2000/svg" viewBox="0 0 16 16"><!--! eye-slash (solid): Font Awesome Pro 6.4.0 --><path d="M3.85 3.833c1.098-.83 2.465-1.49 4.15-1.49 1.953 0 3.54.904 4.688 1.978 1.147 1.05 1.904 2.32 2.27 3.199a.876.876 0 0 1 0 .61c-.317.781-.977 1.904-1.953 2.88l2.563 2.027a.54.54 0 0 1 .098.806.54.54 0 0 1-.806.097L.407 2.612a.54.54 0 0 1-.097-.805.54.54 0 0 1 .805-.098L3.85 3.833Zm1.782 1.392 2.197 1.733c.098-.22.171-.44.171-.708 0-.269-.098-.537-.22-.757.074 0 .147-.024.22-.024a2.344 2.344 0 0 1 2.344 2.343 2.1 2.1 0 0 1-.22.953l.952.732a3.53 3.53 0 0 0 .44-1.684A3.532 3.532 0 0 0 8 4.296c-.928 0-1.758.366-2.368.928ZM8 13.28c-1.978 0-3.564-.879-4.712-1.953-1.147-1.074-1.904-2.344-2.27-3.198a.875.875 0 0 1 0-.61 9.75 9.75 0 0 1 1.196-2.002l2.295 1.806c-.025.171-.025.342-.025.489A3.501 3.501 0 0 0 8 11.328c.44 0 .879-.073 1.294-.244l1.782 1.416A6.39 6.39 0 0 1 8 13.281Z"/></svg>
