<svg xmlns="http://www.w3.org/2000/svg" id="icon-no-view" viewBox="0 0 16 16">
    <path d="M0.969 8.002q0-0.298 0.157-0.541 1.201-1.844 2.982-2.911t3.892-1.067q0.698 0 1.413 0.133l0.424-0.761q0.078-0.126 0.22-0.126 0.039 0 0.141 0.047t0.243 0.122 0.259 0.145 0.247 0.145 0.153 0.090q0.126 0.078 0.126 0.212 0 0.055-0.008 0.071-0.824 1.475-2.472 4.442t-2.48 4.449l-0.385 0.698q-0.078 0.126-0.22 0.126-0.094 0-1.052-0.549-0.126-0.078-0.126-0.22 0-0.094 0.345-0.683-1.122-0.51-2.068-1.358t-1.636-1.923q-0.157-0.243-0.157-0.541zM1.973 8.002q1.311 2.025 3.351 2.943l0.612-1.106q-0.683-0.494-1.067-1.248t-0.385-1.593q0-0.95 0.479-1.766-1.797 0.918-2.99 2.77zM5.614 6.998q0 0.157 0.11 0.267t0.267 0.11 0.267-0.11 0.11-0.267q0-0.675 0.479-1.154t1.154-0.479q0.157 0 0.267-0.11t0.11-0.267-0.11-0.267-0.267-0.11q-0.981 0-1.683 0.702t-0.702 1.683zM8 12.522l0.581-1.036q1.664-0.141 3.080-1.075t2.366-2.409q-0.902-1.405-2.213-2.307l0.494-0.879q0.745 0.502 1.432 1.201t1.134 1.444q0.157 0.267 0.157 0.541t-0.157 0.541q-0.306 0.502-0.855 1.138-1.177 1.35-2.727 2.095t-3.292 0.745zM9.256 10.278l2.197-3.939q0.063 0.353 0.063 0.659 0 1.091-0.62 1.989t-1.64 1.291z"></path>
</svg>
