<svg xmlns="http://www.w3.org/2000/svg" id="icon-order-up" viewBox="0 0 16 16">
    <path d="M10.994 4.841c-0.055 0.082-0.137 0.137-0.22 0.137h-1.758v9.805c0 0.082-0.027 0.137-0.082 0.165-0.055 0.055-0.11 0.082-0.192 0.082h-1.483c-0.082 0-0.137-0.027-0.192-0.082-0.055-0.027-0.082-0.082-0.082-0.165v-9.805h-1.758c-0.11 0-0.165-0.055-0.22-0.137-0.027-0.11-0.027-0.192 0.055-0.275l2.747-3.021c0.027-0.055 0.11-0.082 0.165-0.082 0.082 0 0.137 0.027 0.192 0.082l2.774 3.021c0.082 0.082 0.082 0.165 0.055 0.275z"></path>
</svg>
