<svg id="icon-order" xmlns="http://www.w3.org/2000/svg" viewBox="0 0 16 16"><!--! arrow-down-1-9 (solid): Font Awesome Pro 6.4.0 --><path d="M10 6c0 .563.438 1 1 1h2c.531 0 1-.438 1-1 0-.531-.469-1-1-1V2a.985.985 0 0 0-.5-.844c-.281-.187-.656-.187-.969-.031l-1 .531A.99.99 0 0 0 10.094 3c.187.344.531.531.906.531V5c-.563 0-1 .469-1 1Zm2.25 2a2.734 2.734 0 0 0-2.75 2.75c0 1.156.688 2.125 1.656 2.531l-.219.25a.887.887 0 0 0 0 1.25.955.955 0 0 0 .626.219.847.847 0 0 0 .624-.25c2.188-2.281 2.782-2.688 2.782-4C15 9.219 13.75 8 12.25 8Zm0 3.5a.74.74 0 0 1-.75-.75.74.74 0 0 1 .75-.75.76.76 0 0 1 .75.75.76.76 0 0 1-.75.75Zm-5.5-1.469c-.281 0-.563.094-.75.313l-1 1.125V2.03C5 1.47 4.531 1 4 1c-.563 0-1 .469-1 1.031v9.438l-1.031-1.125a.991.991 0 0 0-1.407-.063c-.406.375-.437 1-.062 1.438l2.719 3c.375.406 1.094.406 1.469 0l2.718-3c.375-.438.344-1.063-.062-1.438-.125-.156-.375-.25-.594-.25Z"/></svg>
