<svg xmlns="http://www.w3.org/2000/svg" id="icon-order" viewBox="0 0 16 16">
    <path d="M11.983 10.873c0-0.29-0.097-0.555-0.29-0.797-0.217-0.241-0.459-0.362-0.724-0.362-0.241 0-0.435 0.072-0.579 0.241-0.121 0.169-0.193 0.386-0.193 0.652s0.072 0.483 0.241 0.652c0.169 0.193 0.41 0.266 0.724 0.266 0.217 0 0.41-0.048 0.579-0.169 0.169-0.145 0.241-0.29 0.241-0.483zM7.783 11.742c0 0.072-0.024 0.121-0.072 0.169l-2.197 2.197c-0.048 0.048-0.097 0.072-0.169 0.072-0.048 0-0.097-0.024-0.145-0.072l-2.221-2.197c-0.072-0.072-0.072-0.145-0.048-0.241 0.048-0.097 0.121-0.145 0.217-0.145h1.328v-9.487c0-0.072 0.024-0.121 0.048-0.145 0.048-0.048 0.097-0.072 0.169-0.072h1.328c0.048 0 0.121 0.024 0.145 0.072 0.048 0.024 0.072 0.072 0.072 0.145v9.487h1.328c0.048 0 0.121 0.024 0.145 0.072 0.048 0.048 0.072 0.097 0.072 0.145zM12.949 11.283c0 0.29-0.024 0.555-0.097 0.821-0.048 0.29-0.145 0.555-0.266 0.797-0.145 0.241-0.29 0.459-0.483 0.652-0.169 0.193-0.41 0.338-0.676 0.459s-0.555 0.169-0.869 0.169c-0.29 0-0.531-0.048-0.748-0.121-0.121-0.024-0.217-0.072-0.29-0.097l0.266-0.772c0.072 0.024 0.145 0.048 0.217 0.072 0.169 0.048 0.338 0.097 0.507 0.097 0.386 0 0.7-0.145 0.941-0.41 0.217-0.266 0.386-0.603 0.459-1.014h-0.024c-0.097 0.121-0.241 0.193-0.41 0.266-0.193 0.072-0.386 0.097-0.603 0.097-0.483 0-0.869-0.169-1.183-0.483-0.314-0.338-0.459-0.724-0.459-1.207s0.169-0.893 0.483-1.231c0.338-0.314 0.748-0.483 1.255-0.483 0.579 0 1.038 0.217 1.424 0.652 0.362 0.435 0.555 1.014 0.555 1.738zM12.756 6.334v0.772h-3.235v-0.772h1.135v-2.993c0-0.024 0-0.072 0-0.121 0.024-0.048 0.024-0.097 0.024-0.121v-0.097h-0.024l-0.048 0.072c-0.048 0.048-0.097 0.121-0.169 0.217l-0.435 0.386-0.579-0.579 1.328-1.279h0.845v4.514z"></path>
</svg>
