<svg xmlns="http://www.w3.org/2000/svg" id="icon-password" viewBox="0 0 16 16">
    <path d="M8.006 4.979c0-0.412-0.165-0.769-0.439-1.071-0.302-0.275-0.659-0.439-1.071-0.439s-0.769 0.165-1.071 0.439c-0.302 0.302-0.439 0.659-0.439 1.071 0 0.22 0.055 0.439 0.137 0.659-0.192-0.11-0.412-0.137-0.632-0.137-0.439 0-0.769 0.137-1.071 0.439-0.302 0.275-0.439 0.632-0.439 1.044 0 0.439 0.137 0.797 0.439 1.071 0.302 0.302 0.632 0.439 1.071 0.439 0.412 0 0.769-0.137 1.071-0.439 0.275-0.275 0.439-0.632 0.439-1.071 0-0.22-0.055-0.412-0.165-0.632 0.22 0.082 0.439 0.137 0.659 0.137 0.412 0 0.769-0.137 1.071-0.439 0.275-0.302 0.439-0.632 0.439-1.071zM14.68 10.499c0 0.11-0.137 0.275-0.385 0.522-0.247 0.275-0.439 0.385-0.522 0.385-0.055 0-0.11-0.027-0.22-0.11s-0.192-0.165-0.302-0.275c-0.082-0.082-0.165-0.192-0.302-0.302-0.11-0.137-0.165-0.192-0.192-0.22l-0.742 0.769 1.73 1.73c0.137 0.137 0.22 0.33 0.22 0.522 0 0.22-0.11 0.439-0.302 0.632-0.22 0.22-0.412 0.302-0.632 0.302s-0.412-0.055-0.549-0.22l-5.273-5.246c-0.906 0.687-1.868 1.016-2.856 1.016-0.851 0-1.538-0.275-2.087-0.797-0.522-0.549-0.797-1.236-0.797-2.087 0-0.824 0.247-1.648 0.742-2.444 0.494-0.824 1.154-1.456 1.95-1.95s1.62-0.742 2.444-0.742c0.851 0 1.566 0.247 2.087 0.797 0.549 0.522 0.824 1.236 0.824 2.087 0 0.989-0.357 1.923-1.044 2.856l2.802 2.774 0.742-0.742c-0.027-0.027-0.082-0.082-0.192-0.192-0.137-0.11-0.247-0.22-0.33-0.302s-0.165-0.192-0.247-0.275c-0.082-0.11-0.137-0.192-0.137-0.247 0-0.082 0.137-0.247 0.385-0.494 0.247-0.275 0.439-0.385 0.522-0.385 0.055 0 0.137 0.027 0.192 0.055 0.027 0.055 0.137 0.165 0.357 0.357 0.192 0.192 0.412 0.412 0.632 0.632s0.439 0.439 0.687 0.659c0.22 0.247 0.412 0.439 0.577 0.632 0.137 0.165 0.22 0.275 0.22 0.302z"></path>
</svg>
