<svg id="icon-pick" xmlns="http://www.w3.org/2000/svg" viewBox="0 0 16 16"><!--! star (solid): Font Awesome Pro 6.4.0 --><path d="m10.543 4.879 3.91.574a.892.892 0 0 1 .711.602c.11.3.027.656-.219.875l-2.843 2.816.683 3.992a.86.86 0 0 1-.355.848c-.274.219-.63.219-.93.082L8 12.781l-3.527 1.887c-.274.137-.657.137-.903-.082a.859.859 0 0 1-.355-.848l.656-3.992L1.027 6.93a.812.812 0 0 1-.218-.875.892.892 0 0 1 .71-.602l3.938-.574 1.75-3.637A.852.852 0 0 1 8 .75c.328 0 .629.191.766.492l1.777 3.637Z"/></svg>
