<svg xmlns="http://www.w3.org/2000/svg" id="icon-plus-inverse" viewBox="0 0 16 16">
    <path d="M12 8.563v-1.125c0-0.156-0.063-0.313-0.156-0.406-0.125-0.125-0.25-0.188-0.406-0.188h-2.281v-2.281c0-0.156-0.063-0.281-0.188-0.406-0.094-0.094-0.25-0.156-0.406-0.156h-1.125c-0.156 0-0.313 0.063-0.406 0.156-0.125 0.125-0.188 0.25-0.188 0.406v2.281h-2.281c-0.156 0-0.281 0.063-0.406 0.188-0.094 0.094-0.156 0.25-0.156 0.406v1.125c0 0.156 0.063 0.313 0.156 0.406 0.125 0.125 0.25 0.188 0.406 0.188h2.281v2.281c0 0.156 0.063 0.281 0.188 0.406 0.094 0.094 0.25 0.156 0.406 0.156h1.125c0.156 0 0.313-0.063 0.406-0.156 0.125-0.125 0.188-0.25 0.188-0.406v-2.281h2.281c0.156 0 0.281-0.063 0.406-0.188 0.094-0.094 0.156-0.25 0.156-0.406zM14.844 8c0 1.25-0.281 2.406-0.906 3.438-0.625 1.063-1.438 1.875-2.5 2.5-1.031 0.625-2.188 0.906-3.438 0.906s-2.406-0.281-3.438-0.906c-1.063-0.625-1.875-1.438-2.5-2.5-0.625-1.031-0.906-2.188-0.906-3.438s0.281-2.406 0.906-3.438c0.625-1.063 1.438-1.875 2.5-2.5 1.031-0.625 2.188-0.906 3.438-0.906s2.406 0.281 3.438 0.906c1.063 0.625 1.875 1.438 2.5 2.5 0.625 1.031 0.906 2.188 0.906 3.438z"></path>
</svg>
