<svg id="icon-resubmit" class="icon--directional" xmlns="http://www.w3.org/2000/svg" viewBox="0 0 18 18"><!--! right-left (solid): Font Awesome Pro 6.4.0 --><path d="M2 6h9.969v2.25c0 .313.187.594.469.688.28.124.593.093.812-.126l3.5-3.25a.755.755 0 0 0 0-1.093l-3.5-3.25c-.219-.219-.531-.25-.813-.157a.78.78 0 0 0-.468.688V4H2c-.563 0-1 .469-1 1 0 .5.438 1 1 1Zm14 6H6V9.75c0-.313-.188-.594-.469-.688C5.25 8.97 4.938 9 4.72 9.22l-3.5 3.25a.755.755 0 0 0 0 1.094l3.5 3.25c.218.218.531.25.812.125.282-.094.469-.375.469-.688V14h10c.531 0 1-.438 1-1 0-.531-.469-1-1-1Z"/></svg>
