<svg id="icon-search" viewBox="0 0 16 16">
    <path d="M10.666 6.973c0-1.055-0.352-1.934-1.084-2.666s-1.611-1.084-2.666-1.084c-1.025 0-1.904 0.352-2.637 1.084s-1.113 1.611-1.113 2.666c0 1.025 0.381 1.904 1.113 2.637s1.611 1.113 2.637 1.113c1.055 0 1.934-0.381 2.666-1.113s1.084-1.611 1.084-2.637zM14.973 13.916c0 0.293-0.117 0.557-0.322 0.762s-0.469 0.322-0.762 0.322c-0.293 0-0.557-0.117-0.762-0.322l-2.871-2.871c-0.996 0.703-2.109 1.055-3.34 1.055-0.791 0-1.553-0.146-2.285-0.469s-1.348-0.732-1.875-1.26c-0.527-0.527-0.938-1.143-1.26-1.875-0.293-0.732-0.469-1.494-0.469-2.285 0-0.82 0.176-1.582 0.469-2.285 0.322-0.732 0.732-1.377 1.26-1.904s1.143-0.938 1.875-1.26c0.732-0.293 1.494-0.439 2.285-0.439 0.82 0 1.582 0.146 2.314 0.439 0.703 0.322 1.348 0.732 1.875 1.26s0.938 1.172 1.26 1.904c0.293 0.703 0.469 1.465 0.469 2.285 0 1.23-0.352 2.344-1.055 3.34l2.871 2.871c0.205 0.205 0.322 0.439 0.322 0.732z"></path>
</svg>
