<svg id="icon-site" xmlns="http://www.w3.org/2000/svg" viewBox="0 0 16 16"><!--! earth-americas (solid): Font Awesome Pro 6.4.0 --><path d="M16 8c0 4.438-3.594 8-8 8-4.438 0-8-3.563-8-8 0-4.406 3.563-8 8-8 4.406 0 8 3.594 8 8ZM1.781 6.031l.313.532c.25.437.656.78 1.187.937l1.781.5c.563.156.938.656.938 1.219v1.25c0 .344.188.656.5.781.281.156.5.469.5.813v1.218c0 .5.438.844.906.719a1.476 1.476 0 0 0 1.032-1.063l.093-.343c.125-.531.469-.969.938-1.25l.25-.156c.469-.25.781-.75.781-1.282v-.281c0-.375-.188-.781-.469-1.063l-.094-.093C10.158 8.188 9.75 8 9.376 8H8c-.344 0-.688-.063-.969-.25l-1.093-.625c-.125-.063-.22-.188-.282-.344-.093-.281.032-.625.313-.75l.187-.093a.81.81 0 0 1 .657-.063l.75.25c.25.094.53-.031.687-.25a.615.615 0 0 0-.063-.719l-.406-.5a.993.993 0 0 1 0-1.281l.5-.563a.99.99 0 0 0 .094-1.156l-.063-.125c-.124 0-.218-.031-.312-.031a6.54 6.54 0 0 0-6.219 4.531Zm11.875-1.187-.781.312c-.5.219-.75.75-.594 1.25L12.812 8c.094.313.376.563.72.656l.905.219A7.67 7.67 0 0 0 14.5 8a6.439 6.439 0 0 0-.844-3.156Z"/></svg>
