<svg id="icon-site" viewBox="0 0 16 16">
    <path d="M1 8q0-1.866 0.92-3.442t2.496-2.496 3.442-0.92 3.442 0.92 2.496 2.496 0.92 3.442-0.92 3.442-2.496 2.496-3.442 0.92-3.442-0.92-2.496-2.496-0.92-3.442zM3.018 4.973q0.063 0.063 0.107 0.071 0.036 0.009 0.045 0.080t0.022 0.098 0.103-0.027q0.080 0.071 0.027 0.17 0.009-0.009 0.393 0.241 0.17 0.152 0.188 0.188 0.027 0.098-0.089 0.161-0.009-0.018-0.080-0.080t-0.080-0.036q-0.027 0.045 0.004 0.165t0.094 0.112q-0.063 0-0.085 0.143t-0.022 0.317-0.009 0.21l0.018 0.009q-0.027 0.107 0.049 0.308t0.192 0.174q-0.116 0.027 0.179 0.384 0.054 0.071 0.071 0.080 0.027 0.018 0.107 0.067t0.134 0.089 0.089 0.094q0.036 0.045 0.089 0.201t0.125 0.21q-0.018 0.054 0.085 0.179t0.094 0.205q-0.009 0-0.022 0.009t-0.022 0.009q0.027 0.063 0.138 0.125t0.138 0.116q0.009 0.027 0.018 0.089t0.027 0.098 0.071 0.018q0.018-0.179-0.214-0.554-0.134-0.223-0.152-0.259-0.027-0.045-0.049-0.138t-0.040-0.129q0.018 0 0.054 0.013t0.076 0.031 0.067 0.036 0.018 0.027q-0.027 0.063 0.018 0.156t0.107 0.165 0.152 0.17 0.107 0.116q0.054 0.054 0.125 0.174t0 0.121q0.080 0 0.179 0.089t0.152 0.179q0.045 0.071 0.071 0.232t0.045 0.214q0.018 0.063 0.076 0.121t0.112 0.085l0.143 0.071t0.116 0.063q0.045 0.018 0.165 0.094t0.192 0.103q0.089 0.036 0.143 0.036t0.129-0.022 0.121-0.031q0.134-0.018 0.259 0.134t0.188 0.188q0.321 0.17 0.491 0.098-0.018 0.009 0.004 0.067t0.071 0.138 0.080 0.129 0.049 0.076q0.045 0.054 0.161 0.134t0.161 0.134q0.054-0.036 0.063-0.080-0.027 0.071 0.063 0.179t0.161 0.089q0.125-0.027 0.125-0.286-0.277 0.134-0.438-0.161 0-0.009-0.022-0.049t-0.036-0.076-0.022-0.076 0-0.067 0.045-0.027q0.080 0 0.089-0.031t-0.018-0.112-0.036-0.116q-0.009-0.071-0.098-0.179t-0.107-0.134q-0.045 0.080-0.143 0.071t-0.143-0.080q0 0.009-0.013 0.049t-0.013 0.058q-0.116 0-0.134-0.009 0.009-0.027 0.022-0.156t0.031-0.201q0.009-0.036 0.049-0.107t0.067-0.129 0.036-0.112-0.040-0.085-0.156-0.022q-0.17 0.009-0.232 0.179-0.009 0.027-0.027 0.094t-0.045 0.103-0.080 0.063q-0.063 0.027-0.214 0.018t-0.214-0.045q-0.116-0.071-0.201-0.259t-0.085-0.33q0-0.089 0.022-0.237t0.027-0.223-0.049-0.219q0.027-0.018 0.080-0.085t0.089-0.094q0.018-0.009 0.040-0.013t0.040 0 0.036-0.013 0.027-0.054q-0.009-0.009-0.036-0.027-0.027-0.027-0.036-0.027 0.063 0.027 0.254-0.013t0.246 0.013q0.134 0.098 0.196-0.018 0-0.009-0.022-0.085t-0.004-0.121q0.045 0.241 0.259 0.080 0.027 0.027 0.138 0.045t0.156 0.045q0.027 0.018 0.063 0.049t0.049 0.040 0.045-0.004 0.076-0.058q0.089 0.125 0.107 0.214 0.098 0.357 0.17 0.393 0.063 0.027 0.098 0.018t0.040-0.085 0-0.125-0.013-0.112l-0.009-0.071v-0.161l-0.009-0.071q-0.134-0.027-0.165-0.107t0.013-0.165 0.134-0.165q0.009-0.009 0.071-0.031t0.138-0.058 0.112-0.071q0.188-0.17 0.134-0.313 0.063 0 0.098-0.080-0.009 0-0.045-0.027t-0.067-0.045-0.040-0.018q0.080-0.045 0.018-0.143 0.045-0.027 0.067-0.098t0.067-0.089q0.080 0.107 0.188 0.018 0.063-0.071 0.009-0.143 0.045-0.063 0.183-0.094t0.165-0.085q0.063 0.018 0.071-0.018t0.009-0.107 0.027-0.107q0.036-0.045 0.134-0.080t0.116-0.045l0.152-0.098q0.027-0.036 0-0.036 0.161 0.018 0.277-0.098 0.089-0.098-0.054-0.179 0.027-0.054-0.027-0.085t-0.134-0.049q0.027-0.009 0.103-0.004t0.094-0.013q0.134-0.089-0.063-0.143-0.152-0.045-0.384 0.107-0.018 0.009-0.085 0.085t-0.121 0.085q0.018 0 0.040-0.045t0.045-0.098 0.031-0.063q0.054-0.063 0.196-0.134 0.125-0.054 0.464-0.107 0.304-0.071 0.455 0.098-0.018-0.018 0.085-0.116t0.129-0.107q0.027-0.018 0.134-0.040t0.134-0.067l0.018-0.196q-0.107 0.009-0.156-0.063t-0.058-0.188q0 0.018-0.054 0.071 0-0.063-0.040-0.071t-0.103 0.009-0.080 0.009q-0.089-0.027-0.134-0.067t-0.071-0.147-0.036-0.134q-0.018-0.045-0.085-0.094t-0.085-0.094q-0.009-0.018-0.022-0.049t-0.027-0.058-0.036-0.049-0.049-0.022-0.063 0.045-0.067 0.089-0.040 0.045q-0.027-0.018-0.054-0.013t-0.040 0.009-0.040 0.027-0.045 0.031q-0.027 0.018-0.076 0.027t-0.076 0.018q0.134-0.045-0.009-0.098-0.089-0.036-0.143-0.027 0.080-0.036 0.067-0.107t-0.076-0.125h0.045q-0.009-0.036-0.076-0.076t-0.156-0.076-0.116-0.054q-0.071-0.045-0.304-0.085t-0.295-0.004q-0.045 0.054-0.040 0.094t0.036 0.125 0.031 0.112q0.009 0.054-0.049 0.116t-0.058 0.107q0 0.063 0.125 0.138t0.089 0.192q-0.027 0.071-0.143 0.143t-0.143 0.107q-0.045 0.071-0.013 0.165t0.094 0.147q0.018 0.018 0.013 0.036t-0.031 0.040-0.049 0.036-0.058 0.031l-0.027 0.018q-0.098 0.045-0.183-0.054t-0.121-0.232q-0.063-0.223-0.143-0.268-0.205-0.071-0.259 0.009-0.045-0.116-0.366-0.232-0.223-0.080-0.518-0.036 0.054-0.009 0-0.134-0.063-0.134-0.17-0.107 0.027-0.054 0.036-0.156t0.009-0.121q0.027-0.116 0.107-0.205 0.009-0.009 0.063-0.076t0.085-0.121 0.004-0.054q0.313 0.036 0.446-0.098 0.045-0.045 0.103-0.152t0.094-0.152q0.080-0.054 0.125-0.049t0.129 0.049 0.129 0.045q0.125 0.009 0.138-0.098t-0.067-0.179q0.107 0.009 0.027-0.152-0.045-0.063-0.071-0.080-0.107-0.036-0.241 0.045-0.071 0.036 0.018 0.071-0.009-0.009-0.085 0.094t-0.147 0.156-0.143-0.045q-0.009-0.009-0.049-0.121t-0.085-0.121q-0.071 0-0.143 0.134 0.027-0.071-0.098-0.134t-0.214-0.071q0.17-0.107-0.071-0.241-0.063-0.036-0.183-0.045t-0.174 0.036q-0.045 0.063-0.049 0.103t0.045 0.071 0.094 0.049 0.103 0.036 0.076 0.027q0.125 0.089 0.071 0.125-0.018 0.009-0.076 0.031t-0.103 0.040-0.054 0.036q-0.027 0.036 0 0.125t-0.018 0.125q-0.045-0.045-0.080-0.156t-0.063-0.147q0.063 0.080-0.223 0.054l-0.089-0.009q-0.036 0-0.143 0.018t-0.183 0.009-0.121-0.071q-0.036-0.071 0-0.179 0.009-0.036 0.036-0.018-0.036-0.027-0.098-0.085t-0.089-0.076q-0.411 0.134-0.839 0.366 0.054 0.009 0.107-0.009 0.045-0.018 0.116-0.058t0.089-0.049q0.304-0.125 0.375-0.063l0.045-0.045q0.125 0.143 0.179 0.223-0.063-0.036-0.268-0.009-0.179 0.054-0.196 0.107 0.063 0.107 0.045 0.161-0.036-0.027-0.103-0.089t-0.129-0.098-0.134-0.045q-0.143 0-0.196 0.009-1.304 0.714-2.098 1.982zM8.83 13.482q0 0.054 0.018 0.143 1.839-0.321 3.134-1.688-0.027-0.027-0.112-0.040t-0.112-0.031q-0.161-0.063-0.214-0.071 0.009-0.063-0.022-0.116t-0.071-0.080-0.112-0.071-0.098-0.063q-0.018-0.018-0.063-0.054t-0.063-0.049-0.067-0.040-0.076-0.018-0.089 0.009l-0.027 0.009q-0.027 0.009-0.049 0.022t-0.049 0.027-0.036 0.027 0 0.022q-0.188-0.152-0.321-0.196-0.045-0.009-0.098-0.049t-0.094-0.063-0.089-0.013-0.103 0.063q-0.045 0.045-0.054 0.134t-0.018 0.116q-0.063-0.045 0-0.156t0.018-0.165q-0.027-0.054-0.094-0.040t-0.107 0.040-0.103 0.076-0.080 0.058-0.076 0.049-0.076 0.067q-0.027 0.036-0.054 0.107t-0.045 0.098q-0.018-0.036-0.103-0.058t-0.085-0.049q0.018 0.089 0.036 0.313t0.045 0.339q0.063 0.277-0.107 0.429-0.241 0.223-0.259 0.357-0.036 0.196 0.107 0.232 0 0.063-0.071 0.183t-0.063 0.192z"></path>
</svg>
