<svg id="icon-spinner" xmlns="http://www.w3.org/2000/svg" viewBox="0 0 16 16"><!--! spinner (solid): Font Awesome Pro 6.4.0 --><path d="M9.5 1.5A1.5 1.5 0 0 1 8 3a1.48 1.48 0 0 1-1.5-1.5A1.5 1.5 0 0 1 8 0c.813 0 1.5.688 1.5 1.5Zm0 13A1.5 1.5 0 0 1 8 16a1.48 1.48 0 0 1-1.5-1.5A1.5 1.5 0 0 1 8 13c.813 0 1.5.688 1.5 1.5ZM0 8a1.5 1.5 0 0 1 1.5-1.5C2.313 6.5 3 7.188 3 8a1.5 1.5 0 0 1-1.5 1.5A1.48 1.48 0 0 1 0 8Zm16 0a1.5 1.5 0 0 1-1.5 1.5A1.48 1.48 0 0 1 13 8a1.5 1.5 0 0 1 1.5-1.5c.813 0 1.5.688 1.5 1.5ZM2.312 13.656c-.562-.562-.562-1.531 0-2.094.594-.593 1.563-.593 2.126 0a1.453 1.453 0 0 1 0 2.094c-.563.594-1.532.594-2.125 0ZM4.438 4.47c-.563.593-1.532.593-2.125 0-.563-.563-.563-1.532 0-2.125.593-.563 1.562-.563 2.124 0 .594.594.594 1.562 0 2.125Zm7.093 7.093c.563-.593 1.531-.593 2.125 0 .563.563.563 1.532 0 2.094-.594.594-1.562.594-2.125 0a1.453 1.453 0 0 1 0-2.094Z"/></svg>
