<svg id="icon-strikethrough" xmlns="http://www.w3.org/2000/svg" viewBox="0 0 16 16"><!--! strikethrough (solid): Font Awesome Pro 6.4.0 --><path d="M10.375 10c.531.406.688.844.563 1.531-.094.531-.344.906-.75 1.156-1.126.594-3.407.376-5.813-.624a1 1 0 0 0-1.313.53 1 1 0 0 0 .532 1.313c1 .406 3 1.125 4.937 1.125.938 0 1.844-.187 2.625-.594.969-.562 1.563-1.437 1.75-2.593.125-.719.094-1.313-.094-1.844h-2.437Zm4.875-2.5H9.719c-.5-.156-1-.313-1.469-.438-2.656-.78-3.469-1.218-3.219-2.562.063-.438.313-.813.688-1.063.656-.406 2-.718 4.875.032a1.025 1.025 0 0 0 1.219-.719c.124-.531-.188-1.094-.72-1.219-2.843-.75-5.03-.687-6.437.25a3.397 3.397 0 0 0-1.593 2.407C2.78 5.78 3.343 6.813 4.28 7.5H.75a.734.734 0 0 0-.75.719c0 .437.313.75.75.75h14.5a.76.76 0 0 0 .75-.75c0-.375-.344-.719-.75-.719Z"/></svg>
