<svg id="icon-subscript" xmlns="http://www.w3.org/2000/svg" viewBox="0 0 16 17"><!--! subscript (solid): Font Awesome Pro 6.4.0 --><path d="M15 14v-4a.985.985 0 0 0-.5-.844c-.281-.187-.656-.187-.969-.031l-1 .5a.99.99 0 0 0-.437 1.344c.156.344.531.562.906.562v2.5c-.563 0-1 .438-1 1 0 .531.438 1 1 1h2c.531 0 1-.468 1-1C16 14.47 15.531 14 15 14ZM10 4c.531 0 1-.438 1-1 0-.531-.469-1-1-1H9a1.08 1.08 0 0 0-.844.438L5.5 6.28 2.812 2.438c-.187-.25-.5-.407-.812-.407H1c-.563 0-1 .438-1 1 0 .531.438 1 1 1h.469L4.25 8l-2.781 4H1c-.563 0-1 .469-1 1 0 .563.438 1 1 1h1a.982.982 0 0 0 .813-.438L5.5 9.75l2.656 3.844c.188.25.5.406.844.406l1 .031c.531 0 1-.469 1-1 0-.5-.469-1-1-1h-.5l-2.781-4L9.5 4.062h.5V4Z"/></svg>
