<svg xmlns="http://www.w3.org/2000/svg" id="icon-table" viewBox="0 0 15 16">
    <path d="M4.571 12.286v-1.714q0-0.125-0.080-0.205t-0.205-0.080h-2.857q-0.125 0-0.205 0.080t-0.080 0.205v1.714q0 0.125 0.080 0.205t0.205 0.080h2.857q0.125 0 0.205-0.080t0.080-0.205zM4.571 8.857v-1.714q0-0.125-0.080-0.205t-0.205-0.080h-2.857q-0.125 0-0.205 0.080t-0.080 0.205v1.714q0 0.125 0.080 0.205t0.205 0.080h2.857q0.125 0 0.205-0.080t0.080-0.205zM9.143 12.286v-1.714q0-0.125-0.080-0.205t-0.205-0.080h-2.857q-0.125 0-0.205 0.080t-0.080 0.205v1.714q0 0.125 0.080 0.205t0.205 0.080h2.857q0.125 0 0.205-0.080t0.080-0.205zM4.571 5.429v-1.714q0-0.125-0.080-0.205t-0.205-0.080h-2.857q-0.125 0-0.205 0.080t-0.080 0.205v1.714q0 0.125 0.080 0.205t0.205 0.080h2.857q0.125 0 0.205-0.080t0.080-0.205zM9.143 8.857v-1.714q0-0.125-0.080-0.205t-0.205-0.080h-2.857q-0.125 0-0.205 0.080t-0.080 0.205v1.714q0 0.125 0.080 0.205t0.205 0.080h2.857q0.125 0 0.205-0.080t0.080-0.205zM13.714 12.286v-1.714q0-0.125-0.080-0.205t-0.205-0.080h-2.857q-0.125 0-0.205 0.080t-0.080 0.205v1.714q0 0.125 0.080 0.205t0.205 0.080h2.857q0.125 0 0.205-0.080t0.080-0.205zM9.143 5.429v-1.714q0-0.125-0.080-0.205t-0.205-0.080h-2.857q-0.125 0-0.205 0.080t-0.080 0.205v1.714q0 0.125 0.080 0.205t0.205 0.080h2.857q0.125 0 0.205-0.080t0.080-0.205zM13.714 8.857v-1.714q0-0.125-0.080-0.205t-0.205-0.080h-2.857q-0.125 0-0.205 0.080t-0.080 0.205v1.714q0 0.125 0.080 0.205t0.205 0.080h2.857q0.125 0 0.205-0.080t0.080-0.205zM13.714 5.429v-1.714q0-0.125-0.080-0.205t-0.205-0.080h-2.857q-0.125 0-0.205 0.080t-0.080 0.205v1.714q0 0.125 0.080 0.205t0.205 0.080h2.857q0.125 0 0.205-0.080t0.080-0.205zM14.857 2.571v9.714q0 0.589-0.42 1.009t-1.009 0.42h-12q-0.589 0-1.009-0.42t-0.42-1.009v-9.714q0-0.589 0.42-1.009t1.009-0.42h12q0.589 0 1.009 0.42t0.42 1.009z"></path>
</svg>
