<svg id="icon-tag" viewBox="0 0 16 16">
    <path d="M5.156 4c0-0.313-0.125-0.594-0.344-0.813s-0.5-0.344-0.813-0.344c-0.313 0-0.594 0.125-0.813 0.344s-0.344 0.5-0.344 0.813c0 0.313 0.125 0.594 0.344 0.813s0.5 0.344 0.813 0.344c0.313 0 0.594-0.125 0.813-0.344s0.344-0.5 0.344-0.813zM14.656 9.156c0 0.313-0.094 0.563-0.313 0.781l-4.375 4.406c-0.25 0.219-0.531 0.313-0.813 0.313-0.344 0-0.594-0.094-0.813-0.313l-6.375-6.406c-0.25-0.219-0.438-0.5-0.594-0.906-0.156-0.375-0.219-0.719-0.219-1.031v-3.719c0-0.313 0.094-0.563 0.313-0.813 0.25-0.219 0.5-0.313 0.813-0.313h3.719c0.313 0 0.656 0.063 1.031 0.219 0.406 0.156 0.688 0.344 0.938 0.594l6.375 6.375c0.219 0.219 0.313 0.5 0.313 0.813z"></path>
</svg>
