<svg id="icon-thumbtack" xmlns="http://www.w3.org/2000/svg" viewBox="0 0 16 16"><!--! thumbtack (solid): Font Awesome Pro 6.4.0 --><path d="M3.313 1.313c0-.499.41-.938.937-.938h7.5c.498 0 .938.44.938.938 0 .527-.44.937-.938.937h-.879l.322 4.365a4.951 4.951 0 0 1 2.344 2.754l.03.088a.969.969 0 0 1-.147.85.843.843 0 0 1-.732.38H3.312c-.322 0-.585-.117-.761-.38a.969.969 0 0 1-.147-.85l.03-.088a4.951 4.951 0 0 1 2.343-2.754L5.1 2.25h-.85a.926.926 0 0 1-.938-.938Zm5.624 10.312v2.813c0 .527-.439.937-.937.937a.926.926 0 0 1-.938-.938v-2.812h1.875Z"/></svg>
