<svg xmlns="http://www.w3.org/2000/svg" id="icon-thumbtack-crossed" viewBox="0 0 16 15">
    <path d="M12.557 7.635H3.032a2.859 2.859 0 0 0-.486 1.578c0 .383.274.656.656.656h3.72v2.953l.655 1.313c.082.164.329.164.41 0l.657-1.313c0-.014.007-.027.014-.041a.097.097 0 0 0 .013-.041V9.869h3.719a.648.648 0 0 0 .656-.656c0-.583-.181-1.114-.489-1.578ZM10.34 2.869l.184 1.69H5.04l.185-1.69H4.077a.632.632 0 0 1-.656-.656V.9c0-.355.274-.656.656-.656h7.438c.355 0 .656.3.656.656v1.313c0 .382-.3.656-.656.656h-1.176ZM0 5.56h16v1.08H0V5.56Z"/>
</svg>
