<svg id="icon-thumbtack-crossed" xmlns="http://www.w3.org/2000/svg" viewBox="0 0 16 16"><!--! Custom icon --><path fill-rule="evenodd" d="M7.745.568A.944.944 0 0 0 6.464.91a.926.926 0 0 0 .343 1.28l.736.425L6.28 4.472l5.284 3.05.976-2.02.761.44a.944.944 0 0 0 1.28-.344.964.964 0 0 0-.342-1.28L7.745.568Zm3.412 10.014L3.835 6.355a4.907 4.907 0 0 0-2.16 1.094l-.07.061a.969.969 0 0 0-.298.81c.02.316.19.549.47.71l8.118 4.688c.254.146.541.176.825.036a.969.969 0 0 0 .552-.663l.018-.09a4.906 4.906 0 0 0-.133-2.419ZM4.773 15.09l1.406-2.436-1.624-.937-1.406 2.436a.925.925 0 0 0 .343 1.28.944.944 0 0 0 1.28-.343Z" clip-rule="evenodd"/><path d="m2.822 3.55 11.52 6.652-.5.866-11.52-6.651z"/></svg>
