<svg xmlns="http://www.w3.org/2000/svg" id="icon-tick-inverse" viewBox="0 0 16 16">
    <path d="M7.25 11.594l5.5-5.469c0.094-0.125 0.156-0.25 0.156-0.406s-0.063-0.281-0.156-0.406l-0.906-0.906c-0.125-0.125-0.25-0.188-0.406-0.188s-0.313 0.063-0.406 0.188l-4.188 4.156-1.875-1.875c-0.094-0.125-0.25-0.156-0.406-0.156s-0.281 0.031-0.406 0.156l-0.906 0.906c-0.094 0.125-0.156 0.25-0.156 0.406s0.063 0.281 0.156 0.406l3.219 3.188c0.094 0.125 0.219 0.188 0.375 0.188s0.313-0.063 0.406-0.188zM14.844 3.719v8.563c0 0.719-0.25 1.313-0.75 1.813s-1.094 0.75-1.813 0.75h-8.563c-0.719 0-1.313-0.25-1.813-0.75s-0.75-1.094-0.75-1.813v-8.563c0-0.719 0.25-1.313 0.75-1.813s1.094-0.75 1.813-0.75h8.563c0.719 0 1.313 0.25 1.813 0.75s0.75 1.094 0.75 1.813z"></path>
</svg>
