<svg xmlns="http://www.w3.org/2000/svg" id="icon-tick" viewBox="0 0 16 16">
    <path d="M14.906 4.563c0 0.219-0.063 0.438-0.25 0.594l-7.656 7.688c-0.188 0.156-0.375 0.25-0.625 0.25-0.219 0-0.438-0.094-0.594-0.25l-4.438-4.438c-0.188-0.188-0.25-0.375-0.25-0.625 0-0.219 0.063-0.438 0.25-0.594l1.188-1.219c0.188-0.156 0.375-0.25 0.625-0.25 0.219 0 0.438 0.094 0.594 0.25l2.625 2.625 5.875-5.875c0.156-0.156 0.375-0.25 0.594-0.25 0.25 0 0.438 0.094 0.625 0.25l1.188 1.219c0.188 0.188 0.25 0.375 0.25 0.625z"></path>
</svg>
