<svg id="icon-title" viewBox="0 0 16 16">
    <path d="M0 4.58v-3.42l0.723-0.009 0.482 0.241q0.107 0.045 1.884 0.045 0.393 0 1.179-0.018t1.179-0.018q0.321 0 0.96 0.004t0.96 0.004h2.616q0.054 0 0.188 0.004t0.183 0 0.143-0.027 0.156-0.080 0.134-0.156l0.375-0.009q0.036 0 0.125 0.004t0.125 0.004q0.018 1 0.018 3 0 0.714-0.045 0.973-0.348 0.125-0.607 0.161-0.223-0.393-0.482-1.143-0.027-0.080-0.098-0.429t-0.129-0.656-0.067-0.317q-0.054-0.071-0.107-0.112t-0.138-0.054-0.116-0.022-0.161-0.004-0.147 0.004q-0.152 0-0.594-0.004t-0.665-0.004-0.571 0.018-0.634 0.054q-0.080 0.723-0.071 1.214 0 0.839 0.018 3.464t0.018 4.063q0 0.143-0.022 0.638t0 0.817 0.112 0.616q0.357 0.188 1.107 0.379t1.071 0.335q0.045 0.357 0.045 0.446 0 0.125-0.027 0.259l-0.304 0.009q-0.679 0.018-1.946-0.071t-1.848-0.089q-0.446 0-1.348 0.080t-1.357 0.080q-0.027-0.455-0.027-0.464v-0.080q0.152-0.241 0.549-0.384t0.879-0.259 0.696-0.241q0.17-0.375 0.17-3.42 0-0.902-0.027-2.705t-0.027-2.705v-1.045q0-0.018 0.004-0.138t0.004-0.223-0.009-0.228-0.027-0.214-0.045-0.125q-0.098-0.107-1.446-0.107-0.295 0-0.83 0.107t-0.714 0.232q-0.17 0.116-0.304 0.647t-0.281 0.991-0.379 0.478q-0.375-0.232-0.5-0.393zM12.625 12.737q0.080-0.165 0.375-0.165h0.714v-9.143h-0.714q-0.295 0-0.375-0.165t0.098-0.397l1.125-1.446q0.179-0.232 0.438-0.232t0.438 0.232l1.125 1.446q0.179 0.232 0.098 0.397t-0.375 0.165h-0.714v9.143h0.714q0.295 0 0.375 0.165t-0.098 0.397l-1.125 1.446q-0.179 0.232-0.438 0.232t-0.438-0.232l-1.125-1.446q-0.179-0.232-0.098-0.397z"></path>
</svg>
