<svg id="icon-upload" xmlns="http://www.w3.org/2000/svg" viewBox="0 0 16 16"><!--! upload (solid): Font Awesome Pro 6.4.0 --><path d="M3.281 5.719a.964.964 0 0 0 1.406 0L7 3.437V11c0 .563.438 1 1 1 .531 0 1-.438 1-1V3.437l2.281 2.282a.964.964 0 0 0 1.406 0 .964.964 0 0 0 0-1.407l-4-4C8.5.126 8.25 0 8 0c-.281 0-.531.125-.719.313l-4 4a.964.964 0 0 0 0 1.406ZM15 11h-5c0 1.125-.906 2-2 2-1.125 0-2-.875-2-2H1c-.563 0-1 .469-1 1v3c0 .563.438 1 1 1h14c.531 0 1-.438 1-1v-3c0-.531-.469-1-1-1Zm-1.5 3.25a.722.722 0 0 1-.75-.75.74.74 0 0 1 .75-.75.76.76 0 0 1 .75.75.74.74 0 0 1-.75.75Z"/></svg>
