<svg id="icon-user" viewBox="0 0 16 16">
    <path d="M1.798 12.261q0-0.444 0.029-0.866t0.117-0.912 0.222-0.908 0.36-0.816 0.519-0.678 0.716-0.448 0.933-0.167q0.075 0 0.352 0.18t0.624 0.402 0.904 0.402 1.117 0.18 1.117-0.18 0.904-0.402 0.624-0.402 0.352-0.18q0.511 0 0.933 0.167t0.716 0.448 0.519 0.678 0.36 0.816 0.222 0.908 0.117 0.912 0.029 0.866q0 1.004-0.611 1.586t-1.624 0.582h-7.316q-1.013 0-1.624-0.582t-0.611-1.586zM4.477 4.786q0-1.331 0.942-2.273t2.273-0.942 2.273 0.942 0.942 2.273-0.942 2.273-2.273 0.942-2.273-0.942-0.942-2.273z"></path>
</svg>
