<svg id="icon-view" xmlns="http://www.w3.org/2000/svg" viewBox="0 0 16 16"><!--! eye (solid): Font Awesome Pro 6.4.0 --><path d="M7.754 5.152c.082 0 .164-.027.246-.027a2.626 2.626 0 0 1 0 5.25A2.608 2.608 0 0 1 5.375 7.75v-.219c.246.137.547.219.875.219C7.207 7.75 8 6.984 8 6c0-.3-.11-.602-.246-.848ZM13.25 3.84c1.285 1.176 2.133 2.598 2.543 3.582a.98.98 0 0 1 0 .683c-.41.957-1.258 2.38-2.543 3.582-1.285 1.204-3.063 2.188-5.25 2.188-2.215 0-3.992-.984-5.277-2.188C1.438 10.485.59 9.063.18 8.105a.98.98 0 0 1 0-.683c.41-.984 1.257-2.406 2.543-3.582C4.008 2.637 5.785 1.625 8 1.625c2.188 0 3.965 1.012 5.25 2.215ZM8 3.813A3.938 3.938 0 0 0 4.062 7.75 3.921 3.921 0 0 0 8 11.688c2.16 0 3.938-1.75 3.938-3.938 0-2.16-1.778-3.938-3.938-3.938Z"/></svg>
