<svg id="icon-view" viewBox="0 0 14 9">
    <path d="M13.1016 4.57422C11.9414 2.29688 9.62109.75 7 .75 4.35742.75 2.03711 2.29688.876953 4.57422.833984 4.66016.8125 4.76758.8125 4.875c0 .12891.021484.23633.064453.32227C2.03711 7.47461 4.35742 9 7 9c2.62109 0 4.9414-1.52539 6.1016-3.80273.0429-.08594.0644-.19336.0644-.30079 0-.1289-.0215-.23632-.0644-.32226ZM7 7.96875c-1.71875 0-3.09375-1.375-3.09375-3.09375 0-1.69727 1.375-3.09375 3.09375-3.09375 1.69727 0 3.0938 1.39648 3.0938 3.09375v.02148c0 1.69727-1.39653 3.09375-3.0938 3.09375v-.02148ZM7 2.8125c-.19336.02148-.38672.04297-.55859.08594.1289.17187.19336.38672.19336.62304 0 .5586-.45118 1.00977-1.00977 1.00977-.23633 0-.45117-.06445-.62305-.19336-.04297.17188-.06445.36523-.06445.53711 0 1.13867.92383 2.0625 2.0625 2.0625 1.13867 0 2.0625-.92383 2.0625-2.0625 0-1.13867-.92383-2.04102-2.0625-2.04102V2.8125Z" fill="currentColor"/>
</svg>
