<svg xmlns="http://www.w3.org/2000/svg" id="icon-wagtail-icon" viewBox="0 0 16 16">
    <!--! Custom icon -->
    <path d="M12.324 2.539c0 0.152-0.114 0.303-0.303 0.303-0.152 0-0.303-0.152-0.303-0.303 0-0.19 0.152-0.303 0.303-0.303 0.19 0 0.303 0.114 0.303 0.303zM12.437 5.421c0 0-0.417-1.896-2.92-1.403-0.228-0.872-0.19-1.517 0.341-2.086 0.759-0.796 1.972-0.379 1.972-0.379v-0.645c-0.417-0.19-0.834-0.228-1.252-0.228-1.631 0-2.541 1.214-2.92 2.048l-4.513 8.306 1.289-0.228-2.351 4.513 1.631-0.303 1.252-3.527c3.527 0 8.078-1.289 7.471-6.068zM13.954 3.828l-0.986-0.986-0.796 0.986zM5.535 10.465c0 0 0.152-0.038 0.341-0.076 0.19-0.076 0.493-0.114 0.834-0.228 0.19-0.038 0.379-0.114 0.569-0.152 0.19-0.076 0.417-0.152 0.607-0.228 0.228-0.114 0.417-0.19 0.607-0.303 0.228-0.114 0.417-0.265 0.607-0.379 0.038-0.038 0.114-0.076 0.152-0.114l0.114-0.114c0.114-0.114 0.19-0.19 0.265-0.265s0.152-0.19 0.228-0.265c0.038-0.038 0.076-0.076 0.114-0.152l0.038-0.076 0.038-0.038c0.038-0.076 0.076-0.114 0.076-0.152 0.038-0.038 0.076-0.114 0.076-0.152 0.038-0.038 0.038-0.038 0.038-0.076 0.038 0 0.038-0.038 0.038-0.076 0.038-0.038 0.038-0.076 0.076-0.114 0.038-0.114 0.076-0.19 0.114-0.303 0-0.076 0.038-0.152 0.076-0.265 0-0.076 0.038-0.152 0.038-0.228s0.038-0.152 0.038-0.228c0-0.076 0.038-0.152 0.038-0.228 0-0.038 0-0.114 0-0.152 0-0.19 0.038-0.341 0.038-0.341l0.19 0.038c0 0-0.038 0.114-0.038 0.303 0 0.076-0.038 0.114-0.038 0.19s0 0.152-0.038 0.19c0 0.076 0 0.152-0.038 0.265 0 0.076-0.038 0.152-0.038 0.228-0.038 0.114-0.076 0.19-0.114 0.303-0.038 0.076-0.076 0.19-0.114 0.265 0 0.038-0.038 0.114-0.076 0.152 0 0.038 0 0.038-0.038 0.076 0 0.038 0 0.038-0.038 0.076 0 0.038-0.038 0.076-0.076 0.152-0.038 0.038-0.038 0.076-0.076 0.114s-0.038 0.076-0.038 0.076l-0.076 0.076c-0.038 0.038-0.076 0.114-0.114 0.152-0.076 0.076-0.152 0.19-0.228 0.265s-0.152 0.152-0.265 0.265l-0.114 0.114c-0.076 0.038-0.114 0.038-0.152 0.076-0.228 0.152-0.417 0.303-0.645 0.417-0.19 0.076-0.417 0.19-0.607 0.265-0.228 0.076-0.417 0.152-0.645 0.228-0.19 0.038-0.379 0.114-0.569 0.152-0.341 0.076-0.645 0.152-0.834 0.19s-0.341 0.076-0.341 0.076z"></path>
</svg>
