<svg id="icon-warning" viewBox="0 0 16 16">
    <path d="M14.674 13.246c0.11 0.165 0.11 0.33 0 0.494-0.082 0.137-0.22 0.22-0.412 0.22 0 0-12.552 0-12.552 0-0.165 0-0.302-0.082-0.385-0.22-0.11-0.165-0.11-0.33-0.027-0.494 0 0 6.262-10.986 6.262-10.986 0.082-0.165 0.22-0.247 0.439-0.247 0.192 0 0.33 0.082 0.412 0.247 0 0 6.262 10.986 6.262 10.986zM8.769 12.559c0 0 0-1.401 0-1.401s-1.538 0-1.538 0c0 0 0 1.401 0 1.401s1.538 0 1.538 0zM8.769 10.115c0 0 0-4.23 0-4.23s-1.538 0-1.538 0c0 0 0 4.23 0 4.23s1.538 0 1.538 0z"></path>
</svg>
